<mxfile host="app.diagrams.net" modified="2023-06-10T02:54:16.898Z" agent="Mozilla/5.0 (Macintosh; Intel Mac OS X 10_15_7) AppleWebKit/537.36 (KHTML, like Gecko) Chrome/114.0.0.0 Safari/537.36" etag="_KTjXZH63j81BNmYxMhA" version="21.3.8" type="device">
  <diagram id="KMcxD_Hfu1oPM4u3RyKm" name="Page-1">
    <mxGraphModel dx="1306" dy="775" grid="1" gridSize="10" guides="1" tooltips="1" connect="1" arrows="1" fold="1" page="1" pageScale="1" pageWidth="850" pageHeight="1100" math="0" shadow="0">
      <root>
        <mxCell id="0" />
        <mxCell id="1" parent="0" />
        <mxCell id="4VwqD9fQMVnzG3LPeEwB-141" value="Front" style="text;html=1;strokeColor=none;fillColor=none;align=center;verticalAlign=middle;whiteSpace=wrap;rounded=0;shadow=0;fontSize=15;fontStyle=0" parent="1" vertex="1">
          <mxGeometry y="2" width="1077" height="20" as="geometry" />
        </mxCell>
        <mxCell id="5uJiSFjtqBeSPKO0pYjN-7" value="&lt;span style=&quot;font-size: 10px&quot;&gt;12 Ã—&amp;nbsp;2.5&quot; Hot-Swap&lt;/span&gt;&lt;br style=&quot;font-size: 10px&quot;&gt;&lt;span style=&quot;font-size: 10px&quot;&gt;NVMe Drive Bays&lt;/span&gt;" style="text;html=1;strokeColor=none;fillColor=none;align=center;verticalAlign=middle;whiteSpace=wrap;rounded=0;" parent="1" vertex="1">
          <mxGeometry x="202" y="206" width="147.78" height="20" as="geometry" />
        </mxCell>
        <UserObject label="" ProductNumber="Asus RS500A-E12-RS12U" Manufacturer="0" PartNumber="0" ProductDescription="Asus RS500A-E12-RS12U" PurchaseDate="0" InstalledDate="0" WarrantyExp="0" SupportAgreement="0" SupportContactName="0" ContactPhone="0" Comments="0" Cost="0" AssetNumber="0" SerialNumber="0" Location="0" Building="0" Room="0" Department="0" RackUnits="1" NetworkName="0" IPAddress="0" SubnetMask="0" AdminInterface="0" NumberOfPorts="0" MACAddress="0" CommunityString="0" NetworkDescription="0" SystemName="0" SystemFunction="0" OperatingSystem="0" SystemSpeed="0" TotalMemory="0" TotalDisk="0" SystemComments="0" InputVoltage="0" InputCurrent="0" PowerInputQty="0" VARating="0" BTURating="0" Weightlbs="0" WeightKg="0" id="qyDp9NLyyZG6aSjn7zKM-1">
          <mxCell style="vsdxID=5;fillColor=none;gradientColor=none;strokeColor=none;spacingTop=-2;spacingBottom=-2;spacingLeft=-2;spacingRight=-2;points=[[0.06,0.25,0],[0.2,0.25,0],[0.06,0.65,0],[0.2,0.65,0],[0.21,0.25,0],[0.35,0.25,0],[0.21,0.65,0],[0.35,0.65,0],[0.35,0.25,0],[0.5,0.25,0],[0.35,0.65,0],[0.5,0.65,0],[0.5,0.25,0],[0.65,0.25,0],[0.5,0.65,0],[0.65,0.65,0],[0.65,0.25,0],[0.8,0.25,0],[0.65,0.65,0],[0.8,0.65,0],[0.8,0.25,0],[0.95,0.25,0],[0.8,0.65,0],[0.95,0.65,0]];labelBackgroundColor=none;rounded=0;html=1;whiteSpace=wrap;fontStyle=1" parent="1" vertex="1">
            <mxGeometry x="1.0014507772020729" y="56" width="1085.998549222798" height="128" as="geometry" />
          </mxCell>
        </UserObject>
        <mxCell id="qyDp9NLyyZG6aSjn7zKM-2" style="vsdxID=6;fillColor=#1a1a1a;gradientColor=none;shape=stencil(pZLdEoIgFISfhtszR1DDa7P3cEZMJgIHsZ+3D6Kmn8mc8m5ZvmXgsISVQ1f3glAcnDU7cZSN6whbE0ql7oSVzivCKsLK1lixtWbUTVz3dSCD2ptDOOEUc0UBRRpSFM83ZwVZfnU2MaCk/hqgHDCbDiSIS3CcRv8EZy6AgPkifmaACSSv/P3Fn8fNgac/4PPf6cWjDK1UKnbpef+9PN6KxWPVBQ==);strokeColor=none;strokeWidth=0;points=[];labelBackgroundColor=none;rounded=0;html=1;whiteSpace=wrap;" parent="qyDp9NLyyZG6aSjn7zKM-1" vertex="1">
          <mxGeometry x="50.26941201058887" y="2.727272727272727" width="976.9022400724439" height="113.18181818181817" as="geometry" />
        </mxCell>
        <mxCell id="qyDp9NLyyZG6aSjn7zKM-3" style="vsdxID=7;fillColor=none;gradientColor=none;image;aspect=fixed;image=data:image/png,iVBORw0KGgoAAAANSUhEUgAAE4gAAAHICAIAAAAt45cXAAEAAElEQVR4nOzdaYxk13nY/XPO3WrrbVYOyZnhDEkNd4omKdEKtFiKI0eSAy9w4ASBbSS2EgRxbMQJ4gRCHORT8i12kCBvbMOxYFuyIwmOLcWyGGuhLEYUSYmkuO8ccobLzPT0Vttdznk/POyrYi/VVdW13Or+/yAIw+qquqfq3rr3uc85zzn6f/7P//nQQw+VSiWllNa68//F5kestaVS6cyZM/I40C/nXJZl3Y8frXWr1br77rtvvPFG55w82VprjJEnvPTSS+fOnTt79qzv+865XrZrrd194wEAAAAAAAAAAAAAAAAAAAAAAABgg7zuqTutdZqmJ0+ePHz48PHjx8vlslLKWiu1e1JItbi4+OUvf3nHsinnnDGmx+0Cm3UeYFv+e8ODWuskSY4ePeo/9NBDTzzxhBy+chTKESz/yP9z8yNPP/30uD4d9hQ5da6srARB0OXM6Hne4uJiFEU33nij1KPKiXJtbe3zn//8U0899fLLL8dxnGVZ79ttNptqvdAaAAAAAAAAAAAAAAAAAAAAAAAAAIYiy7JKpdL7833f9zzv4MGD11133c/8zM+cOHFCKeWck9q/Cxcu/P7v/36lUumyUJ+UCJbL5e5PA7pwzsnBY62Vf7t1Wz6ilGo2m7feeqsfRVGpVJIVU7uUoXY+Is+UWlagX1KY6pzbsTA1y7IwDNV6LbXW+s/+7M/+9E//9MKFC2EYRlHU18laax0Eged5FKYCAAAAAAAAAAAAAAAAAAAAAAAAGKIkSaIo6rFwSVZGdc5dunTp3Llz3/nOdz7wgQ/84i/+YhRFWZbJ8pOzs7PlcpnCVIzUAIWpQRBUKhU/f1Rttdbqdo/k7wL0S2tt13UpTNVaZ1kmTzDGtNvt3/qt37rvvvsqlcr8/LwcgX0dhLJd3/cpTAUAAAAAAAAAAAAAAAAAAAAAAAAwRFLu1G/hUhAEUoz65S9/+dlnn/21X/s1WTpVKZVlWff6qc4qLWr9MJgBClPlyPQn3XKgm7xq+j/9p//0wAMPHDx4MMuyLMsGeyutNSumAgAAAAAAAAAAAAAAAAAAAAAAABgiWbx0gBc656RUamFh4ezZs7/xG7/xH//jfzx69Ohg9VPA2FCYikKTeQL+4A/+4Dvf+c6hQ4cGO0HntNasmAoAAAAAAAAAAAAAAAAAAAAAAABgiLTWxhhZV2+wd0jTdGZm5vLly7/1W7/1H/7Df/A8b7gtBIaLwlQUl3OuWq0uLi7+r//1v+bm5nZZlarWC1OH0jYAAAAAAAAAAAAAAAAAAAAAAAAAUEpprXe/ll6aprOzsw899NA3vvGNm266iUVTUWQU6aHQsiz7zGc+o5TSWjvndvluFKYCAAAAAAAAAAAAAAAAAAAAAAAAGC5jjDHGWrvL98mybGFh4TOf+cw//If/sFQq7b6cChgRivRQUM65KIrOnz//ve99r1wuD+U0qrVmGWsAAAAAAAAAAAAAAAAAAAAAAAAAw6K1zgtTd7k4n3PO9/3Lly8/8MADpVIpjuPdL8QKjAKFqSgo51wYht/97ndbrZbnedudkY0xfb0nhakAAAAAAAAAAAAAAAAAAAAAAAAAhsh06LEwdbvlVa21vu8/+eSTaZpSlYrCojAVBeWc01q/9tprc3NzXZ5Wr9d7PFk754IgCIKANawBAAAAAAAAAAAAAAAAAAAAAAAADIUsc6qUWl1d9X2/x9qlcrm8Xd1pEATnz58vlUpRFFEJhWKiMBWFVqlUtlvAWmvdbrc//vGPv/e973XOdV86VRbCvu+++5544olqtbrdjAIAAAAAAAAAAAAAAAAAAAAAAAAA0DutdRzHJ06c+Ff/6l/Jf3Z5slQ5nT9//tOf/vR2RafW2lKp1L1aCpgsClNRaNudXrXWSZIcOXLkF3/xF3t/t+eff/6hhx4qlUpZlg2pgQAAAAAAAAAAAAAAAAAAAAAAAAD2L1l+7+jRo7feemuPL7n11lufffbZe++9d25ubstCp+7VrcDEUZiKaSWLXPe49mmWZZ7nxXFsrc2yjMJUAAAAAAAAAAAAAAAAAAAAAAAAALuntbbWpmlqrXXO7VhTKoVOvk9lH6YYhy+mmJype5kAwDknq1dn60bfOgAAAAAAAAAAAAAAAAAAAAAAAAB7nNY6TVMpX+qlMDV/5niaB4wChanYR5xzaZqmaUphKgAAAAAAAAAAAAAAAAAAAAAAAIDdk8JUa+2kGwKMD4Wp2EcoTAUAAAAAAAAAAAAAAAAAAAAAAAAwRMYYClOx31CYin3EOZetm3RbAAAAAAAAAAAAAAAAAAAAAAAAAEw9KVmiMBX7CoWp2EdYMRUAAAAAAAAAAAAAAAAAAAAAAADAEBljkiShMBX7CoWpmG5Zlmmte3maUspau2Vhai/vAAAAMF2cc92fQAgEAACKo3voQtwCAACKg5QLAACYIqRcAADAFCF0AQAAU2dDAGOMkRVTsyxzzu0YwEhl0459T0CRFagwVWvNz2lKDbbvdjzJyntu+TR50Bjj+z0dw57nKaXCMIzjeHNhqqyX3WOzAQAApoLv+13CLVlJfpztAQAA2I4xRlI325GU/djaAwAA0EX3lItSKk1TejwBAEARaK27D6oh5QIAAIrD8zxjTJcnkHIBAABFY4zZEMAYY+I4VusVTDvKC52UUlrrzT1Q+SPdO6cGm8KDIr6pVpzdV5TCVBKd005r3f2ecMOTrbVywu3COdflaVmWra6ufu1rX5P/7L51a60x5oUXXgiCwFrb+fNzzvm+v7Cw0GPjAQAApsLly5fjODbGbLjxkFsRY8zBgweZThIAABRBs9lcXV3dHLeo9SRSpVIhdQMAAAri8uXLSZJs2dcrDy4sLPQ4rSoAAMBIpWl6+fLl7eIWUi4AAKBQ1tbWGo3Gdr1FpFwAAEABNZtNCWDyR6y1nuctLy9/4xvf2HHFVGutFDq98sorSqk4jq21m5+WZZnWesfyK3la741neb89oMf651ErRIzunHPOFeQbwQBkD/b+ZGPMUFLb1trf/u3flhkcDxw4sGMboii6+eabO59mjGk2m6dOnfrVX/3VXlbKBgAAKD6Jaj71qU8988wzlUplw52q1jpJkoWFhd/8zd8MgmBSjQQAAFBKZVnmed6XvvSl//E//sfs7OzmlLfneUtLSx/96Ed//ud/Xp48kXYCAACo9ZTLv/23//b5558vl8ubBwdorVut1qc+9anTp0/LSIKJtBMAAEBCkRdffPHXf/3XS6XS5uE0knL52Mc+9g/+wT8g5QIAACZLopFPf/rTX/jCF7bsLdJat9vtf/fv/t0111xDygUAABSBBDD/5//8nz//8z+fn5/vDGC01lmW/eEf/mGXl0sB3fLycpZlvu9HUXTFFVfsfvVLY8yWpa3btUHttEAgCktrnaZpQWLjQhSmqm0WHcYU6fckaIzpZY93Lxb1PC+KIudcmqYLCws7tkGWYO384cna2Z7nMZESAADYYzzP0+s6H5dHjDFBEBACAQCAyZLMjO/7W8Ytaj10kdSNPHki7QQAAMhtl3JR66GL7/u+7zMdKgAAmCAJRfKUy+YnkHIBAADFkY/jJeUCAACmRT7cRcKYzj8554Ig6L6SnxSmGmPSNA2CIF86dZet6reqizq+6VWofcdIdExMj2e97k/LskyWkJZ/9PuG8u/8/4vzywQAABiYRDW9zNkxnvYAAABspzMzs/unAQAAjFRfKRd6nQAAwAT1G7eMpVEAAABb67e3iJQLAACYuA2FSBsiGSlx2vHlUgZljCFFg6nGjHcAAAAAAAAAAAAAAAAAAAAAAAAAAADoCYWpAAAAAAAAAAAAAAAAAAAAAAAAAAAA6AmFqQAAAAAAAAAAAAAAAAAAAAAAAAAAAOgJhakAAAAAAAAAAAAAAAAAAAAAAAAAAADoCYWpAAAAAAAAAAAAAAAAAAAAAAAAAAAA6AmFqQAAAAAAAAAAAAAAAAAAAAAAAAAAAOgJhakAAAAAAAAAAAAAAAAAAAAAAAAAAADoiT/pBgB7mVs36YYMmdZ60k0AAAA/oLUeytXZWquU2mOhC3ELAABFY8wQZsoj5QIAAMaAlEt3hC4AABQKKZcuiFsAACiUYaVc9mToQtwCAEDRDCt0AfYqClOBUXHOcRECAADjYa3dTeAhafqhDFkAAADYkbV2N4GHvJyUCwAAGAPJmewm8HDOkXIBAADjscuUC6NcAADAOEnsscuXE7oAAIAx2GXKBdjbKEwFRkJuei9cuHDu3LmXX345y7JpvAGWT9Fut9M0VUpprdM0PXbs2PHjx3eZFAAAAEN09dVXz87ODvzy/LL+3HPPvfnmm6+//rrnecNr3Vg555rNZj5m1Fp74403VqtVQhcA2MM4yU8Ra22lUjl+/HgQBAPvOCntaDabL7zwwquvvlqv16cx+y8fP03TVqslwyayLKvVajfeeCOHNAAABaG1vvrqq2dmZtTuYk6t9QsvvHD+/Pk33nhjelMuSqlWq5VlmVrvLTp58uTRo0cJXQBgD+MkP0WstdVq9eqrr95lykVrnSTJM888s2dSLvKg1vqWW24Jw5CjGgD2ME7yU8Rae+TIkSNHjmitdxm6nDt37vXXX3/llVemeu9vSLlcc801R44c4ZAGAKAInHOe5508ebJcLk+6LUBxUZgKDJ/MiPDggw9++tOfTpJErc+oPY2MMaurq81mU7ocnHO+7/s+pw4A2LOky9laWyqVrLWTbg52Zowpl8v33HPPz/7sz5ZKpX5fLrnsxcXFz372s48++qjk/UfRzjGQStSlpaXOj/CXf/mXJOsBYA9zzrVarUqlMr3Xr/1Dwgzf9xcWFn7mZ37mfe973wB7TUKXxx577E/+5E/eeustY8z07nopr11dXc1TLsaYMAwn3S4AwKiQcpk6WutqtXrrrbf+0i/9kpQx9PsOzjlr7Wc+85lvfvObkp2Y6tBlaWkpjuM8dAmCYKrrbAEA3WmtG41GFEWe503v9WtfCYKgVqv95E/+5Ic//OEBos28tON3f/d3X3311ane7xtSLuIv/uIv6C0CgD3MWttut+ktmhZa6yiKrrvuup//+Z8/duzYAHtNBujee++9n//85+WR6d31pFwAYL+RNcO01oP1O2D8jDG1Wu0jH/nIT/7kT7JaO7AlqsuAIZN8/VNPPfW7v/u7tVpNVuiadKMGJ1mAOI7zi6hzbqo/EQCgO611HMfW2nK5zCjJaeGc+9KXvtRutz/5yU8qpfq69XXOJUnyu7/7u88+++zBgwen/SrvnNuQsiF0AYC9TQodp/3We/+Q2tTV1dXf/M3fLJfLd9xxh7W29851Sbm89NJL/+2//bdSqXTgwIGp3u9a63K5XKlUOoM3InAA2MNIuUwja+03v/nNRqPxK7/yK0EQ9PVamXXij/7oj77+9a8fPnx4quMWpZTWOgiCNE3pLQKAfUJrbYwplUpTXaC4f0jKpdls/vZv/7Zz7iMf+Uiapr2vdyq7eGlp6b/8l/+ytrY27b1FW6ZcCF0AYG+z1gZBQG/RFHHOPfbYY//5P//n3/iN3+h3/TFZuOz+++//kz/5k4WFhWkvDiHlAgD7jZz5pUCDE/60yLLsj/7oj5xzP/3TPy0TZEy6RUCxUJgKjMTnP//5MAyNMWmaTrotu6K1TtO0874XALC3yZqTuUk3B706cuTI/fff/4lPfOLqq6+21vZ44ZYhkk8//fSzzz576NAhWel9qjnn0jQlZQMA+4csQmWt5eQ/RcIwLJfLX/ziF++4445+J9RQSn3lK18xxkRRtAdSLlmWkXIBgP2DlMuUOnTo0IMPPvjQQw+9733vy7Ks9zk1PM977rnn/vqv//rw4cPTHrcoeosAYP/JQxepeJx0c9ATWTT1c5/73D333FOpVHp/obXW9/0vfelLly9fXlhYSJJkqq/4pFwAYB/K8y3ELVPkwIEDr7zyyne+850PfehDfaVcZHX0P/3TP52ZmZGOwpG2c9RIuQDAfiMpF/l/QpdpobU+fPjwvffe+2M/9mO1Wk0mVZ90o4ACoVYbGCa5zKysrCwtLYVhOO03vQAAYIqkafr888+r/hfaeu655zzPI24BAADjkWVZGIZvvPHGysqK7/cxa57v+2manj9/PooiQhcAADAeWZZFUfTII48M8NqzZ8+q9ck1AAAARk0Wi1tdXX3++ef7Gh/peV6WZefOnSuVSlmWMbYSAACMQZZlvu8/++yzSqm+wg+t9YULFxqNhu/7ZF0AAMAYyAIwjUbj5ZdfVvT7AJtQmAoMk1xmLl68WK/XWaQbAACMk3NusCVP98BCqQAAYOokSTJAcenAAQ8AAMBuDLbk6euvv05dBwAAGDPnXL+hizEmTdNLly71vlIZAADAUAzW6fPmm29O+xrvAABg6lhrGa8CbInCOWD4jDHc9AIAgPEbLAIhbgEAAOM3cARC6AIAAMZvsAiE0g4AADARg4UuzL0OAADGj5QLAACYIoxXAbZEVhEAAAAAAAAAAAAAhsk5N+kmAAAAAAAA7DWkXAAAAIDioDAVAAAAAAAAAAAAAAAAAAAAAAAAAAAAPaEwFQAAAAAAAAAAAAAAAAAAAAAAAAAAAD2hMBUAAAAAAAAAAAAAAAAAAAAAAAAAAAA9oTAVAAAAAAAAAAAAAAAAAAAAAAAAAAAAPaEwFQAAAAAAAAAAAAAAAAAAAAAAAAAAAD3xJ90AAO+gtZ5sA5xzk20AJmuCB0D3g7+wDVOTa1thG6bYm/2b+Ml/M7du0g3Zdwp4MHRRhNZylO5zhT1vF/ZiV9iGKfbmVqZ3b44fccukFPBg6KIIreVA3c+KfN7mKrxBYRumCty26W3Y+JFymZQCHgxdFKG1HKX7XGHP24W9Che2YYq9uZXp3ZvjR+gyKQU8GLooQms5SvezIp+3uQpvNr1XYfbmBkU4+W9G3DIpxTwetlSEpnKU7nOFvdgVtmGqwBe7wn5pNGyzIpz/NyDlMikFPBiAPYDCVKBArLWTboJSShnT31rKWuuJBEY7bndSDdvRBBu246aDIBhbYzo557Is6/IE3/cnFQumadrlr1pr35/MxTTLMvZmv7rvTWNMvyfAYdlxb46f7/tBEBTkwrSvFPBg6KL7j308tNZ9nVKKfBUmpup3uxM8b1tru5whJxge7HgVLmx4UNirMHtzSztGyGM+aRhjgiCYogvonrHjUVooBYlspyV0KWx40IvCfmncC29W2Ktw92BPEVNtpbAJtB335vhPGqRcJmXHg6E4nHNFaOoAcYua0NCiwoYuU92wwp63C3svPMFgr3tMRQJts+ntxhr/SUNrHQSB53mFvQHcw7ofDIVSkNBlWka57IhurAG2W+TzNoNJNpjeqzAJtM0KmHKht2hSpqu3qCBNnZbQZXrDg8LGVEW+Fy5seMBVeLPC7k01tQm0iZw0giAgdJmIKUq5AFOEwlSgELTW7Xa70WhMfBoG51y1Wg3DsMdYx1q7vLw8/mZrrbMs6x6kJkky/hsSrbXk3baLF7XWSZKoCU25Ya3d7pZDa52m6YULF8bfo2mtjaLo0KFDXTZ98eLFOI6NMePPWh4+fHi7DletdbPZXFxcHHPD5Es7ePBgqVTarmFZll24cGHMvYDSsDAMDx8+vN0XorW+ePFiu90e/97UWh8+fNj3/S23a4xZWlpaW1ubyN48cOBAuVwuzknDWnvp0iVuesfPOXfixIlqtVqELvwdra2tpWk68dBFaz07O9v7k1dWVibVbOdcl/Agy7IsyyYyxKdLeCAmGFNJGne78/bq6ury8vJEztvz8/O1Wm3Ln6rWOo7jixcvjq1JnQ2rVCoLCwvbHWbW2gsXLoy/s00O/kOHDm3305vU3hSHDh3a7vZnsnuzXC4fOHCg+94c/wnNOef7/uHDh7vsrDGfNLTWS0tLr7zyykSOn30rP0pPnDgx6bbsTO52V1dXJx63WGtLpVKlUpmKlIvneV0ik8KmXAobU2mtL1y4UMDMRpHvhSeYcpmZmZmbm9su2CtsAm1Se1MVO4FWq9Xm5+e325tjPmnIFkm5jJ9880eOHDl8+HARUhndyU+m1WpNarhVp5mZmR5/INLsRqNRtKvwBMODHmOqiTSse8plsvfC3VMuhb0X1lovLi42m82iZTYmm0Cbm5ubmZkpYAKtS8pFnnP58uVGozHmL62Xw0xuKMbWJGPM2tra2bNnSbmMn9b6mmuu6X3MxmStrq5OvJ2Sgq7Vaj22RGu9vLw8/s64qR5MMtmYyvf9LuciBpNs4JzrPpiksJkNEmgbFDyB1j3lYq1N03ScJw2JyektGjM5S8/MzBw/frz4o1zylMvEU0POuZmZme3uyjeQ8/bKyspEju1eBpMUNrMxqdxa96FBDCbZQL6uw4cPb/cEBpNs3u70DiYpbAJt/CcN2eLi4uLEL0n70HSlXIApQmEqUBTOOa31xIca9JUjkDlCutxKjY7ccodh2OUbi+PY87xxtkp1zJsSRVGXvgSt9fjbppSSPO+WfzLGNJvNV199NcuycQa7sisXFhauuuqqLkfRW2+9tby8POZEhtwpXXHFFVvuTfnr6urqyy+/3GOqaFgkrzc3N1cul7e8gZRa91dffXXMt5eyN+fn56+++uoufQlvvfXW5cuXx/ylOec8z7viiitKpdLmE52cx1599dWXXnppzLcc8qXNzs522ZsyQ8/YThpyPXrzzTdl4MV4NgrhnDt27JhcSoqfd3DOGWMm3s5+f7DSaz7+ZltrnXPdw4Mxd87lsiwLw3C778Q5N6mYylrred52V+EgCN58880XX3xx/OftOI5vvPHGw4cPS1C3oWG+77darVdeeWXMh5k07Morr7zyyiu7XFDOnTvXbrfH3Dbp5Ljyyiu3vKzI3nzrrbfGvzfFoUOHSqXS5hhYgod2uz2RvZmm6ZEjR6666qrt9maWZefPn5eU/TjbJp0cV1111XbnqzGfNKQ3dHV19dy5c2MOL/c5OUoPHDhw8uTJafnai5By6ctkUy4y4K/LabmwKZd2uz3BwtTtUi5q/V64gJmNIAjOnj378ssvF+peWJq9srIykZRLHMenT5++4oorNgd7qsAJtAlmNoqcQIvj+Jprrjl27NiWe3P8Jw1pwxtvvFGEAXD7itx0VyqVI0eOTLotvZrgOgA5SWX0+GSJH6Tjo1CZDTkVTCTlIqfuLtPe53dPExm+2SXl4vv+pO6F4zi+6aabtky5qPWvtID3wvKlXbp06a233prInalUnmyZ2ZhsAu2GG244cuTIdgm0CaZcjh49ul3KRdr2wgsvvPHGG2PemzumXORbHdu9rbXW9/00TV955RVWTB0zOQ5PnDihi7qk52YTj1skhdLX8yX1MbombWl6B5NMMOWSDw3qsuk333xzZWVl/CmXIAiOHTu25UV2gpkNpZRMD7Hd8IPCZjbUegJtaWlp/INJSKD127A4jk+dOtUl5ZJl2TjL1aS3aGlpaVIx+b4lV65jx46dOHFiKka5SDXjxEOXfot4JUUzqZRLl46PYmY21Njvnjp1GRrEYJItyWCSq666asvtFnkwSWEzG4UdTCJf2uLi4ptvvjn+i7Vbn7plyxh4/CcN2da5c+fGHJNjGlMuwLSgMBXAbk0qKtpxu0VuWGHbFgTBmKuM5NvYsdfH9/0gCCYyfLP7c7TWQRCMP8nby24KgmDMB1tfe3Mihandn+N5XhiGYx72rdd1f87Y2qPW+0RlN008G7vfTEWmftpN8BI81aHLeFrS73aNMRM5b6udxtlIeDD+s7dSasercBAE0t82lka9bceJVNWE9qbY8So8kb3ZS0wVBEGapuPvS9hxb445/lRKGWPGH17ucz0epdi9wl6FC9uwHp8zCjtut7CZjSLfC08k5aJ6GFRd2ATaRPZmkRNoqod5vsZ/0pCzAbf/49TjTxu7VOSODxrW73YnmNno5SpczHvhiXR8iO57igTaho0Wthurx5TL2L4x2ZDsJgpTx6yXABu7V+SrcJHbNp6W9LvdSaVcejlvTyQ86KUbqLCZjUkNJilmyqXgCbRCpVzyJtFbNGY99lBj9wp7FS5ywybSth7P2wwmyTGYpF/TPphkUgm0HcdkTuSkMf6YHKRcgNHhpwUA+IF+JxMd20Zdh/G0SvX8bYy/Yaq3FQLZm5s32stzirk3e6DdwPeom7bvlHLKyP922awJc9mkW9AfOkiAfhX2vD2Rn3PvF7vxtKffjU5kb/ai4Htz/Mf/ULbo9C5iDNf5T+eUUdqshy6FO3764OwWYVmBFfMHCxQZ98Kbt9vLc4rcsDE0pt+NFvYwU9Mdugwx5aIlenHKKDXlQw1IuQB73aTuhXt5TjEvKJOKqXpR5JhqDC3ZvNFi7s2hpVyUVsMIXd4OWvZGykU55fpbk2qyinkmAYqsyOftIl+FyWxs2Ggvzyny3ixghNzT+wy1t8gpvRdCF3qLgL2u4PfC42lPvxstcsplIhvtPXQZT5M6N9rLc4oZU+38JkNKuSillNLrKRc35b1FpFwAvG0/Fqbuq6kFOHsCALAPaONSncVK6QEy1JtDI2szHS+rdlONZt4srZTdXYgiU1R1fQuntXFBZcpv3QEA2IO0cn7WGCxfsSFucc76NjDJqmovqSxQI8iBSMixy+yK0Xqn1zvtl50Jpmu0AQAA+8CuUi4bYgCttbGpjpdVuz348IWuSLkAALDP+bY92PwRWindEbpIysVP11R7WXleYVMuPQz+cdoLnVci5QIAQNFo5fysPlgssHVvUVzw3iJt9A4RiVZOBRWnfUIXAAAKRvsuUVkyrN4im7VUe1llWZF7i3Z6itPac0FlN1vBvrKvivjU/qvj23eFqdbadru9Tw5r51ypVNonHxYAgP1Key65HB5drt5gVOL6HxQYZ868c+ol51z9hpuTJB1RFGG1iwYteZWWxs452+WjOq29LG1FL33F2ISBkgAAFIdWLtH+K/N3eSbod8pqrXTirM2UWb+2O6eMMUsnb00OrmbGjCKn55TSRgVa72amyoa1xm37aq2c9ULvtfvD5ZedCRltAABAYWjPJYvhFSu1M8YNJeWinbP1G27OsnREyYrdpFxEqlyaOU9tN62GpFya0UtfMXZUnwIAAAxGu+y1mduzcEHZrK+rtFYqcyqxzlt/RFIuTb8RB+8xRhcw5SKvajunuvYWKS9yi8+Uzz/ovIiUCwAAxaGVbZnKG3P3+FoP0ltkrbM/qOOQ0OXytTclxxqj6C3SSmXKBZ42u8iEOKVame3yDlo5a3z/la8F9beYyRQAgOJwSvsuuVA6Wa9cY2zi+h9Su7m3KMvS1s23OmdH1M/itAt3N0B3x5SLNn7Wulx6+a80XUXoTavV2ie1ms453/fDMNwnn1fsr8JUrbW11jnned6e381a6yRJrLW+7+/5DwsAwL7llNYuWYuuUMd/PLINq/q7n9RaXajHYWo23C/PH/ZHdcPoVNOzx2vhYFl0p5Sv9ZvtJG65aJvFx5xynglWGpfiV77mZbHThpQ9AAAFoZVrqyA++pGFaCZ1ae8ZaokBVuOk2bRlbWzHn6IDpjyyZd7bzoUldTQKU7d9aelO7/LqWlzOth1soJ1NwpnLq+fV4jPKi0YxkzcAABiApFzq0TF1/MejbJCUy1v1ONqUclkoaspFKWW0Xs2yxbW0+s5wq2MLzjPBcuNC8vLXPJeQcgEAoEC0tjZbW7hz/uAtLmn2teCGUaph7eV6WlPviAH0gjl8fKQpF300CgZLuUim6Hwrdu23q1u3elKmo/kLT37WvvrX2i8PtpYsAAAYOqe052xLl7NjH635XtZPt4jEAEvtOG2p8J0xQOWgVx3N3OtGqTWVXVELStskTHYkpa2vrcVV5233aY1yLS9avvBEsHpOeSG9RQAAFIXWKotXK6eC4z8epHWn+0uVOKXerLfLmdfZN6SVPniFt/2LdsU6lQT2eCW0uxige64Vq+1TLs5Zz69cXnzKvvR//e3SMkAH51yapr6/L6oXnXNZtu/ykPti126gtR5s+a/8Vfk7WPv2nWYBKz8H/pgAAGDaaONSk9YD1xxglGRo49BuHCXpspHFNk5pz6pg8FGSSmvdTnTbbR/qOG0CHa8wOBIAgALSygW2EWRGu6zfwtTQJpm14YaO/0z1O512j7RS2sl8l7sYAaCVbse6a2GqdplmmXcAAIpIe5Jysfsm5ZJlup1qbbaJS0i5AABQaIFtB2ndZa1+C1MDa0Obhu8sTFVOuXSkKRetVLCLlIvW7Vi11ba9RS7TSum0ScoFAIAC0soFWSPQXl8rnK73FsXGbixMHW1vkcpUEKg+C1Heyel2rN22JShaOe2F2qWELgAAFI/2XRKk9SBrDFCYGtp2aN9RmKrcCHuLtFPaWuXtcoBu95SL1Vms4zX6itC7Ile3ScPM+qIIuywSLPInHZ39WJg6AK21MSbLsiRJ8pVIlVJhGCqlfN+XVUnzQxAAAGC8tNPGKeP6HCWptNr6VSONirVWehcTPmmttFXabT+uwint7WoTAABglJwyThunXO8xh1PKae2UcfLyzr+NNpvnlFZKe4NXX8jL9baFqUpJaLTvkpIAAEwFJykXvX9SLjJmYbsPS8oFAIBCy0OXvgpTnVJuPXQZb8pF7y7lopX2lFbdPqzkZAAAQCGtp1z6K0zt6C3SYwxddh9XOKU9pbokVRy9RQAAFNYPeov6L0zdordo5HHL7nuLuqdcNCkX7AHGGK21tTZJEqVUHMdSiUqR4AAoTN2BMcY512632+12tVq94oorsiy7+uqrZ2ZmrLUvvfRSkiRLS0tLS0u+75dKJd/39+HCuwAAAAAAAAAAAAAAAAAAAAAAAAAAFJAUCTabzSRJwjA8evSoUurkyZPlcjlN0xdffNE5t7q6uri4KEWCnudRntodhanbklVS6/W653mnTp2644477rrrruPHjzvnPO/tKQScc865N9988+GHH3788cefe+655eXlWq1mjOHIAwAAAAAAAAAAAAAAAAAAAAAAAABgUrTWWmspErz++uuvv/76u++++/Tp08aYvEjQWuucW1paeuSRRx566KFnn312bW2tWq3K8qqTbX9hUZi6Nc/zkiSp1+tnzpz5u3/3795yyy2df5VDTSpXtdbHjh37xCc+8YlPfOL8+fNf+tKXvvWtbzUajWq1ytKpAAAAAAAAAAAAAAAAAAAAAAAAAACMn+d57XY7TdPbbrvtE5/4xG233db5184iQaXUwYMHP/KRj3zkIx95/fXXP/e5zz3wwAPW2kqlQpHglihM3YLneWtra/Pz8//sn/2zu+++Wx601kp5tFJKDrWcrJuqlLryyit/6Zd+6aMf/ejv//7vP/bYY7Ozs5REAwAAAAAAAAAAAAAAAAAAAAAAAAAwTp7nra6uHj58+Od+7ufe8573qI4yQCkP3LJIUJax/OVf/uVPfOITn/70px977LGFhQVqUzczOz9ln5ED7l3vetenPvWpu+++2zknxaWyOOqWL5GqaGOMcy7LshMnTnzqU5/60R/90Xq9vt1LAAAAAAAAAAAAAAAAAAAAAAAAAADA0BljVldXz5w58+///b9/z3veY62VdSulDHDLl8hftdZSJHjq1Klf//Vf/+hHP7qysrLdS/YzVkx9B1kr9eabb/71X//1MAyzLPM8r/fiUq2153lSG/3JT37y6quv/vSnP12r1SiJBgAAAAAAAAAAAAAAAAAAAAAAAABg1GTpyh/+4R/+lV/5Fa21tbavylIpErTWRlH0yU9+cmZm5gtf+MLc3BxFgp0o1f0BY8za2trp06f/9b/+12EYWms9zxvgfbTWWus0TT/2sY/9xE/8xOLiou9TAAwAAAAAAAAAAAAAAAAAAAAAAAAAwAjJ0pVnzpz5lV/5FaVUv1WpOWOMLJ369/7e3/vEJz5x+fLlwYoN9yoKU98mpaTz8/P/9J/+0yiKBj7g8nfzPC/Lsp/5mZ953/vet7KywmEHAAAAAAAAAAAAAAAAAAAAAAAAAMCIaK3b7fahQ4f++T//50op59wuiwSNMdbav//3//673/3uRqOxm3fbY/gi3maMaTQav/ALv3D11VdnWbb7Q0QOO8/zfumXfunAgQNJkmith9JUAAAAAAAAAAAAAAAAAAAAAAAAAADQSWudJMkv/uIvHjp0aJdVqfkbKqWCIPjlX/7lUqmUZdkwmrkXUJiq1HpV6vXXX/+e97zHWjus1U211lmWzc3N/fiP/3i9XqceGgAAAAAAAAAAAAAAAAAAAAAAAACAoTPG1Ov1O+64493vfvdQlq7M3zbLsvn5+R/5kR+p1+vDqj2cdpRKKrVeQfp3/s7fMcY454b4zvKGP/IjP3LVVVe1220WTQUAAAAAAAAAAAAAAAAAAAAAAAAAYLhkidSf+ImfcM4Nt45PigQ/9rGPzc3NpWk6xHeeXhSmKq11q9U6fvz43Xff7Zwbbsmy1tpaWy6XP/CBDzSbTRZNBQAAAAAAAAAAAAAAAAAAAAAAAABgiIwxzWbzhhtuOHPmjPznEN9ca+2cO3jw4Pve975Go8GiqYrCVKWUMSaO4+uuu87zvOEulyqkuvrMmTO+74/i/QEAAAAAAAAAAAAAAAAAAAAAAAAA2Le01kmSSFWqtXYUm3DO3XHHHc45igQVhalKKVmZ973vfe+I3l+qq2+44YarrroqjuPhrgIMAAAAAAAAAAAAAAAAAAAAAAAAAMB+Zq0tlUp33323GvZyqUJrrbU+derUwYMH0zSlSHC/F6ZKJfSBAwfe9a53qfXVTYcuyzLf92+44YZWqzWKwxoAAAAAAAAAAAAAAAAAAAAAAAAAgH1Iax3H8bFjx06dOqVGUySotbbWzs/Pnz59ut1uU5hKkeTbxnAocLQBAAAAAAAAAAAAAAAAAAAAAAAAADAKFAmOzX4vTJUVU6+66qooiqy1Izos5G1Pnz49ijcHAAAAAAAAAAAAAAAAAAAAAAAAAGB/MsYkSXLy5EmllLV2RFtxzimlrr322izLKE/d74WpSinnXKVS8Txv1BuanZ0d9SYAAAAAAAAAAAAAAAAAAAAAAAAAANhXsiyr1WpqvXx0dGZmZka9ialAYerbi6aO4Whot9uj3gQAAAAAAAAAAAAAAAAAAAAAAAAAAPuKMWY85XsUCYr9XpjqnAuC4OzZs81m0xgzovJUedtnnnlmFG8OAAAAAAAAAAAAAAAAAAAAAAAAAMD+ZK0Nw/DFF190znmeN6KtaK2VUs8884zv+yyaut8LU3PGjPyrkCMPAAAAAAAAAAAAAAAAAAAAAAAAAAAM1xgq+CgSFPu9MFVqoNfW1i5evKjWlzYdOql6ffPNNymGBgAAAAAAAAAAAAAAAAAAAAAAAABgWKRIcHl5eXl5eXSb0FqnaXrhwgXP8ygS3O+FqUopKUx96KGH1GgKU+WYe+utt55++ulSqWStHfomAAAAAAAAAAAAAAAAAAAAAAAAAADYn4IguHjx4qOPPqqUyrJs6O8vRYIvv/zyyy+/HEURhakUpirnXBRFDz/8sFpf2nS4pBL1e9/73tramud5Q39/AAAAAAAAAAAAAAAAAAAAAAAAAAD2LVk09cEHH1RKaa1H8f5KqQcffDBJklEUIU4dvgJlrS2VSlKsrLUe+oqm8p4PPPBAEARUQgMAAAAAAAAAAAAAAAAAAAAAAAAAMETOuXK5/NRTTy0uLhpjhl4kaIxxzn33u98tlUpDf/NpRGGqUkpprZMk+cxnPjP0d86yzBhz//33f//7369WqxxzAAAAAAAAAAAAAAAAAAAAAAAAAAAMkXPO9/2VlZU//uM/VusLnA5LlmVa63vvvffs2bOlUonVKxWFqcJaW61WH3nkkaeeesoYk2XZsN5Zlv39sz/7syiKqEoFAAAAAAAAAAAAAAAAAAAAAAAAAGDosiyr1Wrf+ta3Xn/9dc/zhlXN55wzxrTb7S984QthGFIkKChM/YEgCH7v936v0WjIurq7f0NZLvWzn/3s2bNnoyiiEhoAAAAAAAAAAAAAAAAAAAAAAAAAgFHQWltrf+d3fqfdbqshrZtqrdVa//7v//7S0hJFgjkKU99mrS2VSi+99NLv/d7vaa2dc7s8RNI09Tzv29/+9uc+97lqtUolNAAAAAAAAAAAAAAAAAAAAAAAAAAAI2KtrVQqjzzyyB/8wR8YY6y1uywSzLLM87yvfvWr9957b7VazbJsWE2ddhSm/kCWZXNzc1//+tf/+3//78YYKY8e4H2cc1mW+b7/3e9+97/+1/86OztLGTQAAAAAAAAAAAAAAAAAAAAAAAAAACOVZdnCwsJf/uVf/vEf/7HnebKG5QDv45yz1nqe9/Wvf/3/+//+v5mZGZau7ORPugHFIrWp9957r9b6H/2jf+T7vqy0q7Xu5eX50eZ53n333fc7v/M7xhg1pDV/AQAAAAAAAAAAAAAAAAAAAAAAAABAF1mWzczMfO5zn2u32z/7sz8bhmGWZbKSZY/vYK2V5//VX/3Vb//2b1cqlZE2eBpRmLqRlET/1V/91auvvvqP//E/Pn78uFJKqpm3q1B166QktdVqff7zn//CF74wOzs7cEU1AAAAAAAAAAAAAAAAAAAAAAAAAADol7V2bm7uf//v/3327NlPfvKTR44cUTsVCeZPMMYYY9bW1v7wD//wr/7qr2q1mmLpyk0oTN1ClmWzs7MvvfTSpz71qXvuueenfuqnjh49Kn/K19uVI0kOwbxautVqfe1rX/vyl7/8xhtvzM/PS7XqhD4EAAAAAAAAAAAAAAAAAAAAAAAAAAD7kSxg+eSTT/6bf/NvPvCBD/zYj/3YhiLBvPQvLxI0xiil0jS99957/+zP/uzy5cszMzN5RSE6UZi6tSzLSqWStfarX/3qI488ctttt91111233HJLtVrd/OR2u/38888/9dRT3/rWt1599dVyuVyr1TjgAAAAAAAAAAAAAAAAAAAAAAAAAACYiCzLyuVylmVf/OIXv/nNb95zzz233377ddddt7CwsOWTn3vuuYceeujRRx89e/ZsFEXVapUiwe1QmLotOWjm5uZardZ99933jW984+jRoydPnkzT9NSpU7Ozs9baZ599NkmSN9544/z581LLOj8/b63lgAMAAAAAAAAAAAAAAAAAAAAAAAAAYIKstVrrubm5NE2/8pWvfOUrX1lYWDh9+rRS6rrrrqtUKkmSPPvss9baxcXFV155JU3TKIpqtZpzjiLBLihM3UGWZZ7n1Wo1pdTy8vJDDz2klHr44YdloV7P87TWQRBUq1WttbU2y7IJtxgAAAAAAAAAAAAAAAAAAAAAAAAAACillMqyTGs9MzOjlGq1Wt/73veUUg899JAUCfq+L/9fqVSkSJCS1B1RmLoz51x+hAVBoJTSWud/kv/nUAMAAAAAAAAAAAAAAAAAAAAAAAAAoJikBtDzvGq1qigS3B0KU/uQV6gCAAAAAAAAAAAAAAAAAAAAAAAAAIDpQpHgUJhJNwAAAAD7kZ50AwAAAHpH6AIAAKYFcQsAAJgihC4AAGBaELcAAIApQugCYGwoTAUAAMAEtJ3l1hcAABSfVso6lzhntGaKPAAAUHBaqdg5x4ADAABQeKRcAADAFCHlAgAApkvbOUrFAIwHZxsAAACMmTNKv9lKLiepp0naAwCAYtM6ce61Zju21mOgJAAAKDTnab2UpG+0Y60ZKAkAAIrMaa1IuQAAgKnglDJaX07SN9ux1gxzAQAAhSaxyvlmezXLGKALYAwoTAUAAMCYaatcyZgsVZeShDtfAABQZBKqVJS3HKf1LGOgJAAAKDLnlK91YM2FdpopZ5QidAEAAIXllKoo73I7XUlTn5QLAAAoMKeUr7VvzcV2kimnSbkAAIACs0qVjdeK3eU0NYzQBTBiFKYCAABg3LRSVqmKMTZRF9opN74AAKDotKopf6WdMVASAAAUnFUq1Dpy+kIrjZ3zFKELAAAoLq3VnPGbsV0m5QIAAApMKlFDrQOnL7TSlJQLAAAoNqdczXhxbC/FiWGELoBRojAVAAAAk2GdqnpeaPWFOFHc+gIAgGJzSs0ZrxU7BkoCAIAik+nAAm1qyltsp4mzHot4AACAonJKWedmjNdK3k65TLpFAAAA27JKhdrUlHeJlAsAACg8q1zN+CrTl2LWTQUwQhSmAgAAYGIy50KtQ2sutlOlqE4FAACFlilVozYVAABMA+uc1qr69kBJ5xG6AACA4tKZUjXttWJ3OWGgJAAAKDTrnMlTLoqUCwAAKLRMubI2OtUX44SUC4ARoTAVAAAAk2SVCrUOrb4YJ47aVAAAUGD67RklTSu2SyziAQAACi8fKBlby0BJAABQWHnKJU7cxTgxZFwAAECBuTzl0iLlAgAACk1SLiWjdaok5ULSBcDQUZgKAACACVuvTTVvtOLEOUPWHgAAFJhVqmb8duwuMFASAAAUmwyUrGnvYitdyzKWfAcAAEVmlZoxnsn0xTbrpgIAgELrTLnUSbkAAIBis0qVjWcy/UYrsUpppQhdAAwRhakAAACYPKtUoPWM8hdZxAMAABSeLOJhUnUxZqAkAAAoNKeUVmrOePV2tpqmDJQEAABFlilX0sZk+mKckHIBAABFlqdc1toZ04EBAICCs8qVtCk7c7GdWKrIAAwVpxQAAAAUgswoWVXe27WpTMsEAAAKzCpVktrUNuumAgCAQnNKOaVmjFeP7SoDJQEAQLFZ5UpGm0y/0YplEQ8AAIBiWk+5+GvtjJQLAAAoOKucr3XZeRfbiVWOdVMBDAuFqQAAACiKd9SmOkfWHgAAFJlVqmQ8Y/WFdmo0AyUBAEChWalNXR8oOenmAAAAbMsqVdK67MyldpIpxUBJAABQZFY5Ui4AAGAqOKU8rcrOu9hOM6U8BugCGAYKUwEAAFAgUpta096ldsqMkgAAoOCsciWtfavfaMWZUlSnAgCAIstrUy/FLPkOAAAKzSoVrC/iwUBJAABQcD9IuSSkXAAAQKFJbWrFeW+1kmaWkXIBsHsUpgIAAKBYnFJaqVnt1dvZappSmwoAAIrMKhWtD5RMlTUs4gEAAApMBkraVC3GKQMlAQBAkdm3B0qai+2kZS0DJQEAQJG9nXJJ1GKSGuIWAABQYLJ4zKzyluOsyeIxAHaNwlQAAAAUjlPKyYySsVvh1hcAABSbVcrXuuK8S600VY7aVAAAUGRWqYoxLlWX4tRoilMBAEBxOaU8ravOu9xKG1nma1IuAACguCTlYhO1GCceKRcAAFBgTimt1Yz2lttZgwG6AHaHwlQAAAAUlMwo2WjblTQNuPUFAAAF5mQRD2UuttNMORbxAAAARWaVKhtPpeoSAyUBAECxvb2Ih/FW4qyeWQZKAgCAIrNKVYxnU2pTAQBA0eWLxyyTcgGwOxSmAgAAoLiscjPGNGO7mKQeSXsAAFBgsohHxXkX22nLWmpTAQBAkVnlysaoVL3VjifdFgAAgG7eHiippTY186nxAAAABWaVqxjjUnUhjpVSBC4AAKDIJOWyGqcracq0GgAG40+6AROgtdb74KS5Hz4jAADYD6xSNeOtJfaSSw+EPiEOAAAoLFk3teq8y610LvKqnpcpqlMBAEBBWaXKxrQyd6GdHIoC5rIFAABF9nZtajuLAzcfeJNuDgAAwLbeTrmk9oJNDkWBp+grAgAAxeWUqmlvLc4yl8wH+7G+DOOxTwrc9snH3GA/njiyLNNaO7fH7/W01tbaSbcCAABgCKQ2tZXZxTg9HAaTbg4AAMC2nFJGq1ntrcbWBariU+IBAACKyypVMtpz5lI7ORSRcgEAAIXmlJoxXjOxl116kNAFAAAUmFWqZDzP2Uvt5EAU7MfB6QAAYHpIyqWR2CWVHQh9JtXA0FlrsyybdCvGwVprzL4bKra/ClOdc57nBUGg9kchchiGxpg9X4ILAAD2BxcovZZZq9zeD+MAAMA0c0p5SntOta2tKlbwAAAAheaUCrRpWJs6p1nBAwAAFJtWKtC6aS1BCwAAKDinnKRcMut8wzgXAABQdIHWrYyUC4ZPax1F0T6pa9Na+/7+qtNU+60wVa0f05Nuxfjsk18vAADY24zSLWdjbQ9HgVGa+AYAABSZUWrFpkGgDwSBJTMDAAAKTCuVObXm0oWSVzamnWUMkwQAAIVllG7YLPPckTCgrwgAABSZVipzbs1lB0p+yZjY2Um3CAAAYFtGqYa1mecOR4FyStFXhGELw3DSTRir/VbHt+8KU9X+28cAAABTzSjVsjbz3ZEgUCzcAQAAik0rtepsJTQzvm+dI18PAAAKyyiVOtfU9lDJD5TOGGkAAAAKzFO6bjPjq8NhmDHuBwAAFJhRKnGupe3hku9rkzlHygUAABSWTARmfHUwDBxVqRgNknl7m5l0AwAAAIBtGaVbzlnfHQ6pSgUAAEWnlVpzWTU0s76fkVQFAAAFZpRKnWpqeygKQqVZtgMAABSZUWrNZibQB8OAqlQAAFBkRqnEqZa2h6IgUNpSlQoAAArMKNWwmRdoqUol5QJgABSmAgAAoKCMUk1rrecOhYFlmAEAACgwLWul2qwWejOelzLOAAAAFJgs3NHQ2cEoMEqxVioAACgyrfSqzfxAHQg8JgIDAABFZpSKrWvp7FAUGKUsKRcAAFBgRqm6tV6gDgR+SsoFwKD8STcAAAAA2IJRes1mnq8OhT5VqQAAoMi0UlapNZfNRl6NqlQAAFBsRqmWc7Gxh8PAKOUYIgkAAIpqfSKwtBZ5M56XkHIBAAAFJimXxLOH1lMuAAAAhWWUWrVZGBiZCIyUC4CBUZgKAACAwpGq1FKo532mYgIAAIWmlbJO1VV2qOQH2lCVCgAAiswo3XTWee6KMLSOnAsAACgurZRTatVmM5FXoyoVAAAUm1G66TLlKVIuAACg+LRSqzarRV7N8zIiFwC7YybdAAAAAOAdjFJrNi2Fes73E256AQBAgZn1qtSDJT9QmlkkAQBAkRmlmzZznjsUBpaUCwAAKDCtlFVq1WWzkVf1PCYCAwAAReYp3bSZ8tTB0M+oSgUAAAWmldJKr61XpbJsDIDdozAVAAAAxbJss1Jo5nyfcQYAAKDIjFKxc2tvV6WaTClCFwAAUFgyEZjyFVWpAACg4N6eCMxlh0p+1fOYCAwAABSZUWrVpspXB8PAknEBAAAFppWyTi3bZGa9KpWUC4Dd8yfdAAAAAEAppbRSzqk1lS2UvLLhphcAABSaUartXGrs0TDQSllF6AIAAIrLKLVmrUwEllGVCgAACkwmAmspe7AU+ErTWwQAAIqMlAsAAJgWUpVaV9mhUhAaUi4AhobCVAAAAEzeD6pSIz8yhpteAABQZJ7SLWdTYw9FgXKKgQYAAKDIjNKrNi2H3pzvMUQSAAAUmUwElhh7KAw8JgIDAADFJimXSujNknIBAADFZpRKnWqo7FAp8JXOGKALYHgoTAUAAMCEGaUS5xrKHoj8yBhuegEAQJEZpeo2c546FAUMMwAAAEWmlXJKLdu0FnqzvsdEYAAAoMg8pVvWpp47EgXOKacUoQsAACgmUi4AAGCKyERgbW0PRb7PRGAAho3CVAAAAEySVKW2tD0U+QFTMQEAgAJzSnlK123mBWoh8KlKBQAABeecWlPZXORVPI+UCwAAKCynlKfUms2U5w5HgSXlAgAACkwrZZ2qr6dcqEoFAACFJaNc2s4mxh4OA6NUxkRgAIaNwlQAAABMjFE6cbal7eEo0EpnTMUEAACKy3lK1W0WBHoh8DPKUgEAQIFprZxVaypbiPySMQyRBAAABeY8perOBoGeDwJLygUAABSY1iqzqk7KBQAAFJ5MBNZyNvPckTB0zjmqUgGMgJl0AwAAALBPGa1iZ9vaHY4CrZSjKhUAABSYUXrNZmGgFwKPqlQAAFBken2t1IXIjxgiCQAAis3Tes1moa8XAp+qVAAAUGRmfa3UA6RcAABA4XlKt6y1xh0KfevIuQAYFVZMBQAAwLg5pYxTTWczzx0OpSoVAACg0FZcFgZmPvAZZwAAAIpMK5U619ZWqlIzQhcAAFBUWimt1HKWRqGZ90m5AACA4pLlxRLnWtoeiPyQlAsAACg2mXtd+epQ4FOTCmCkWDEVAAAA42aUajmrfXVFFCqqUgEAQIFJoFJ32VzkzQc+4wwAAECRaa1S52Jtj5aCUGtL6AIAAIptzWWzkTfnk3IBAACFJlWpknIJSLkAAIBiM0o1bBaF+kgYMDoXwKixYioAAADGzSp1JApKxmTMxQQAAArOOV/rq8oRC44BAIDC05lzc4Hna6OcskoRugAAgKLSzilJuZSNYa1UAABQZFop69x84HtaK8fc6wAAoNAkVrmiFFYYoAtgLChMBQAAwASUjbGTbgMAAMCOnFK+1kopZr8GAADF55SKtHFKOapSAQBAseUpF6pSAQBA8TmlylpniqpUAAAwHSoM0AUwLmbSDQAAAMB+xE0vAACYFo5xBgAAYHoQtwAAgGnBbBoAAGCKkHIBAABThAG6AMaGwlQAAAAAAAAAAAAAAAAAAAAAAAAAAAD0hMJUAAAAAAAAAAAAAAAAAAAAAAAAAAAA9ITCVAAAAAAAAAAAAAAAAAAAAAAAAAAAAPSEwlQAAAAAAAAAAAAAAAAAAAAAAAAAAAD0hMJUAAAAAAAAAAAAAAAAAAAAAAAAAAAA9ITCVAAAAAAAAAAAAAAAAAAAAAAAAAAAAPSEwlQAAAAAAAAAAAAAAAAAAAAAAAAAAAD0hMJUAAAAAAAAAAAAAAAAAAAAAAAAAAAA9ITCVAAAAAAAAAAAAAAAAAAAAAAAAAAAAPSEwlQAAAAAAAAAAAAAAAAAAAAAAAAAAAD0hMJUAAAAAAAAAAAAAAAAAAAAAAAAAAAA9ITCVAAAAAAAAAAAAAAAAAAAAAAAAAAAAPTEn3QD3uacs9ZOuhUYkHNu0k0AAAAAAAAAAAAAAAAAAAAAAAAAAHRDEd/00lpbaz3Pm3RDlCpIYarW2hjWbp1iWmut9aRbAQAAAAAAAAAAAAAAAAAAAAAAAADYGkV8U80553leQXZiIQpTlVLGGK31+Bfe7LLRzX+aSAunAt8MAAAAAAAAAAAAAAAAAAAAAAAAABSc53kUgu2or6rDcSpOHV8hqmPFmL8RWeGzc6O6w+Y/jb+FU4RvBgAAAAAAAAAAAAAAAAAAAAAAAAAKjkKw7gaoOhyn4uy+oqyYOk5aa2ttmqbGmM4K7yRJ0jRVSnmeFwTBhifLKrfF2XMAAAAAAAAAAAAAAAAAAAAAAAAAAGD3ulQdZlnmnKPqsNMeL0zNl6btXKO22WxmWeZ5nrXW87xSqaSUiuM4SZIgCLTWaZqmaVqpVLTWcRy3Wi3f9+M4VkqVy2WpY87fUI6bfXjoAAAAAAAAAAAAAAAAAAAAAAAAAAAwXYwx1lrVW9VhHMdhGFJ1uMGeLUzVWmdZ1m63Zf/5vl8qlbTWzWbTGFOpVJxzWuvV1dUkSTzPa7fb1WrVGKOUiqJoeXlZ6pjb7XatVpPjIMuyVqtVqVSUUq1WK01TOVzCMAyCYA8fJQAAAAAAAAAAAAAAAAAAAAAAAAAATDWpOmw2mxuqDlutljGmXC7Lc1ZXV+M4DoJgQ9XhysqKFBVK1aFUF3ZWHbbb7SRJ9kPV4R4pTJVKYqk1lUestY1Go1wuG2OMMc1mU0qQW61WrVbLq42jKGq321prY0xejmytDYKg1WrJsSVHmzwnSZJ2u62UStO0VqtZa51z8swwDKUB1lqtdWe1NAAAAAAAAAAAAAAAAAAAAAAAAAAAGJsdqw5brVaz2QyCoNlsVqtVpZSUBJZKpVarlSTJhqpDqU9USknVoRQSdlYdJkmyT6oO90JhqlQYp2kq/1kul33fbzabnucFQSB7MYqiRqOhlJICZdl5zrkgCIIgkBfme9Q5Jyvt5v+ZH3nVajXLsjiO8+pnz/PCMIzjuFQqWWtlxV45njrfBMDQ6XXdnzDOJnVudLtN6w6dj++NiwoAANhM7h67RCbbhQfjMUBMRdwCAMAelqc19kDKRWIwQhcAAPaqzpTLlhHCBFMuvWx6w18JXQAA2NsGHkwyHv12YxG0AACwh+04yiV/WgFTLvQWAQCAzbTWneuXdlYdhmGYZZlUjTYaDa11tVr1PC+vOvR9v1aryfv0XnWYJIk8Qe+DqsOpLEyVHSZ7VGstRcaVSkVrnWVZvV73PE9WPc33utZ686Ggtk+Tbfe47/uyPq/UuyqlpFLZOVev19M0jaKoXC4759I0bbVa+VHS2WYAg8l/R/K7kypxWQt7S3m9+jhJw5RScRxv+ZPXWsslLW+5/KPzZphzBQAA0y6/pkvo4pyT0GW78CBN0zRNJ5IKT9M0juPtUvZya5P/Zx6uyORPirgFAIA9oTPlIv+fJIna/kJf5JRLZ8tJuQAAsCfJZd1aa61VXTMbEh5MJOUi2Z4kSSQ7tPkJknLJG9ZZqSIxDHELAAB7wIaUS5Zl1treB5OMk8RUW/5pu5SLorcIAIC9ZUPKRUa5bPfkDZmNsZGUi7U2X6Rq8xOSJJExxvIIvUUAAOxDG6oO2+22c65arWqtrbX1et33/TRNwzCUyEdNqOqw2WzKqplqmqsOp68wVWJK55wxxvM8GZBUqVSUUs45z/OkFlTWQe3laOhLXvTc+aAUQKdpKnXM8lcpaFbrM8dI6tD3/WG1BNg/9Pqq2TIVgfyUnHMyUUHn7AIbzMzMjLmpnbrMBZVfsTrPD9ZaGdYpkyIwRRMAAFNKLuIytkAp5Xme5LijKOoykkBuJcbXynfqPoel3MWojvy+UioPzGTMAaELAADTKB9hIKGLpFuVUlEU+b7fJUIobMqlVCrlU05umXIxxmw3UgEAABScXN/zwZESusgwAvnHlkGCMSaKorE3VimlSqVS7ymXLMtkDo58ihCJW0i5AAAwjTpTLhKlSMolCILuKZd8MMlE9JJyUevFHhKidPYWMbkGAABTanPKRS7rlUqlS8pFdWQ2JqKXbqzOTqJ8WnYG6AIAsOdtrjpM01TqP+VByXLkj+QvHE/VYb4G556pOpy+wtR6va7Wv/coiqSjLk1TqU+TdXKVUnnV8pa69wJ2sd2Mtkopz/NkpVZ5ULoPkySRFX6lwbKGqjR1sAYA+4r8cOSq4HleFEVhGObVHXtMviCJyC+EnC4AAJgWeUZbbg5LpVIQBHJbO+mmDZ98Uolb8o+spu1+GACAfUviE6lHlQkywjD0fX8Pp1xk3Q8JYCS5RNwCAMC06OyPl0mKgyDIR0nuMTLfWRzHknJRSkn5CqELAABTIU+5ZFkmKZcgCCR0mXTThilfyqNzlEuSJPmsZ4QuAABMhTzlopTyfT+Koh3n0ZheknLJR7nImGR6iwAA2JPyqkNrrcwiKrmaglQd5k/YUHUoD7ZarXK5PF1lRFNWmNpoNPKoN8uyZrMpxcrGmPyY2Pztdx4Q+fI+Mi9d5+OdR1U+WZ2Q6DNfCyh/w+610eVyOUmSdrstQ7skqJ3GowSYiHyigiiKSqVSPkeRjCacdOtGQmstH1Zy981mk7GSAABMhbwk1RhTrVbDMJQRBtZaiV4m3cCRkLEUErM1m804jvOV7SfdNAAA0I1kVq21MiNjXuqwt1MuYRhGUeSci+OYlAsAANOisyRV1unKSx32cOjieV6lUpEP2G63W61WPkgCAAAUWT7MMQzDfZJyUUrlKRfpLcrLU0m5AABQfJ0pFxkh79ZNumkjIRUH5XLZWktvEQAAe9XeqDqUHrFpCVEK3YMle8I5lwe7Sqm8RllrXa1W5ZldDgsZIC6rqspOGixuzg8OOVZkAYHOZQQ2v2G+wm+eYfR9P0kSWYhAPlT+GftqDLC35aUdURRJIffeLurolH9Myd232+1Go5EkSb5gNwAAKBqpzFRKVSoVmV1pw/3nXiXBicwiOTMzk5enkrUHAKCw8pSLlKRKtmEfplzCMMwHHFDjAQBAYeWzaciQQRkxsE9SLhK3aK0l3dRqtZrNJikXAAAKTvIM+zbl4vv+7OxsPgk7KRcAAApLeouyLOtMuey30KVUKskA3WazKR1n++HjAwCw92yuOpS5PotTdSidO9tVDu6NqsPi5oBkeHe73ZYvtFKpyM621m5ZOpy/Sh5PkiRNUzk4JGLufIIaaF1dObCk4rndbiul5Cjx10mRapeCZpkfTmqvW61WHMfGmCiKiGiBnIwzcM7Nzs4GQbBPBhlsJiccGSvZaDRarVY+m+akmwYAAN6Wr9oRRZHcvu6TTP0G8qmlPDVJkrW1NbL2AAAUUJ5yqdVqspDFvk25qPXy1Far1Wg0qPEAAKCAtNYya+fs7KxMYLo/Qxf51JVKJYqi1dVVUi4AABRQXtpRrVZLpdJ+TrnI0M/Z2dlWq1Wv10m5AABQQDI43xgzNzfn+/4+T7lIeera2posU0bcAgDAdMmrDp1zxphKpSIVf1mWdVmBcoqqDtvtdrvdLn7VYUELUyVn1263ZQndOI5XV1eNMeVyectdKw9aa+M4loMjPyzkTwMcEF3alv9bjsUkSZRSnud5nhcEQRAEsiDv5r3unKtUKu12W0pSq9WqLLMbRRHLIQJq/dogU0jKeWDSLZowOS1Uq9UgCNbW1mTuBM4VAAAUwYZxBsQt+YCD+fn5tbW1OI6ZDBsAgOKQlIvnebVaTaa+nnSLJkyyK+VyOQgCajwAACigJEnK5bLMXEzokmWZ1npubq5er7fbbVIuAAAUh0wEppTKSzsm3aIJk96iUqnk+/7q6mqWZZ7nkXIBAKAgZCKwfO51SThMulGTJMHbzMxMEAQyrcY+/0IAAJgunVWHSZLkVYd5VWqnDVWHUr9K1eFQFLTXyjnXarVKpZKsQRSGoewAtel7zxcpSpIkjmNJ9qn1NXDH0NTO1XuzLJN9H6zbXM2stS6Xy1KBLcsKVavVZrOptWbwE/Y5uenNxxnwc8hZa4MgmJubW1lZIWsPAEARyG1IlmX5Gu+TblFRSJQyMzMj649xjwMAQBFIVWoURZVKRW2V1963JM0yNzfHku8AABQKKZcN8tm7a7Wa7/v1ep3aVAAAiiCfe31mZkatFzZAKWWt9TxPZjJNkoSUCwAABZEkSefc6xRhCmutTKuxsrJijOFrAQBgWnRWHcpipFQdTkSBuqzynWqtlR2ff1/yVW74ouWZrVYrjuM0TdUYD4vt5J2CsmCulDLLmrmq40Dp/DjyMa21csTIR+j87MA+IVWppVJJqlIn3ZzCkeXF5+bmlpeX8zPGpBsFAMD+JVWpzH69HcnaW2ubzWZhZ2kCAGCfkCGSQRDUarU8vQ4hmVil1MzMzNLSEikXAAAmTnqLarUaValbkpSLUqper5NyAQBgsmStVKlK5aK8WZ5yYQZ2AACKQFIunVWp6CTTaszOzq6srEhBCwAAKKAtqw7zKsIuVYf5mqXTW3Uo9UTFrDosUGFqmqZxHCulyuWytVbWS8zHBuVfmewGeXK73d7lrC29v7CvfbahbnbzgdL5ceTfWZYFQdBqtWRpRLoSsa/IEMkwDKvVKje925FT4uzs7NLSEnMyAQAwWbJwh+d5hC7bsdbKnV0cx8WcpQkAgP0gHyJJVeqOmA4MAICJy4dIhmFIymU7TAcGAEBBSLhCVWp31tqZmRlJuTDQBQCAScmXjaEqtQsp/5DQJQxDYjwAAIpGao6SJHHOlUolWSEyL9pU21Qd5kukFrnqsN1uh2EYhmEQBGpT1WH+5oWtOixEYarWWkqQZbzy6uqqMSaKIrWexet8Zpqm7XY7juO80rf3rXT+pyS80jTN94Ssips/wfM8WRK38z/73W1SdyqlzFKe2nmg5P+IoiiO41arJWsHt1qtNE3L5XJBjhJgpLTWMuavVqtx09udzHMwMzOzurpanAsJAAD7iuTrZ2ZmWCt1R865Wq22urqa3+tNukUAAOwvUpWqtWaI5I7y6cCWl5fVLjokAADAwCTlUqlUGCK5I2ttpVLJsoyUCwAAE2StnZub40K8I+ecFHiw+BgAABMhQ+WDIGDZmB055+SLajQaDNAFAKBQtNZSSCgLRq6tre2lqkOlVGfVoe/7+RKYOak6bDabnud5ntdut4tTdTj5wtR8P1UqFflG5Evc8D3KOKp+D478OVIcLNI0zY8GqZDupZ0yD8pggaY0I0mSNE193y+VSpv7CGXqX8nBBUEgn5Q5V7AfyM9zbm5ugNf2ch6Y4I9oFM1zzoVhKNcVRhsAADBm+TLvgy3csT9Dl2q1urS0RNACAMBEWGtnZ2cHeGGPeflJXeJHFLd4nlcul+v1OllZAADGL8syuRaTcumFtVZSLiw+BgDA+OXLvHuet8dClxG1zRhTrVbX1tYo8AAAYPzk4jvYsjFFjlvUyFIu5XI5SRJJVRG6AABQBDJwV2bt3CdVh7Io5rRUHRaiMDVJEqVUvn6ufKGdq+g652R1Wula2/HgyJ8ga+/mh0VnVC1v23v1c5Zla2tr8/PzfX/Cd7ZKDpQwDEul0oZi6Pw/ZRSUHCIDbw6YCvkE2P2uOSY/4c7pB7ZjjDHGbJ4zYHTyZbXTNN3xmdI81c8NsIw2kFXId9lUAADQF7n4ViqVfuMWNcrYYJckTNpwu7SlAcIqueeqVCr1ep3RBgAAjJPk5UulUhAE+zDlopTyPG9zP0R3MtpA8smMNgAAYMxkQo0RpVzUQLHBLvWectFaS/NUPxkhrTUFHgAATESWZUEQ9LvMe1+xwZh7i/I4ZEQZIedcFEXtdpuUCwAAYyYDdGu1Wl/X7r5ig0mlXKR5Oz5zgJSLDNBdXl4maAEAoCCoOsyfUMyqw4kVpuZ7SHJPMkx5y6clSdJsNrMs23F35sdWkiRJksRx3BkTb355X9PH6vX1fEul0m5izXyZ3SRJSqVSGIabw3H51PIntT6YmwAXe4/WWkr2+8rXy0wG8jPvvK5sSZ5gjJFpA8bzU5Lzj0yNsGPbpEchDMN+xw1UKhVGGwAAME75BNgb7vR6eVVfsYHneWEYjmFpdAnG2u223FGrnsOqMAx7/xKcc6VSqdVqZVkmoygAAMAYyMW9rzXHJOXSmVMdRWwwsN7DKrWeUDXGBEGwZdq5ywtltIHMMQkAAMZAOmFl7ue+QpcxxAaDkd4o6Q7uMeWitfZ9PwiC3jNCeYGHTJ5NbxEAAGMjE2r01VU0hthgYINlhIIg2HLMW5cX1mq1y5cv01UEAMDYyFU+CIIoikbXWySD8yU2GE67dxLHsYRVoxuE43leuVxuNBoM0AUAYII2Vx36/hYlkNJh1Gq10jSl6nDgje7GZApTtdayaKzWulQqxXG8+fiQQdKNRkNqz3o5OKRSWUY854/3dRzs2OxhZcdklzcajTiOy+XyhnjXORcEQZIkxhg50H3fL5fLQ9k0UChZltVqtd6fr7WWn7n8pyyQvd09s/xmZbZFOS9XKpVRT77YaDTkkiZTXWZZtt3mZBZJz/OyLGs0GjKlQY9bcc7JrTIFHgAAjI3M4hxFUV8zQDebTQnsJTDIb1U2y2ODNE3ljrH32GAAcg/cbDbl43QPq6R5Up4Rx3Ecx3K72/tog0qlsrq6yjTYAACMh1zoy+Vy73nnzpSLXl80tffYoFwuj7pvXhLFkuyVsGq7zeUZIaVUs9mM47hSqfRYOuuck1LbNE0JXQAAGA+Z37qvCTVUR2ywY3fMhtggSZJyuTy6aTXylIvMyS2za/eSEZIxEFEU9Z59ku9tZWVleM0HAADd5BNqeJ7XY+giL5HBbL3EBp7n5bGBdMf01TM1gHa73W635d/SVdTLIJxWq7XlmLftOOeMMaVSqd1uM6cGAABjY62t1Wp9TaghS43l3TG9xAbGGBmgWy6XR9e3IqFUs9lM0zQfhCPlqVs+f8MgHEm59Lgta63MwC7pneF9CAAA0Kveqw5lWEhfVYcy6Wf++J6pOqxUKhNJuUygMFWOjzRNS6VSXo614TuSgVB5j12X3ZzPKifHXI+r7g5AxiT1OL5Kjm+llBxSXfpB0zRdW1srlUobSqI9z9NaNxoNOThk2dhJHSXAiFhrZbHQ3odIttvtVqtljJHFuGu12szMzPz8/OZ3kN/X4uJivV6Xn5JSam1trVKpjG6gZL1el7NQkiRBEMzNzc3Pz1cqlc135saYtbW15eXltbW1NE2DIJAVwKvVau+bK5VKa2trjJIEAGAMJMKvVCp9zf1cr9fldrfdbodhuLCwcOjQoS272zfEBmEYyt1NpVIZwaf5wQ2XMUYy9eVyeWFhYcuwSly+fHltba1er8ss3c1mUynVYyAn98BjWEgNAAAIueb2PmyxM+Ui9ajlcvnw4cMLCws9xgaNRmOkKReZCEzy6Z7n1Wq1Q4cObVm+IqMfpHntdlsWXpPm9Zg0lrk2ZUMj+CgAAGAjWbuj9+oO9c7YIAxD6Srarjsmjw1arVYYhtI93Xts0BfpnGo0GvLmMmVqrVZbWFjYsjfHGLO8vLy6urq2tmatDYJAhjyWy+XeUy4yjSm9RQAAjEG/E2rksYG8Nk3TLrGB9EDlKRellMQGzrldrrPRpXlSeSKDcIwxMzMzMzMzc3NzW4ZVrVZraWlJwirJAklY1WOhaV7gQdACAMAYyMKnMu6999BF6jp6jA06Uy6ylXq9Xq1WR5SjkPfPB+GUSiUZoFsqlbZsXp5yybIsDMN2uy2DcHrvO4uiqNlssmgqAADj11l1KEM+tqw6TJKk0Wjsk6rDKIo2dB5trjqURM34Q5cJFKamaZplmYyL8jxPRlp3Ln0rywq1Wq1eDo5WqyXTn6hh1BZ3NmPzn7ZcAHdLKysrUjUXhmH3yeFkQ/IROmful9A5/3JkYLr0rRLgYm+Q+95SqdTjzypfuEPGGRw6dOj222+fm5sLgmDLE0U+SXa73b548eIjjzzSbDaliEKmaBr6T6nRaMgMl2manjlz5vrrry+VSr7vb/kB5UIi82K++OKLTz/9tIwbaLVafY02kPdhTiYAAEZNrs5hGPY+RFJ61sXtt99+4sQJiQ22fLJc07MsazabTz311IsvvijrdPUeG/ROwrB8so/Z2dnbb7/9wIEDYRh2uZ+S0GVxcfGRRx5ZXl4OgkDqWnuf1pqUPQAA4yHX+jAMe6zuyBfu6Dc2SJJkaWnpe9/7nsQGjUajWq0OfckLGQaRV56cOnXqzJkzlUplu1StPJhlWbvdfuWVVx5//HEJtKR5vWwxn1ODlAsAAGMg1+7eay2ki11ig1ardf311990001RFHXpjsljg7Nnzz7++ONKqb5ig75I1avEY8aYe+6559ixYxJadO8tqtfrjz/++GuvvSadwsaY3icZyacxHfrHAQAAG8hEEr1PqJHHBjKS8t3vfveRI0ck5bI5NshHuSRJsrKy8thjj124cEGKKPqa871HMghH3jyO46uuuuqWW26p1Wq+7285oqYzrHr99dcfe+wxCcmazWa1Wu0xhWKMCYIgTVNCFwAAxqCvydDzRckkNrjyyitvvfXWgWODYX8UpZRqNBqdg3CuueYaWce+S8pFFoV65plnZBBOkiStVqvHNJRMY9psNhniAgDA+GVZllcdGmOoOlRKtVqtLMt2rDpst9u9dzANy7gLU/Px1tbaLQNBGSGdJEm/B0dfzdhQJy2PGGNkmhZpZOfAI+kQ7WVEuNZ6ZWVFBnIppWRiuXK5XC6XuxTCSa326urqdseTRNJpmo7/EAFGRI7q3qs7ZJYCmWbp9OnT73nPe+RHEcfxds+Xn7Dv+8ePHz98+PA3vvGNpaUl3/flVznEzyI/4TRNpTvhb/yNv3HixIl2uy1XRLfVsuDyoNa6XC7fcccdBw8e/Na3vuX7fhzH0o3Ry3ZlXEK73R76oE8AU8hpZ7Wz/Q6a1kppZbVSG144wrOKU8pZ5TI1+Ba0cplyblOrO7bhjHLZwBsANpBLvGS0e6zuSJJEbmqccx/84AevuOKKPDbY8iWdscF73/vegwcPPvjgg3KjKAtfDPdX2W63lVJxHB89evT973+/53lpmspdbvfPdeTIkR/90R/91re+de7cuSiKWq1W7wUepOwB5N6OW5zV217Nt3qV0trZzaGLpNqG3caOd3dqPfYY+E26vlxCo9F9BOxLsgBFj5fdPOUSx/GRI0c+8IEP9BUb/M2/+Te/8Y1vXLhwIQiCdrs93GGFEobJMIh2u/1DP/RDN954Y5IkMtChS8pFKRUEwc0333zgwIH77rtP0s5JkvQ4iFNrXSqVGo0Gc2oA2Jcply6RiaRcep2wCeiFtVbqE3q8RkuUIqHLnXfeecMNN8RxvGN3jFIqCIKbbrppYWEhjw3SNB3utV4yQlJPEkXRBz/4wbm5uTiOu4RVeUZoZmbm/e9//8MPP/z000+XSiWZrbiXjUp5DHNqABBaOe2scnb7DpQtX6W2TLkop9xoUy5aObOLlItej3y2+bAS2BC6YHhkOFlfq2xJbCCjBj/84Q9XKpXusUH+woMHD374wx9+4IEHXnrpJRkWEgTBMD7ED+QZoVardebMmbvuukuWmojjeMew6tprrz18+PDXvva1OI6liKX3WVajKIrjmFEuANTbvUVa93k2WO8tUhv6mEbbW6Qy5czu3t/tlLRx9BZhuPKUS+8TauSxwa233nrbbbcNFhs45+I4Hu5Yd4k3ZLyN1vpDH/rQ4cOH4zhO0zRN0+4DdGu12j333LOwsPDQQw9JHCKJlB03KotvyZwahC4A9Hpv0UCv3TQ2ZrQpl2H1FqntUy6WlAtGSjpxpN9ncySzV6sOS6VSZ9Hplq/qseqw9/FCwzK+wlSJ8Ky1Mpfb5r4x+ZparVaXbrOBD47OomQ5FOT/ZfZc+ZMxJo815RDp3G4vY6qkN1RC8/wRpVSj0Wi1WpVKpcvikPJ4o9GIomhzR6McH9VqNf9yiHEx7ay1vu/7vt9jdYesmu2cm5+fv+OOO9I07b6IducpvtVqhWF45513fv3rX1dK5a8d1meRe2kZInnjjTceP35c5ryUTWy5ofxBmZb7xIkTFy5cePrpp6X+pMeeDKnsbbVaw/ogAKaWs9q3fjV12qr+RoFrrRLja2M2nKs8zx/VKCannGd1FA5836u1VipRzqltm+iUCVyW9jXwAuhOLru9V3fkscG73/3uo0ePNhoNmf16u5fkf5Jhkdddd93FixdfeukliQ22W2d1APnIS6kUvfPOOyWD3715uSRJfN+/8847L1++LCMneh/EKfdf0vkxhE8CYGo5pVOvkvrV1KVa9XpCcEoprZMsToz1tem8jezM5wyfcypSOgq1cwMGFlq5JFaZ2X5KDavCGWcCRhtgWCTp0WMfuaRkJaE/QGwgwyLvvPPOr371q7LYV5Zlw+2elwGOcRwfP378zJkzzWZTraeau6dcJNd67Nixm2666fvf/34QBL0XeDjnhj7cE8B0Wk+52AFTLmbqUi5Z5pJU6e2CK0m5xKRcMCySpoiiqMfZo5VS+cIdp0+fvvHGG/PYQO3UHZPHBjfffPNjjz0mc2oMN+UiC3HIKvTvec975ubmZFRBLxkhiaNuu+22ixcvLi0teZ7X+yBOGWZKgQcApVRqotSvOmW2v5pvwSiV2iwxaaLekXLR2njeSFMuWkfBwCkXrbVysfxrm01kKpp3fpmUC4ZFBh32PqGGxAZyuf+hH/qhcrm8Y2yQk6DijjvuuHTpkow/GW6Bh7yhFM0ePHjw9ttvz6cA6yXl0mq1Zmdn77jjjv/3//5fEARJkkRR1GXoZE5SLr08E8Cet95b5Gf9nBDe7i1K/dQorXXnKz3jaTOqfIVTmY4CPegGtFJaOZfEynXJLznlhU77hC4YCkm55FNZ9fJ8GQGSJIkkT2RUal+xwQ/90A/df//9sjpLj90xPZJBONLIO++88/Dhw81mMw+rujdPilevv/76t95669VXX5XQpa9FU3ecVQTAPuAyHaR+VWvldH+9RU6pxHi+8zr7VbTSnj/M6Z43bjKwOgr1bnqLdki5WOVXXFgbcAPA9jZUHWZZtrnqME3TZrM5vVWHSql8fvb8hUqpZrPZbrd3U3Uo7zyRqsMxFabmI5yiKJJFBTcfH3EcN5vNLmVmMrC7Xq/3fnDI92iMCcNQFiE067Z7cr6tDcdEj7tElh7aQHb/2tpau92u1WrdOwWlNLdUKm14XFYqkGnwep85GCim/ILR+0vSNJXZmK677jpZbqv3kccyRuHQoUOHDh164403giCQu+5h/YhkMgaZAPtd73pX53WiF3KGPHXq1PPPP6+UkjWlezzFeZ4nX+YQ62wBTBvndFBpX1g+/5WmS1z/4wKrmTUbOv2du7R4KU3TvhYx612m3Qu7GMqglYqts3bbQhannNZeljYjS20qhiO/rei9MFVig1KpdPLkyb5iA7mmp2l6ww03nD17VsYEDPdaL/dTSZJcddVVc3NzfYVVErfUarXTp09///vfL5VKUpja48s9z5NkAfcywL7llI5U6l34ZsOEVvUx7tApZZQKrDPWeSrPnzujzfLKSr1eN0aPoqfeKmWMWjEDZ+yVUqqV2Ua3z+qcF5mVV5UJGW2AocjTBT1ecCVbG8fxlVdeOT8/32/KJUmShYWFa665Rlb3knmjd9H8d5BZMOWznD59Wj5R73GRpJKuv/76F154QdK2WZbJ7JXdXyjzXBK0APueczqoxG8tnxsw5VJ7Z8pFa+Wsu3jpUpZlI8pW7D7lkiqVpLaxzYd1ymnjZUkjcqRcMDQSuvR4zc1nyDbGXHfddTIucLDYQIZXDndODZkILE3Tw4cPHz16tHMu4x1J4OF53o033vjNb37T931Z7L2X1zrnfN/fspMawD7ilNFeeenRZvOc6v9KbZ2bzTamXJqt1uLSZa0LmnLRSrWtU7bLR3XKi9zFJ40XOcUiHtgtqe6QgWc9LjsmsUGSJFdeeeWVV16Zr4PR++bK5fKJEyfy7pghFnhIw2Q05w033CCxRF9hVbvdvvLKK2dmZtbW1mRIW4/NkyF51treg0AAe49TJnIt9ebXGrq/YEB6iyJrQ6vMO0OXy0tLzWZzRL1FmXKv+MbbRS+OU6qd2WbX3iJrfL95UTGTKYZE0gW9j3KR3iJr7ZkzZ+TBfmODY8eOzc7Orq6uysiQYaVcJGKRwTMzMzOnTp0aIOVirT19+vTZs2fzd+vltfIdKpaSAvY555QJKs2zjXN/mfXfW+SUmtnUW5Sl2aVLl+zA06PvtEVnXNuY0aVcnHLaBFnzYkntaiwNsEGPVYf59BnbvUkcxwNXHcrCeyOtOswnC9v86fKqw2q12r3WqWhVh+MoTNVat1otGY0tHYQbUlFa62azKdOZbPcO1lpZrFb1cHDId+d5XrCuc3/LArU7NnuwHdAl+Si/k6WlpUqlUi6XuxQxy8qQ5XK5c+y7TNMi35K1No7jarVKsIup1vudp7VWhhr4vr+wsCBXmr62Jc8/cODA+fPn8+mgBmn0Vu+c3/ceOHAgvxD29Q5ZllUqlWq1Kil7WU62xyuTnCiYURLYt7RymQ4OxK8ffOsV1/+QQKfUxpU7lMps1nz8+81GH+PR+7WbU5ZTKtz5NOuUNiqoOK1J2WP35Cawx19EZ2ywsLAQhuHmeZt2fAcZbVCr1SRl33ts0Iu8uuPgwYOb7297bN7BgwflC5EgrZcX9jXSFMBe5ZQOXHLt4tdc/xn2zXGLc9b3gxdefCE+d36kSwPt8p3LPYQu2i87L1KcJLFrA8wFJke4c+7QoUODxQbW2rm5uRFNuCi53FKpNDMzM0BGSLJJMzMzUnDbe/NIuQB4O+XSPn+w+fJQUi5a6zRLG48/1m71MeC7X7tMuXha79Rx6LQ2jpQLhkSO2H6Deelrr1Qq/aZcVEdsUK/Xh578lE9hrZ2dnR3sZ26trdVqYRj2FZVJykWNIBIDMFWc096JlYed63sKDAl1Ok87knK5cPFC/elnRprU3WXoEvWScvFC55VIuWAo8mtu789X67GB6qe0Q0h3zIEDByRoGVHKJQiCWq2WZdkA7+B53sLCwvLycr8nCubUAPY5rZzVpmwb1138ylBSLhK6PP3s0+mFC6PrLXJOuV1kQrTS5R6GxOug4kxA6ILd6zflInOvS3fM7OzsACkXtR4bLC0t+b4vhal9t3sbEqtIaJTPh977yyWsmpmZKZfLef1t70OApJ+IlWOAfUsrl+nwSPNFXX9mgNBFbboZ1Fq32q21Rx8b7GTbo3GkXLTngsrAWwE2GFbVYb1ebzabqthVh13yMFJ1uLy8XC6XK5VKX1WHkueZSNXhyAtTZVi2LHyvlNq81E8vx0er1arX670sEyTBX6lUKpVKMk2d6vmYGIowDKV6dkvS/nq9HsdxrVYLgmDLQlb50hqNRqVS6TxK5CZBPlQcx3EcS8fkyD4NMCr5ebzfF2qtd3O/mr92FD8c6YSQaQYGeLm8tt9XyRcSx/EAWwSwhzirfecPWG+fbTojWmVVOKeyUI2sMHVXYxd7f60bpA8V2GzgJbPklmTg7vwBYoO+DCWs6suoPxGAqeCUTr0Bc9OZekcY4JxzxnfBjIrmlO+Prp9+DKGLc5bSDgzRYFUWA8cGzrlarTbS9UWNMQM3z/O8Wq32xhtv9DtMwfO8JElGN18PgGkwzJSL1jpzmQrnlGurkQ01GEfcoki5YJh6nwssl2WZVG/KMl/9btEYU6vVeul3HoBERAsLCwPERTJKoFwuh2HYbrf7yqJ4niebZpQksM+lJho8zNiUcsn8mormlOdNd8pFOeVYLhXDkS+Z1Tu5NM/Pzw+80SFWdGwgsUcURdVqdbDQaOABPL7vdxlcB2CfcEqnfnWw127dWxTOqCgeXW/ReO616C3CEEk3R7+v2rzwV19bHF3oInzfHzj1Iauf9fsq+RrTNGW4C7C/uUwHyu9jbuh3vvod/6W1Tj1PRXMqy6a8t4iUC4ZGZpEYf9VhFEV5hDDOqsMoinqpOkySpFqthmG4m6rDdrsdRdGoP9o4Vkxtt9t5/eTmfbzj8ZEkyerq6pavzeVFbqVSSdbPVeM9MvJmRFFUqVQajYbqujpw59Kp2z0ny7JGo1EulzsnlssHeEmX5G6CbGCC8mXH+v2ROucGK/sUMn2C6n8qyu7k3eTkPljliVIqy7KB5/ZmLkkASjk9vLBHK6tcplw2wlkYd/PGJOExXhKBh2HYe61FfkFP03TLe8JeDBYb9CUPjcbz2nzEBnPrANBDy007raxyErpoQhcgFwTBABfcgWMDY8zi4uKIqjtElmVpmg4woEHSNYuLi/2u3SFzSTIXGIAhply00j9IuYxuNCNxC6aKzPjZ7/QWvu+vrq72W7oppAd2cXFxRKvoSP/X4uLitddeO8BrPc+7fPlys9nsN5wzxrB8BwCllFZuSOkRp5XVb6dcFCkXIDdAekEpdfny5WuuuWawLe6mK6c7GaTYarXW1tYWFhZk9bB+32GAATz9LjwLYA+bvt4iYHoMPP36wN0xateDe3uRpunA+ZzBBvfm05iOdHpWAMU3vJSL0kqvp1zoLQJ+oNVq7abqME3TtbW17r0k8ubGmEqlMtmqwzAMd6w6lJVj86VTt3xO71WHo56QfRyFqUqpLMs2d+855xqNxo6DrSXF1v34CIIgiqIoivJi5QEauWETg72Jc06KkhuNRrvd1lpv2XJ5cG1tLUmS2dnZLQNWOUrq9XqlUtn87ckAdzoX95gi3LcM5eez45Nlvd/eb9VkHia56V1cXDx8+HC/02DLhi5duiQd80NMc+f38J7nLS8vd14Ue38H3/dXVlbW1tZkBEbvJbtyAlRKWWt7uWBsd1LK/2StHelA0i23a63dcbSEc04aNs6fSb7RLl+aUkq+tHE2TL40tb7XNjevyHtTduL4vzRp1XbfmCr83lTjvejnu2lsW4QoQiTQu4K0drDVJ/qNImQCmt6vznlssLKy0jlNT+9blBGWq6ur/cYGvZDZHLXWFy9evOGGG/odsyih1MWLF+Us0df4UWNMqVRqNpthuMMcct1P2qrw5+0xX4LVO6/ChQoPlFKdDdvyCZPam/nWp3RvTuRivePeVP2fZndpUuHlPpcfpZNuSB+K0NoxxC1KqSRJfN/3fb/3U4QxRmKDCxcuDBYbKKWWlpYkYhluOjsPhFqt1vLycq1W69LZsGXbjDHtdrvRaEjD+kq5SI43y7Je8kg7nhsLm9mYyFm0l5hKFTvYK2bKRU3iSyt4Am3HmGqcoUtnFDfmCHOfI3QZWxsGC11mZmb63YTWutVqNZvNubm5viooNscGw7005/HG8vLyAG8rKZeVlZUsy4Ig6Hf8aBRF9Xp9x7hlx7PfZO+F1U5X4WLeC0/2zrTLPi1+TDWRw6xLeKAmtzd7OczGH7qo9dUJinBh2j+mroeuINMiDBa69PX8LMuMMX3NbZHHBisrK6r/70pig0uXLskhMVhtyXb0espFBm4eOnSo30E4Wus0TS9duiTjOHvPCMnnkiFAuw9dFINJNpnqzMakBpOQQBt6w8Yct6hJx+T7liblMq42DPCDSpKkUqn0fn3MZ7xqtVorKyu1Wq3dbvfV45PHBlIUMdx5KOTdJDQabF6MIAjeeuutZrNZKpUkEOr9tWEYNpvNHmO5HW/rCngvPKnwQDGYZKAmTe9gkglerLsPHh5/6DLBH90+N3Upl31ou6rDZrO5Y2dQkiTdL9YyKFdWSS1U1aHMlr5ly/X60qlpmu6m6nDUValqpIWp+VcTRVGj0dgwgYrWutls7nIJIOk+rNVqURTJt9zLfu28cuTPt9bmB6u8bR4Wdz65l/eXEHZubk76RLv8BowxcRzLmKotc5fyoVqtVufquvJ4kiTSJenWl9zdsWEouDGnY7Yjuezeny/nsjiOezwI5agOgqBarfZ13Pq+L4f9s88+e/LkySAIkiTp5Swpv9xyuXz27NkLFy5IFUS/01h2l9+pxnH89NNP33333c1mU/XWkyHN8H3/ySeftNZ6nidzEvTVmVGtVuv1epZlO74qy7LtllfVWsdxXKlURr042+btZlkWhmGXFcmVUmEYVqvV4Zbl7EhSJNsd3tJJY62tVqvDPaJ2lN+TtFqt7fZXkiTlcrnIe3PMX1q+N7cMy5xz0pVYrVZHNFP+duRL23FvqjEWpsoBJsFVES5M+0pBOu97JB3Gk26F6jeX7ZyL47ivC4rWular9XXW2hAb3HXXXc1ms8fflGwlCII8NvA8b7hXQFluPQzD8+fPv/nmm0eOHGm1Wj02z1obhuHKyspLL70UhqG1VubI6JG1tlwuW2vzxce2+1xyetzuGJPztlJqIudt6edotVqb7/UkPEjTVPp4xtaqvGG+73e5oGRZJpNjjbltzrkoirbruJrg3hRJkrRarc3ZXskMTGpvyijkLntzUhdr6Xjr0g0pv4IxD9z0PG/84eU+J0dpFEWTbkivdD8dzIVqhvyg+k251Gq1vjpUJKCKouj8+fNvvPHG0aNHe4wNpG1RFC0uLp47d06iguGezCVJK9W2Tz311LFjx+Rj9hhWOedKpdJTTz0l84j1G1ZprWdmZtbW1ra7l+zUJeUiipnZkDGgRbsXnmzKRWK8LYM9VeAE2gQzG0VOoKVp6nnedntTKZUkSV9n2t03SaI4Vgcas/x2adIN6VVBknL99hYppZIk6XFQUX5BL5fLfc3nJbGBhDpPPPHE+9//frmg9N5bJLGBzJklsUGPm+7l/eWOOwiCS5cuvfLKK6dOneorIyRhz3PPPSfLpfZ1rrDWlkol51yj0cj7u7d85o4pl8lmNqRnfLvzttyGFO1eWL406fqcyJ1pmqbbZTZIoG1umIxt2i7lIm3zfX8i3VjdUy5q/TQ7tibJKX38dzHo9xIwcQVJyvX7pUk/xY43+0KvTyLc14QaeWwQhuEbb7zx2muvHT9+vPfYQLpjlpeXX3zxxSiK5D9733ovfN+XS9iTTz551VVXSZTVe8qlUqk8+eSTa2trEs71eyTUarWVlRXpB+/yQrmmdD89Tirl4vt+HMdbnpkneC+s1gdbb3exK2xmQ0x2MAkJtN4blqapLLm8XeguY3HVGAe1Src1vUVjJgdDv/N0T9AAuY6CNKP3HGYe3oRhWCqVer+D0FrLpS3vjhksNlhdXR36AN08rPI8b21t7fnnn7/lllvq9XrvKRdJzD711FNyJg+CoMc4UK1f9CuVSl6b2v2Fct7e8n0YTLJZPphky+0WeTBJYTMbqqiDSSaYcsm3vuXeFGNOucivslwuT8sFdM+YupTLPpH/KrtUHfY1RelmMgiwWq2WSiVjTO89WflG8+d3Vh3Kc4pTddhsNjekR7TWMthmDFWHo+qFlSuf3HXI0oidn0GOjx7nWtuyq1jCu1KplH933b+jPEtorU2SRMq35HZUHqxWq5VKRd5EUjArKyvyKsmCyXwwUguqdjpc5E/lcjmKomaz2Ww2t7uSyc5eXl6em5vb7iiR1XU7wxc5CqXXUA5B6aHs9j2i2CQgG3oeeWC933QZY+bn5/t6c7mJ7euIlWNekoBra2vf/va377nnnlKpJCm27s2TX+7ly5e/973vyekiDMPhpqSlL6HRaARB8Pzzz8/MzLzrXe+S5GD3m3Npnud5Tz/99NmzZ2UptgEWVYuiSM4JPT5/uz9FUXTXXXf1vukhcjtNQ3LLLbdMKjHUPf44cuTIFVdcMc725KRh25UDlUqlwu7Nm2++uZh789SpU6dPnx5ne3I77s1xNkYCoZtuukmKx8a5aaj12K8IqfAdVavVSTehb8652dnZfr/hAepCN8QGBw4cuPbaayWH1T02kDBJa/3oo4++8soreWzQ+6Z3JBkWmePDOffwww9/4AMfqFar3cMqYYwJw7Ber3/7299ut9u+78ucGv2GVTMzM/Jt9NhJsN2fjh8/fuLEib42PSxy3t5uWPOBAwcOHTo05iaJ/D53y79qre+4444xNynX/Sp89dVXHz9+fJztyXVvWBRF733ve8fZntz07s1yuTzOxjjnrr766jNnzpAVmYip+NolOTA7Ozvphryt95SL53njTLlIVuHhhx/+4Ac/uGNs4Nbn9fN9f21t7Tvf+U4+2dbQuxKleUEQXLx48dFHH5Wzn2RdurwqT7m88MILTz/99GAjOOVyPz8/L/nhXp7f5a+FzWycPn362muvHWd7ct3vhY8ePXrs2LExN0nIVXi7YK/ICbSJZza2++sEE2jd9+ZEUi4333wzKZeJ0OuV55NuyA6cc6VSacwHZxc9XtZlIqq+LrVync2rTHsnXc9BELz22muPPfaYXGH7jQ2kIyYMw96HIfZCOqRk9NV3v/vdSqVy9OhRCat27C2Sr+KBBx5YXl6Wb3KA3qJyuRwEwe5TLgsLC5O6F+6ecinyvfCZM2eKGexNMIHW/So8wcOse8pFKfWud72rmHtz/KGLMebKK6+kumMi9PpidMVXq9Um3YS39XWgzs3N9bs0jXTf9LWVPDbwPO/BBx8sl8uHDh1K03THoR3SHRPH8cMPPywzjUrH0xB/jHI/Lm1bWVn59re//cM//MNhGHYPqzozQufPn3/88ccl9uh3EI4kvhYWFnpMuaiu+/fWW28t5nl7gpmN7imXImc2SKBtNqUJNK11pVIZZ3ustSdPnux3nQwMy1Qs+DalKRc5A/TVWyTXa7lG9/WqMAyldOHChQsPPvjgnXfe2Vds8Prrrz/xxBOyXVmVdOgDdFutVhAEjz/+eLVaPXHiRI8DdKVc5NFHH71w4cLAA3QrlUoURT1mF7u8OYNJttQ9PC7sYJLCZjZIoG2paCmXdrt9++23y0lpnJuGmqqUy37QWXWYJMkoqg6VUp1Vh933fl516NbnIMhvfKSitVKpzM/PD7fqUBZx3X3VoXNOqg47y1Clwigf/zO6qsORFKbKVywlZBIIdoaYcnzIzHM7vpWEgLVabW1tTXXM5iLzG8n30v2rkT2apqkMfQ7D8NChQ3Nzc/Pz80eOHDl27FitVkuSZG5ubmFhQYIbY0yz2bxw4YIxJsuy1157bXFx8c0332w2m2+++abMsxIEQZ5z3K4BsvOq1apUb7fbbbfVdP5ydltaWqrValsOR9hQm5ofx1rr1dVV6Q/Iskzmwd3xKwWGrq9lssQAx6rUotfr9TAMX3/99a985Su33XbbwsJCuVze7mQip+Bms3n+/Pmnn35a5szWWg89kpOzdj4Y4qGHHnrrrbduuOGGcrnc/YfZarXq9fpzzz332muvyRBJmS+/3+bJuWWAHYFeFHZ+lMI2rMgK+6UVqmESbMisn8VPHO89hHOjJguQ9vWSHe84tnxJZ2zwwAMPvPnmm9dee22lUtkxNmg0Gk888cQbb7yRxwZDn/bPOScZc6kk+cpXvnLTTTcdPXq0XC532Za1tl6vX7p06dFHH5XPJT03AzSgSyfltCjUeXtaFPZLK2zDiqxQX5qkAhkiOSl87aM2npSLXNPr9brv+/V6vZfYQFIuq6urFy9efPLJJ2UKbXmfocctvu+XSqVWqxVF0bPPPnv58uUbb7yxVqt1H9gkYdXLL7/84osv5kMkB0iy57noXX2MSSvUebtTYRuGAbA3e0HKZbKIW0ZtgE6KHUcAbPkSz/MkNiiVSk888cSFCxcGiA2kA3roHfDytnkl6te+9rXrr7/+5MmTMpdxl5TL2traysrK008/vbi4GIahDG4YYARnl5LOaVHkC0ph21bYhmEAhdqbMvORZNS5jI4f3/moDXDFHKy3KI8N0jT96le/esstt1x55ZUy83j37pjFxcUnnnhCRsjIcgvDre5QSmmty+Vyo9EIw/DcuXP/9//+39tuu21mZqbLzIMyfrrZbL7yyivPP/+8jHT0PG+AQTikXEaqsA0rssJ+aYVtWNFYayXlwjV0IvjaR22AK+YAJTfGGCmKiKLoxRdfvHz58m233dY95ZLHBmfPnn3uuedkuL7v+0NfRzcPq2TF5m9961syCEcKObpsq9lsrq6uPvXUU1KVKnOrDbCqjVSJFGfloT2msBe7wjasyAr7pRWqYVIZpIa6uDR6x3deHDLsRIrspOpww2qffVUdBkGwZdVhpVKRyKTHqkOZUCwMw4MHD87Nzc3NzR09evSKK66QtVg2VB22Wq233npLalZfffXVwaoO5fHdVx0qpbarOlxbW5Oqw9Et1zz8rimZclhiU7X+NeUfW8LQHo8P4ZyTD99sNqU7TXrvumfc5Bu01sqr5ufnjx07dvLkyRtvvPHYsWNS8dy5wOCGaV3K5fKRI0fk37fffrusTdput996661nnnnmxRdfPH/+/KVLl+SYk3FXXTKGnufNzMxEUbS2trblAk3yWVZXV/MPu/kJWZbJAKz8a1FKyax4SilZyJ6JEzAR4znq8p9/s9mU2Y/uv/9+qVHvXpjaaDTkpypVqaPI16v1QZzOuSRJSqXSuXPnXnvttVKp1OXcrbWWi4dSSvoSwjDczQhOfv4AhiWfK4UTC/aesR3VnbFBGIYvv/zyyy+/3GNsIIG9xAYjivCNMZVKpV6vyxw33/3udz3Pq1arXYpPZJRkmqZytyxDJAdOkHF6ATAsrsOk2wIM39gObM/zJOXSe2yQp1yCIJAFvvI5JofbNplTw1obx3EYhhcvXrzvvvskI7TdSzanXKSChZQLgIkj5YK9bWy9RVEUZVmWJEkURYPFBjLzxYhSLlLgoZQKguCZZ5557rnnuhSmShdwvV6XCXeked2LVbrj9AJgiMi6YA8b21GdxwYywPHRRx/9/ve/32N3jO/7+ZpjQ5/DVK0PwomiqNVqhWG4srJy3333hWHYS/GJ9GGp9erWgTNCnF4ADAtxC/a2saVcpGxDRqpLbLBjyqUzNpAZK0a3YLKMcsmyLIqiF1544cUXX+w+F5hSqtFoSMGCpFxKpdJuimY5wwAYFqk6I3TBfiZVh41GY8uqQ6VUkiS7rDoslUo7ruK+ZdXhiRMnbrzxxiuvvHJz1aFMiJO/vFwuHz58WP596623yl/b7faFCxeefvrpl1566dy5c/1WHZZKpdXV1e2qDpVSvVQd5l1gm6sOZS6SoZ98RjJnaqvV2m592DRN+zo+hHMuX1xISsu67BI5OJIkSZKkXC7ffPPNd91113XXXbewsBCGoSxEm6apUko6IDtf1fmespZu5xN83z9x4sTp06fTNF1dXX355Ze/973vPfnkk8vLy9JTuN3KzvnunJ+fX11d3fIbyI+SNE1nZma2+/Y2V5/mby6Jwp2/TWBqya2v1rrVauW/BTm3bnlWkTOG53lyRpJBlqMYIpmT5VuTJJH5NdM0XVpa2u6MJ03K52CIooh1jwEA2GPy2EAmsOw3NshnpRk62Va1Wm21WmmaSlhVr9e7hFVaa5n0WlahH9EwCAAAMBHOOZl+stFoSByyY2yQp1wkNiiXy6Ob0lWy6saYdrst00laa1dWVro8Pw+r8onARtEwAAAwEdJx3G63CxgbdKZcZLYypZSM0dwx5SKhVKVSGfpSrgAAYFI2xAbSW9Rjd8wYYgPJAskSH7JCsrV2eXm5S0+WMUbGw7j1yeVHOggHAACMk8QGUm6a9wH1GBsopYIg2LH8Yze01pVKRUa5SFjVJeWi3pkRUkqVy+WhL+UKAAAGJrmI7ermZH2Xvt5w4KrDUql00003SdXhgQMHdl91ePz48VOnTqVpura29vLLLz/yyCOPP/54j1WHQRDMz8+vra21Wi2Z5mxzy7tXHSZJMv6qw5EUpqqt5gWR6tvOvdLvG8rqsTseHK1Wyzl36NChe+655/bbbz927FgYhnEcp2kqX7FarwLdrjp087/zNsRxLId4pVJ597vfffvtt0s181//9V+/9tprWZZJR+aWLZTje25urtFo1Ov1LTdhjJEouVarbfkmcRxL1fWGv26XsgT2GBko6fu+XAastXKH2f0lnucFQSA/nFHfWMrta5IkaZrKpru3TRbpltVFuOkFAGDvkdggjuMsy3qPDWSx95HGBnJ7UqlUJG6R5c56eYms2jG6vgQAADAREqjUarVixgYyGML3fcnxSlls9+crpXzfzyeeHF3bAADA+OWxgYQuvcQGMhpA+phGHbdIV3Lek7Xl0IENL5FxnDJXCKELAAB7ScFjAxmE43mehFWyQMeOL/HXKZYOAwBgb5HFY/IBujumXNR6bJCnXEYXG+RhVZZlUhSQ18R2f8l4BuEAAIChGE/VYbvdttYePHjwnnvuefe7333FFVdEUSSjfOv1+rCqDsvl8u23337bbbdduHDh2Wef/eY3v/nqq6/uWHWotZ6dnQ2CYG1tbctNyBRjSqntalO7VB1u+Z3s3vALU51z1Wp1dXVViow7H5edt5v6yS5fhDFG4uBrrrnmQx/60M033zw3NyfRp9SjioE3LfI3ybKs0WhorRcWFj74wQ/efffdL7744te//vUnnnjCWitl1ptb2zmb3XYL7MrSBJ7nVSqVzZXQ+VQ0G16Ypmm1Wt3lpwOmQl6v3+OskPnPdjx3ldJDsN1JYLN84gRuegEA2JPc+rLthY0NwjAMw3DLSZg2I3QBAGAPy1MuxYwN8jrYHie0HnNGCAAAjNlg3TFqjL1FfU2ZSsoFAIC9rcixgQx5JOUCAABEwWOD4g/CAQAAO9qu6lApNZ6qw5MnT0rV4fz8vFQdSj2q1LUOvGmxZdXh+9///jvvvPPFF1+87777vv/973epOlTrq7/6vr9d1aHWutlsep5XrVa3qzqUGUY63z9Jkmq1Oop554dcmCrfoKwT2Dm5iCxkuuU3snvGGKlLPnLkyMc//vE77rijUqm0223ZhUOpR90sf9t8kv6bbrrphhtuePbZZ7/4xS8+++yzMk3vdmvsygK7Kysr+SKuGz7R2tqa1loOtc0vb7Va5XK5szFyRHqeJ1skgMaeJwd5j7/u8f8iCt48AAAwTp23RX09fzz6ilsUoQsAAHtdwWMDUi4AAKBTkWODgmeEAADAmBU8NihyWAUAAMavyLFBwcMqAADQndTiZVm2ueqw3W6PrurQWluv1w8fPvyxj33szjvvnGDV4XPPPfelL33p6aeflrX6tqw6tNZK1eHq6mocx1tWHdbr9XwK1w1/lYVFN1QdqvVZX4dedTi0wlSttewnpZS11vf9zj9JVfGIjo9WqxUEwY/+6I/+rb/1txYWFprNphQr775SuRf5sdJsNrXWN9xww+nTp++///4vf/nLly9flh255W42xszNza2srGx5lGitpf5785Qz8iNst9v5ASSVro1GQ36HUhtNJA0AAAAAAAAAAAAAAAAAAAAAAAAAmCDnnFQdyrqM+ePjqTr8yEc+8tGPfvTAgQOTrTo8c+bMqVOnvv3tb//FX/zF4uJi96rD2dnZIVYdNpvNOI6HXnU4nMJUaXS9XpeWbVjyVT7PlsdHvtSn7M6+PpW8ttFovOtd7/qpn/qp06dPJ0kiJb/jOTg2kI3Kergf/vCHb7vttj//8z//9re/7fv+lkunyofd8SiZn5/fsH6uWv/VeZ4XBIH8Kf/OgyCo1+uVSiX/EwAAAAAAAAAAAAAAAAAAAAAAAAAA47Sh6lAp1VkYaa1tt9vbvVCqDqW8s9+qQ6VUvV6//vrrf/qnf/raa68tSNWhMeZDH/rQrbfe+sUvfvH++++X2sCBqw7n5uY2V5lurjrUWndWHZbL5c0VrYMZWmFqq9Xq3DedjYvjWA6CLV/VbDattZ7n1Wq13itujTFJklhrP/7xj//tv/23fd+XJXQncnBsaJjUcM/Ozv7CL/zCTTfd9Cd/8ierq6vlcnnLBXa11l2OEmutHCVbvjCOY8/z8hV183px3/elnnvYHw4AAACFxrwkAAAAAAAAAAAA+xm9RQAAYFoQtwAAgClC6LIbWmtZ8FJq7jpLTOVPo6s6/NjHPvbxj3+8UFWHSql6vV6r1X7u537upptu+uxnP7vLqsP5+fktX9hZdaiUyqsOgyBot9thGA7nEw3lXZxzaZpKBbOw1lprnXNJksifNrxEDp2VlZU0TeVpy8vLWz5zi0Yb02q1ZmZm/sk/+Sc/8RM/Ya2VsthRLNo7GGNMmqbNZvO9733vv/gX/+Laa69tNBpbHr55BfOWC5xKjbKsEbzla6XoV77t/Ms3xsg/RvHR0J3s5aNHj87MzGRZVpxjEgAA7Hlaa98fZN6Zid9lAQCAfagz79kXki0AAGDMBu6iPnnyJGMUAADAmMnSB329JMuyMAyPHDmSJAmJFwAAMDYDj3K56qqroijactQ+AADAiBhjBgtdIKRsUIrdpPyts+pwy6yU1FWurq4OVnXYbrdrtdonP/nJn/qpn3LOFbDqMMuyRqNx1113/dqv/dr1118vK6lufmZedbjlAqda6zRN+606zMs/h/KFDG0Muud5aZpueNBau13W0lorC+DKX7XW1trl5eUdyyk9z6vX61dfffW//Jf/8vbbb6/X6865Ag6ml2WC6/X6kSNHfvVXf/W9733v2tqaPLjlk2u1mlR+b/5Ts9mU0vDNL0zTdPM3JjXN/SaaMSzOuXK5fPDgQTlvTro5AABgX5B8/bXXXqv6LzS9+eabrbXELQAAYDw8z4vj+MiRI7Ozs5vTiV2kaRoEwalTp1qtFokvAAAwHp7ntVqtW2+9dYDXXn311YXq4QYAAHubjEKr1WrXXnttX7NjWGu11ldffbUMNxpdCwEAAHKe5yVJcv3116s+Fx+z1i4sLLByDAAAGCdrbblc/v/Zu9dgya6zvv9rrX3r+7nPnLlII8myJVm+IMlggyH4AjHmkqo4BOxUYgeSQKhKFS+SN6lK5VXepFJF3hBChUqB/wFsA3aMgTLxXcYYY7Bk2ZIlG1u2bjOjOTNzbn3dl7X+Lx7NpnX6Mt19+pzuPvP9lEp1pk/37tV779O9+tn7t58LFy4oLqd+CBOkDrtTeKOnDo0xzWZzc3Pz3//7f//AAw80Go35PEdaro3bbDY3NjZ+9Vd/9Qd/8Af39/eHpw49z5tW6tAY03dpE5hOYts5V6lUtre3u7eWdPuU8uWB+2ut6/X6gW8FspckSVIoFAa9Ns/z9vf3f/AHf/Dnf/7nC4XCoDak88MYI3Xb973vfefOnfvoRz8ahmF302HhnPN9f2lpaXd3t+9e0mg0giDou5ckSRJFUfctaZr27cOLY6O1/tmf/dn/+l//q+d5gzbcopCraU7cxgQAsHDknT///6yHg5E4565cufIjP/Ij586d6zv9HkRm4Pfcc89rXvOar33ta6urq4u+0Z1z0/qmBABYCPLOz5v/ApFLGDabzZ/8yZ/sLZENJxOVd77znY8++miz2SwWi0c2zONAyQUAbjWUXBaRtfb69euvf/3r3/jGN457ndwsyy5cuPCWt7zlz//8zzc2NhZ9o8uu65xb9BcCABhR/qWVqsuicM5lWba3t/e+972vWq2maTp6Ew+5jP5P/dRPPfLII7u7u9Vq9UiHetQouQDALSh/82fesiicc9vb2+fOnfuBH/iBcUsuzrkoit71rnf9j//xP1ZWVha9cRklFwC41XQfLWLqsiistVtbW//kn/yTarU6n/nGhTAkddj3giMSo5s4dfjGN77x3e9+d6lUWqDU4b/4F//i7NmzH/nIRwalDj3Pq9Vqg1KH9Xp9VqnDKczIZdzSD7f7/dFa27dJrta60+m02+1xp9HGmP39/Te/+c3vfe97syyThO7hx3/UjDHS9PanfuqngiD40Ic+VCgU+u4lQRCUSiWJdB9YSJZljUajWq327kDSP9f3ffmV1joIgiRJ8horn1jHTDbuXXfd9Uu/9Et/9Ed/NEoif55Jen7QRQgAACeP1jqOY2ut/H/Ww8HNaa2jKHrrW9/63ve+d4LpsVxc5xd/8Rc/8IEPfO1rX4vj+CgGeWycc81mkwkwANw6nHOtVitNU978F4Jcmq1arf7Kr/zKBKcaSMnl7Nmz/+7f/bsPfvCDL7744kLPV2XiPUGNFACwoCi5LBytdaFQeOihh37lV34liqJxJ5wydXnXu95lrf2rv/oruZjvEQ31GGitm81m3yO/AIATSU786nQ6nCW5EOSMo2Kx+N73vved73znuKdIyud7qVT6t//23/7e7/3eCy+80Nu8YoFQcgGAW5C1tt1uc7RogQRB8KpXveoXfuEXKpXKuJlMKbk89NBD73vf+/7kT/5kb2+PkgsAYIForeUb6wTHHXD8JApYKBTe9a53/dzP/ZyiXeqk8tThgS6dw1OHrVZrstThm970pn/5L/+lc67T6SxQ6jCO43e+851hGH7gAx+IomhQR8xBqUNr7ZDUYZqmQRB0pw7jOC4Wi1NJHU4hmLq/vy+5uzwbKZIk6fuFQV5t/9H4fhiGfV+SpJYllSqdZBdi/xCyQ+zv7//4j/+4UupDH/qQbL8Dr1T6O8dxHMfxgfUmn0BhGPZ+AklG3PM8+ae897Xb7U6no5SqVCoLtKJOjPyr72te85pnn312d3d3cY/WjNu9BABwAuTzzlkPBDcn8+3bb799fX29+8bRlyAbulKp/Jt/829efPHF559/Xi6MPf2xAgBwNLiE8AKx1pbL5QsXLpRKpck2nJQp7r333v/8n//zt7/97f39/cWdulByAYBbECWXBSJX0Lj99tvX1tbUjTnnBNnUIAje8573vPOd73zmmWfkos4LOgFY3JEDACZGyWWBHCi5yKlsYy1BPusvXLjwH//jf3z++eevXLlCyQUAsFiYuiwQa+3m5ub58+fVpBtOPu5/9Ed/9Pu///ufeeYZ6YK1oBMApi4AcAviaNECkRzgHXfcsbS0NOuxLLZ6vS7XQetudy8XF+s7IXTODUodep43PHUoqVRpALlAYTpZCfv7+29729uccx/84AcHZVOLxWKSJJ1OZ6zUYZqm+cqX1GGn05FWRuVy+UAadFyHCqbKJRKttRKc7X5VzrlB7XTr9XrfXznnyuVy368H3b1SJe+6QPuHkFZU9Xpdsql/8Ad/UCgUeu/mnKtWqzs7O31XUaPR6NtaV2LieXxZKRUEgbqRAV5aWlroCwItKGkSHUXRK1/5ylmPBQAAnHyHrFbIw0+fPn369OlpDgsAAKCfcRt3dJOqqzHmVa961XRHBQAA0OvwJ4hYa5eXl5eXl6c2JgAAgAEOX3LRWt9222233XbbdAcGAADQ6zBxYjlBt1Qq3XfffdMdFQAAQK/DlFxucZI6zLIsTx12t0udIHUovRt7U4ee59Xr9TyVuqCbzBhTr9ff/va3a60/8IEPDEodVioV6ffZu4rq9fq4qcNms7m0tDSbYKrWOsuyOI6jKLLWdu8f0sOz70OSJJHe0wd+JanUvsFlWbNvetOb3ve+9w3qwroo5LX8w3/4D621f/AHfyCXKuy9T7lc3tvbO3C7rPBms1mpVPrGl/OmqerGAXLP86T/avfeg2Mj73eseQAAcNTkGiiHXIJSiqkLAAA4BlrrQxZ/ZerChdgAAMBRO3zJRXG0CAAAHJdplVyYugAAgKOmbzjMQii5AACA43H4kssta7LUYZqmk6UO3/CGN/zCL/xCmqbyXEfxio5Bnk211n7wgx8sFotjpQ6lvWW1Wh0rddjpdAb1oR3FoYKpsh9Yaw9M7iW43PdRzWaz90bnXBAEg1KanU7nwoULP/dzP7dwvXT7kr3kx37sx5577rkvfelLpVLpwFl0zrkoigqFQu/fkrTWLRaLvSvBOde9l+TXb8678fLtayamcsoCAADA8WDqAgAAFsiiFwkBAMCtg5ILAABYIExdAADAomDeAgAAMOfSNFXjpw57+1neNHV4/vz5n//5n5fFLvoJRZI6fOtb3/rcc8/95V/+5aDUYbFYbLVavanDTqdTKpXGSh12Op0oiiZOHU6+uq21YRgaY3r3hjRNewckY43juG+n3Uql0vsUkn2t1Wq//Mu/XC6XkyRZ9P0j1+l03vve9953332tVqvv9i6Xy91Z5O5f9e46ondDyJ9u34Q0AAAAAAAAAAAAAAAAAAAAAAAAAABT5JwLw9DzvN6wW5Zlg1KHnU6nb+qwXC73PoU0Ai2Xy7/8y79cq9VOWOrwn//zf/6a17ym2Wz2TR2WSqWppA6ttYVCoTcMPLrJ17hzTtq/SoL5wLD6ts1ttVp9l1MqlXzf7xuezLLs3e9+96lTpzqdzonZP/IGxP/sn/2z5eXlJEl6V5es275/ae12O8uyvmu4OwattY7juFAoDFq3AAAAAAAAAAAAAAAAAAAAAAAAAABMkQRKe1OHfTNxSqkhqcMgCPom45Ikefe73725udlut09Y6tBa+573vGdtba1vi9DhqcM0TfumDruzqZI6LBaLg9btiCZf6cYYGWX+g+jbTleCy70JTOec7/t9W3oaY5rN5jve8Y4HH3ywb8B3ocn2O3369Lvf/e4DLYmFtNbt2wx3UMRX3WhznPM8T/LDEweXAQAAAAAAAAAAAAAAAAAAAAAAAAAYhdZaApYHQm3dHRm779xutydIHf74j//493//95/I1GGSJBsbG+9+97vz7pjdhqcO2+1238UeWPlTSR1OuN611q1Wa3t7e29vT8YxaJRiSJayUCj0Te622+277777ne98Z7vdPpG5SvkbePDBB3/kR36kbzJbUt19exB3Op1BTVPzbeGc8zyv1Wpdv369Xq8f0asAAAAAAAAAAAAAAAAAAAAAAAAAAECCpn1Th33bYQ7JUg5KHXY6nTvvvPOnf/qnT3bq8IEHHvjRH/3RVqs1VupwUNNUa+3UU4djB1MlC9vpdORV+b7fPdC+zT8lp9v3Jfm+XygUeh9irfU8713velcYhoNa9J4Akr/96Z/+6dOnT/dtrev7ft/4srV2UND3QDDY931jTJIkJy//DQAAAAAAAAAAAAAAAAAAAAAAAACYB1rrOI4lxXbI1KHneYNSh1rrd73rXVEUnezUYavV+smf/MmzZ88OSh32XT+Dgr7OueGpw95F3XyQ4z5A3UhFBkEgfXW7f9U3uKyUGvR6isVi3+Byq9V685vffPfdd/dtJXqSZFlWq9V+8id/ctCq67uK5K+07/Y+sBzZRr7vx3Hct5ktAAAAAAAAAAAAAAAAAAAAAAAAAACH4ZxrNBpjpQ47nU7fdOWQ1OEP/uAP3nPPPX1biZ4kWZZVKpWf+qmfGhQJHCt1qLXOsqz79jx1mCTJZKnDsdd+Poi+TWD77iJZliVJcuB1OucGtQNN03R9ff0d73hH37jzBHp35UOSMU9lmdJa9wd+4Afuv//+3vbBQ9ZS35i46hdfzofaNx4NAAAAAAAAAAAAAAAAAAAAAAAAAMDEhqQOlVJ9o49ZlvXNuw1ql5qm6erq6k/8xE9Mq1fqnKcOW63WQw899NrXvrZv6nDQWhqSOuwbWFVKJUkyQcp37AfIoJVSaZrmAxJ99w+tdbvd7vurQcHlOI5/4id+Yn19/ZBBStmPrbVxHKdpOq0MdL4GZI0ffkdxzmmt/9E/+kd9dwWlVKFQOHCLtXbIU1tr3ctZa621nudN0FQXAAAAAAAAAAAAAAAAAAAAAAAAAIBBhqQOD/TqFFrrTqfTmzoc0i41juN3vOMdp0+f7nQ6C5E6PGSUTx7+Mz/zM8VisW88c7apQ3/cByiltNaVSqVer2dZ5vt+/qx9X561ttPp9N5ujAmCoHfJcRyfO3fuoYcearfbh9mo0mt0Z2fn6tWr8s/l5eWNjY1BbX9HX6znefV6/dq1a0mSFAqFjY2NKIoOE7M2xrTb7QsXLrz+9a//0pe+VCqVutekvJBSqdRsNuUWrXUYhuVyedDemWVZ96qTv95yudy9sQAAAAAAAAAAAAAAAAAAAAAAAAAAmAqtdbVaHTF16JwblDoMw7B3yUmSnDlz5vu///tbrdbhU4e7u7tbW1vyz6WlpY2Njb6DHHex9Xr96tWrU0wddjqd22+//YEHHvjCF75QLpcPpA49zzt86rBUKnmeN8HLH3sbyLAKhUJv0Lb36bXWaZr2rj7nXBAEvVFaCaa+7nWvq1arh1npeSp1a2vL9/0gCIIg2NnZuXLlisSOD7PYvb29y5cvO+fCMIzj+OLFi51O55CZT3mlDz30kDGm73LK5fLS0lKhUCiXy8vLy8vLy0EQjPiM1togCMrlMqlUAAAAAAAAAAAAAAAAAAAAAAAAAMDUjZU6TJIkTdOxUoevfe1ra7Xa4VOHu7u7V65ckdRhGIbyz6mkDi9dumStldThCy+8MJXUoXPuwQcfHLScw6cOS6WSc26CVTphOLjT6bTb7VHWS5IkfW/vDS4rpdI0XV1d/aEf+qE4jg+5f+zt7W1tbcmzyCC795IJNmd3GDoMQ0mQ+r6vtb548WK9Xp9ssUJr3W63X/3qV7/qVa/q2ypWcrDVarVUKslqH/5c3X+unuclSdJqtSbbRQAAAAAAAAAAAAAAAAAAAAAAAAAAGERia3Ect1qtUVKHaZr2vX1Q6nBpaemHf/iHD5863N/fv3LlSp46lNTe/v7+iy++OFk2NQ8zvvjii2EYSsbQ931jzLRSh/fee++99957FKnDNE3b7fZkYxs7mGqt3d/f393ddc51v5JBHXXjOO7zrMaEYXjgRUpv2Te96U2bm5tJkky2i0gL2na7vbW1dSDdK2s5DzSPu9g8ldq9hWQlaK0vXbq0u7s77mIPPEUQBG9961sHNU11XUZZWvc/jTF7e3vb29sTr1gAAAAAAAAAAAAAAAAAAAAAAAAAAHpZa3d3d7e3t0dJHSqlBqUOext+SurwjW9845kzZw4TjstThwdysxLrmyybmqdSr1y5IiPvTh1KNlVShxNnU+Up3vKWtxxR6lCyohOs2PGClMaYer2ulJJY6YENcODOWus0TXt740pP3t4VIbe/7nWvO0w7XdnPXnjhhd74r7qRTd3b21NKnTp1KsuyUZqIyr61s7PTG3aV32qtwzDc2trSWk/cDlhGfvfdd586dUr273GXcGBUBxbueZ61tl6vr6ysHGbJGIu19mQ0qj1Mz2gAAHDUtNZ9Z79jGfGryPw7Ga8CAICTSt9wyOU456y1lFwAAMCRmkrJRQ0+0L5wmLoAADC3KLkcwLwFAIB5Nq2pCyfoAgCAYyC9DGc9ioUhXRWzLMs7kea/6ps6zLJsUOqwt7+ocy6KokOmDrXWnU7n4sWLchyw9ykkm6qUOn369Fipw0F9NOUpoija2tpSSi0tLU2cOozj+O67797c3HzxxRenmzqUXKRzrtlsVqvVsRY13jiyLLPW9u0e23danCRJ323Q21FXax3H8W233Xb+/PlDdvWUgOiQBHAQBHt7e0mSbG5uep6XZZm60Sy4984S6dza2trZ2RkSTZbI65UrVwqFQm94dURZllWr1Ve96lUXL14Mw/AwR6klV9D9ouS1JEmSJMnEI8RYDuT7AQAAjtRhqu3yWL48AwCA42GtPUzNRB4+7rUJAQAAJnP4kgtHiwAAwPE4ZDBDHk7JBQAAHI/DT10ouQAAgOMh8SvOsB2FtTZN077hu74ptjiO+14lbVDq8OzZs7fddtvhU4dKqeGpw/39/TRNT58+7ft+mqZq5NThoCeV1OHW1laxWDxM6rBcLt9zzz3PP//8UaQO5Z+yBUdf1NgB2bGCqb0ddZ1znuf1rkQJOj/00EOFQqHZbE72bcEY02g02u225HQH3U32klar9fzzz6+trZXLZa21XDhHda1KybW32+3r1683m80RN3ySJMOffThr7UMPPfSlL33p8NdO7psmPzGNsOaf7EhPPvnkM88888wzzxwmkT9D8i7ZbDbjOM7fYs6ePXv77befjAtNAQD64hvUYtFa33HHHXfddZdM9ibYcPKoJEn++q//+sUXX7x06dLinnPgnNvf38/Xg7X2/vvvL5fLTF0A4ATjTX6BWGsrlcrdd9+9sbEx8UKkWHH58uXHH3/8+eefbzQai3jagbyKTqeTF0KzLKtUKvfff/+shwYAOEKUXBaL1vrOO++84447DllyUUp98YtfvHjx4uXLlxe35KKUajQaaZrmR4vuuOOOzc1NZuMAcILxJr8o5ISrarV61113nTp1auINJxcCu379+le+8pUXXnjhxJRcZIW87nWv6z2dEQBwkjB1WRQydTl79uzdd98dRdFhNpzW+tFHH33hhReee+656Q7ymB0oudx5552nT59mlwaAE4yjRQvEOef7/t13333+/PlZj2VhOOekyjRx6lAp5Xleb7Q1Tx2WSqXDpA6bzeaIqcN2u/3CCy/cNHXY6XSuXbs2euowjuPDpw6/+MUvzk/qcIxgqmRKwzDsdDqe5930rdBa2zeM5/u+jLX7Rjn16rWvfa0kiScj236U92i5Z5Zlly5dKhaL1Wq1VCrJi8p3l0ajsb+/32g0tNYj7h+H/CYgfXXvvPPOc+fOfe973ysUCoeMLx+4pdPpBEFAu9RjIGv4d3/3d7/whS/Ip9GsRzQ5rXW9Xu90Ovm+/cQTT7ALAcAJJleUsdYWi8XDz1lxDOTa1a9+9at/6Zd+aW1tbdyPaZnBPvPMM//f//f/Pfvss77vL+J5Bjnn3O7ubvdK+PrXv87UBQBOMOdcq9WSaxDMeiy4CakHGmOiKPqZn/mZf/yP//EEW02mLp/+9Kc/9rGPSUl3cY/WyBXxpPaY3/hXf/VXMxwSAOBIUXJZOFpr3/fvvPPOX/3VX11dXZ2g5CLHtn/zN3/zG9/4RhAEC11y0Vrv7e11X3+ao0UAcLJprRuNRqFQ6Hvleswhz/M8z/uJn/iJ97znPZOVXIwxjz/++G//9m/v7e0tdIazb8nlq1/96uxGBAA4ctbadrvN0aJFobU2xmxubv6rf/Wv7rvvvsmmLp1O57d/+7cfffRRKeAcxTiPByUXALjVyJdWrbVcoGHWw8HNSTPMN77xjb/4i79YKBQUoeKbMcYUCoVGoyHJweF3ds71pg4lutgbbZVmoYdPHY4ysPye1tpLly4VCoVarTY/qcMLFy7cdttt3/nOd44iddg3FTzcGNNxOXusVCr5vi97yZDRKKWstX1fYe/FgOVidefOnVtZWUnTdOLjstbaKIpqtdru7u5NA8R5w9w4jq9cuSI/y1HhTqfjnJORBEEw6AV201qnaVosFg95PoG1tlQq3X777d/5zncmXojo3l+lBVaxWKxUKnyAHTXJ93/yk5/89Kc/LRcuWuh1LlmXvGMqAODE4yzJRaS1/upXv/pbv/Vb/+E//Ae5AM9YD280Gv/7f//vq1evrq+v51f0WVAyB17olwAAGItzrlAocKrBYrHW/t7v/d7Kyspb3vIWa+3ofcPkzl/72td+//d/f2VlZW1tbaHnq1KVXuhsLQBgLJRcFtTTTz/93/7bf/tP/+k/lUqlsR4oJ5f8xm/8xre//e2NjY1FL7nIUfa8fQcA4MTTWodhSDB1sTjnPvrRj/q+/0//6T8da8IpJZe/+7u/+83f/M0gCCi5AAAWDsHURbS1tfXrv/7r/+W//JeVlZWxNpycFvLHf/zHf/M3f3P69GlKLgCAxUIwdUF99rOfDcPwX//rf01X85tyzpXLZd/39/b2Jk4d9l55RIJ+m5uba2trh08dLi0t7ezsjJI6lDJpkiTTSh0WCoXDpw4LhcLtt9/+rW99a+KFiN7UYRRFpVJp3Dn22NeJMcbINh5+wrc0ye37Vycr/YA0TS9cuFAsFifuqKtubKeNjQ3n3P7+/iiBY8lSSyXdOddut5VSMgC5/t8oa1OeNwiCM2fOTDbyA+68886HH354up80clkgz/MOkw7HKCSa//DDD6+srMhfwaxHdCjyt9y3+zEA4ESSd35rrfx/1sPBqNbX15944olnn332rrvustaO+MEt0/VvfOMbly5dWl9fT5LkqMd51OT6SYs+AQMAjE7e+XnzXyzGmFqt9ulPf/of/IN/MG61QUouxWLxBNS45AKKlFwA4NZByWVBLS0tPf3001/84hd//Md/PMuy0a+pYYz5zne+89RTT21sbJyAkgtHiwDgVpO/86vRTpvBPNBaLy8vf+ITn/ixH/uxlZWV0R8om/hzn/tclmWVSoWSCwBg4cg7P0eLFku1Wr127dqXv/zld7zjHWPVyjzPazQaf/VXf7W2tkbJBQCwcOSdPw9bzXo4GNXGxsZf//Vf/+zP/qxcU4MP7uEkwKmOJnVYKpUOmTrMsky6+IyeOpRXdPjUoe/7Z8+enUr3nTvvvPMoLiko+cpxj2WPtzGcc61WS/rMHri99859K5XSfbHv7XfcccdYg+lLyounTp2qVqsj9njMG1pKdFPa8sqWHnH/SJIkDMOzZ8/2NgueYPxZlt12220SMj7Mog6MxBjTaDTq9TofYEdKVu+1a9fkzY61DQAAjofEcr773e8qpcadRn73u9/1fZ+TYgEAwPGw1vq+v7W1deDiiDfl+36api+++GIQBExdAADA8ciyLIqip556aoLHPvfcc5RcAADAsZFL87daLTlaNDq5/tfVq1fDMJQ0MgAAwFHLssz3/aefflopNW6049KlS7QYBQAAx0la3T777LOKi7iNoNls1uv1Azf2XW99rzOite6bO9VaX7hwYSojlNRhrVbrdDqj9wFSh0gdSi/Mc+fOTSV1mKbp+fPnp5s6lNJis9lsNBrjjnCMYKrWWp5Drgd802fqfYUy0N71mKbp2tra3XffnSTJxMHlA0996tQpafo01nePEXeLnKRSq9Xq+fPnp5Ja1lrHcXz69Ok777xz3MEPkYfI9/f39/b2+D52dGQf2N3dbbVaU9mZAQAARjTuVPbwDwQAAJjYxNMP5i0AAOCYTTz92Nramu5IAAAAbmqCqYsxJk3TnZ2d0ZvDAwAAHN7EJ6tcv359xMZFAAAA08J5tqMwxkhmTbqDTpY6zNuTdt+epunKysqrXvWqNE2nlTrc2Ng4depU33DsEJOlDsvl8m233Tat1GGaphsbG3fdddd0Z8USCZZupmM9cNTtIZ080zSNoqi3lUHvqnHO9e2YKsng3iWXSqVKpTLFawZnWbaysrKxsTHFeOcBsjmr1erp06enOHLnXBAES0tL0qR70FPnv+r+uXdR3f/0PC+KoiRJ4jgmM3mkjDF86QUAAAAAAAAAALhljdUcHgAAYIa01qRSAQDAoug9ER0AAAAzJwm7OI7DMBwxdZhlWe9y+qYOrbWlUqlarfZ9yGSyLFteXt7Y2OgbfpwKWSeVSmVzc3OKqUNrbRAEKysr1tqbpg6lz+XoqcMwDLMsG6vt6NgHRK21B564d3ySNe37CnvrmLKLrK6u+r6fpum0vi3I9lteXk6SZGdnJwiC6cbTZflRFJ0+fXqKw86tr68P2T/SNG00GrJfaq2LxWIURYNeYH573jd1in+KAAAAAAAAAAAAAA7gytkAAGCBMHUBAACLgnkLAADAPOtNYA5KHfbt5tg3dZhlmaQOhzSAHFeeOkzT9Pr162EYTn2emWVZGIabm5tHEeJbW1sbkjrMsqxer0sC1BgzVupQHh4EwYgjGSOYKgnSEUO6g7rT9r02sLV2bW0tDMPpdjeVjrdra2vtdjuO495mvochsVvZP6aeStVab2xsDPpVHMd7e3vdr0XaHPe+QPln741Tj+kCAAAAAAAAAAAAAAAAAAAAAAAAAG4pkmkc0sOz9/5jpQ5XV1ejKGo0GkeUOmy3277vTzdq55w7olSqUmpjY6PvquhNHWZZlqap53m9L7Bv6jDLslKpNPqqGLWzqmRkC4VCmqZTXynGmPPnzx9FVFLW8urq6nTHLMHopaWlqe92+cI3NzfL5XLfYbdarTyFLJxznU7npkt2ziVJUiqVjmLYAAAAAAAAAAAAAAAAAAAAAAAAAIBbijFGcnBTTx1qrc+fPz/dZeZLds6trq6O2MVz9MVK6vAo+kpKR9PTp0/L2u6Npx4mdRjHcaFQGCt1OGowVZ6gVCotLy+Pcucsy8Zad4VCYfQ7jyXLsmKxWCwWp9ja1Dnned7S0tJRtEuV5Ydh2NuAWA0OhY/yd2utXVlZqVQqpFIBAAAAAAAAAAAAAAAAAAAAAAAAAIfknCuXy2tra5KEHH5na+38pA4LhUKpVJpu6lBrfQypw951OHHqUBre1mq1sdqlqrGCqepGA9LuHwbpmxU2xvRNzUonz7FGMjoZaqVSmVbkWrLFxWLxSPuODsqIS1h5ggXKo6Tz7WEHBwAAAAAAAAAAAAAAAAAAAAAAAADAjcibxDKH33NQ6rBvi9FFTB2WSqWjaJeam3rqMGeMOcJgaqvV2tvb675llBzzEBKoLRaLp06dstYeRQ5Y3ej1esihdrPWSgL4KAYs66Rara6srEw3b22M2d3dPbAFAQAAAAAAAAAAAAAAAAAAAAAAAACYgNa62Wxub28fuPGQUb48dXhE3UeVUs65YrE43dRhsVg8utRhlmXVanV1dfWQ66T79UrqcH9/v16vj7UQf8T7SVqy2Wx6njdK+HX0jSGru1ar9Y07T4VzzvM8aXB6+I0qCwnD8OiCy7JOKpXKdNeJ1trzvHq97vt+sVg8uhWOiR3Ru+S4xt2352TYAICp0C836+Hcco5uhjl187N7jLXS8qsxHd14AADHjEnLDC3QR+qc7CSUXADgVkbJZYakFMDUZVxMXQDgVsa8ZbaYt0xg3KNFRzcSAMDxY94yW0xdxkXJBQBuZZRcZmuB5i0LKsuyvb09z/M8z7vpnUffHM65KIqWlpaOJ3U4br/QvkvTWkdRdKSpw0KhUK1Wp5469H2/1WrJ+EdsITtGMDWOY631YVbxoHdP59xRhySNMZ7nJUkylXdwWdeHX84QR7ROJJuaJEmxWJz6wnFI0l16HiYZnueNNYxOp3N0gwEAHDOtdZIk1lpjDJexOH6+7xtjZj2KkaRpaq2d+dRF5rej3z9JkqO7ZhIA4PjJV+lOp0Pt+PhprYMgmPUoRpUkyayH8FIVe6zJHiUXADhJKLnM1oiHwOeBtXZOahdjHQy11s7JQS4AwFTk5wh5nkfV5fgFQbAon6ppms58D5HzBTlaBAC3MvlOytGimVigo0ULWnJxzsVxfHSDAQAcs7zkoghJzsIClVwWkTGm0+kcXepwxJDkZOSUHknbTWWBi5s6VEp5npemaRRFI97/qF5n372Bt845wYaYQ1rrTqfTbDZnnkWx1lYqlRF7Amut0zSVqxocw9gOPHWSJIVCYcgaazabR/1u3kv6YiulCoXCoPvIJQRmsq3TNC2VSn1/JTvhk08+ecz1F9mLarXaq171qiF3++Y3v1mv14/5wKfMMF796lf3LZ/Jb69fv/7tb39bLo9xbAOT3ezuu+9eWVkZtL2SJPnGN74xk61ZrVbvueeeIXf71re+tbe3d8wrTbbXfffd1/fqI8453/efffbZS5cuHf/WTNP07rvvXl1dHbS92u22Uuo43zSstd/5znfa7fbMP5VuNc657/u+71teXk7TdP6//TYajXkIpiqllpaWRryn1rper2dZdvz7tnwDHHJ1mDRN4zgOguD45+ppmhaLxSHf51ut1kzmVGmaep4XhmHfUfm+f+nSpWeffXYm79sXLlzY3Nzs/VOVj5v9/f1vfvObx/zXIQNbX1+/6667Bn2gZFn25JNP5sXNYyM7/7333tv3T0+25uXLl5955plj3prinnvuKZfLvW9ocjJTo9F46qmnZrI1V1dX77777kFb01r75JNPHv+HtVxr7b777hv0vMf8piF/dC+88MLW1tZM9p9bluylS0tLDzzwwPyvdhnt/v7+zCe38hdUKpUWouQSBMGQU0nmtuSSJIkMfiZzqkElFzGflQ3f95955pnLly/P1Xfh2ZZc0jQ9e/bsbbfd1vd72dwW0GZY2ZjnAlqappubmxcuXBj0LfuY3zTkfezb3/728c/Jb3Hy0fbKV77ywoUL85+c1Fq32+1OpzMPU5darTbiX658e5LvAvNW2ZjV9EB2vDAMB82a5NvTTAY2vOTieV69Xp/Vd+E77rjj9OnTg963syx76qmn5u27sKy0b3/729evX5+3ysY8F9BmuJutra294hWv6Dudk7E9/fTTV69ePeaVdtOSi1Kq2WyOe4Hpicmq2NnZeeaZZwimHjNZ+Q899FCxWFyIq5nU6/VZD+GllVar1UbfV/f29tSxNx9b3JNJ1KznVMNPDXrqqacajcbxl1x837/vvvvm7buwUspaO+RkkrmtbIhvfvOb+/v781bZoIDWd2Bnzpy5/fbbB03drbXtdvvY3jRkbTzzzDPb29scLTpO8i596tSp1772tfN/lsuCllxkJR//iXZi+PRgPisb4ji/PXUbcmoQJ5P0JavrvvvuG5Q6mduTSea2sqHm9WQSWWnf+c53rl27dvxb0zl377339t2a4pjfNCSY+u1vf3tOLpdw61i4ksut4MSnDm+dv/FRzx+ST3eZM0197RxDTW26l7pxzsm8dipL6+uI1olswUW5QNEtyBgz8++9E/B9fyZfL51zYRgOWWOS7jjOUamuP95Brbfli8GsjiVorQd9IZfr9B//lUFlhVhrhzcrz7JM+gkcc/XZORcEwZAoo+/7SZLIPY9tYHLIyvf9KIoGnSWplErT9JirfrI1sywbsjW11rKnHfNKyz8Boyjq/UYhG1opFcfx8W/NNE2Hb005QnnMwdQ0TZMkWcRPpYW2WF+o9JitSo9oDOPWCOSjcFbV5yHTA/kgnkmIQik1ZJ045+RUg2MektZa9rFBn8Jy9bKZvG/L22MURcaYvif8tVqt4z/XWQbmnBvygSJzg+Mfm+zbg6buM9yaQqYHg47odzqdmWxN6TMwfHowkw9ra63v+2EYDjrL55jfNOSPTil1/NPLW1w+85/1QMZAyWV08rYThuGQy5bNbclFfpjJnGpIyUXdeOuew8rGfH4Xlrd3Y8xMSi5yAdS+kz01xwW0GW7NeS6gDd+ax/+mIe9jM5mT3+Lyr0uzHsioZFdZuKmL1joIglmdATyosiHlBXmbmtVhrEFPnX97Ov6BDS+5+L7fbrdnVdkYVHJRL69szNV34fw8ill9M5U5Vd/KxmwLaFrrIQW0We1mw0suM9yaNy25yFo9zmBqPic/5m8xWLgalz5cE4wpDmOs+xtjZnLJrQU9mWSGJZd8TjUkdzqrkosaXECbYWVD3fhMGfRhN7eVDdVVQJu3ygYFtN6B3bTkIoexjjOYOts5+S1LdgaOFh2DmRwtEkMOfMxnZUMd+7enbm7wqUGOk0n6yU8mGRRMmtuTSea2sjG3J5PM9sNanr3v1lSzeNPIT6ImmHrMmCgeA3krkB+mvnsf9RnL8rc53dRhkiSjNx2dwNEVkay1Q+aBvcYLphaLxU6nk2VZvkWdc4dc78aYOI739vbW1tYOs5wh5FO2e9iHXJpzLk3TQqFwRO9NxphWq1Wv1w+/l3S/gcqfd6lUKhQKpPwxRe6GeXveWU0g5EmHPHt+h2Md1o2nHjIqeUsXxzak/OmGb6/jH1j+vIP2tPz24x9YfjLN8A06q62Zj+2m9zy2geVPOnxrzmRgI25NdbxvGjPZf7CIDv9d4PADOLZHHZLrMtkdjnpsw387bytt5u/basB6m/n0YNDA8uHN5O19+PRghluzewBszbHGNuSd4ZjfNGa+/9yymCsem9lOD246dTnmUanRSi7zOadSc1zZUPP3XXjmA1ODN2j39OD4Sy43HZia15LLPM+pjn/2wsfo8WOFH5v5/BSe+fRg+Fv3vA1s/t+35/C78Gw/hdXgP70ZDmz41pzn3WzmK23428IxT1pmu2Pf4hZunR//Z1nvACZYaTMZtlvMk0nUvE5dBCWX0QeWj20OKxvdd5urlTa304OZD0zd7N3sON80mLrMCmWuYzPbT+Hhv53P6cFMRqWGDiy/fW7ft2dbchk0qtm+vbM1JxjbHE5dugcwP28as9pMYIUfA9/3K5VKs9nMsixPw7lDn2mstY7jeHd3d2NjYxrD7P8Ueerw8O8J8paYJMmRpg7b7fb+/v4hU4f65Sd2StIwDMO+ncAGGePyb865UqkUhuH29nb30A+zizjnjDHNZvPKlSuveMUrDr/D9aW1brfbEr+eykbVWrdarWq1ehQDlnWyv7+/vb19+H26+4PcWru0tFQulxfrGkUAAGAEWk06J3FO9esmYF7672gcbv6knRptguS4EgcAAHPpEHOMl09dnFOma95yVIcKtNKHWfgIj9TK2aMbPwAAOIQplly0Uu7G1OWojnxTcgEA4NY2ranLQpRcRpm6aKWsmnVsEgAA9Ld4R4sOhaNFAAAssukeLZJ5i1vko0VaKcfRIvRyzpXL5SiKrl692h2FO2TszhjTaDSuXLlyzz33HF3qsNPpTDd12G63a7XaEaUOfd+/fv369evXp546rFQqxWIxSZLRlzBGMFWez/M8Y8x0V43WOgiCaS3tABlqvV6f1oBlJTSbzaPoL5zzPM/zvDRND9xurR3Ue334AmU9hGE4k8vAAACAo6SNS102xhSwm6d7vkZa6+K6i5vu0M3bB8kmnY/IGQpG3fyrs1ZaBcVDHxoAAABTppXSWWuy6oTWSndVwJ1zng1U0nDxvrPTKQv24VSmDnWapLn5fMRpr6BMwNkGAADMGa1dqqZUctFaO5u5uO7i9tGdajBxyUVodfOhaaVVUDrU0wAAgKNhbMdNekZg99RFSi46bbh4302jRUB/hyi5jHq0yDnthcqLKLkAADBvtHI6bU72CX2gdnHjaFH96I4WaaXsqFfzGrgEo0dIePhFpT2mLgAAzBltXOKyg7meEfUeLTK24+J9l2VzeLRojBN0tVF+ccKnwYkmnRqlD+ctnjpsNBrHkDrsvf0wqUOllERzh3Q17zVGMFW637ZaLdlRRn/gKNrt9nQXmDPGxHHcbDaDIJjWd05ZZr1er9VqfTfYIcmqHquvqe+PtCmvX79eLpdLpRLxVAAATgantO/irejCzsr3+y7u2/10uGZqjTtYtm899GNZltmjmA07lWpXDiafTGql2pmzmTMDh+e09pKkET3+u17acUd5RUwAADAWrVysw2dP/XhgIqvs6FMNp5RRum1tljlP6fyjXWvduLdh72gnR1PFs84ZTxU8c5jJRCOxvtODpmna2cwv6L/7k+jqE84v0MQDAIA5ISWXK4U7dpffMFnJpZFar6vkopVyzrXf8GP2iE41mEbJJXGunbhA6wEzEqe1l8T16PHf9bKYkgsAAPNEa5d8d+WHVfGMsmNfViNzqpXa4OUll7jcyVbrR3Ko6KWSiy54g2YdN6eVamXWZWrg0SJnlV9ML3+l+PT/U0GJJh4AAMwJp7Tn0oZXe2Hjp8LeC6nf5LHKKN2y1maqO76pta6/5q22Ex/F0SKtVKJs0TfewILJzZfglGokma8G1m20c5nnmyf/INx9zvkhR4sAAJgTTmnfdi6WX92svcZznXGPFjmlmj1HizJrkx/4h84dScdU55Q1ruxPfpaLVqqZWTW05KK9MGm8WHjiA0eXuMOCkijc/v7+wqUOkyRpNBpTTx3u7+8vLS0daepw9CWPkjrUWu/t7RUKhSiKRh/MqMFUacm6v7+vte6bqe3mnIuiqLunqLR2rVQq0m31wP2ttc8999zogx6d5IyvXbs29cVK39tyuXxETXUvXbrUaDRKpZK1UyuOy8rf3d2Nomjqf+QAAGBGtHZpO1wpnHpT0bXs4Cr2gAernXocpQe/Qq6u3GS+NzmnWp69vRpOduKiVSrQ+nIniVsuGlD0d8p5JthtXes88QGP8yMBAJgnWrlYGb3yfbVCNXXZwLBmD6eUr3Wnk8QtW9J/X0B3ylVqXvVoKt1aqY5zYVFtRmHi3ISVFK2e3Y+LmRkSTE2i6vWLX1ZXvqpUkXQHAABzQ2uXdoLVwuk3Fe0kJZftelzoKrnIZ/zcllyUUkbr/Sy7tp+Wtel7aEpKLjutrfiJ36fkAgDAfNHKWptWX7Wydr9Lx2vPbpRqWrtTT0P1spJLqM3GxpGcWHKj5KI3o2CykoscLXqhHbu2GnhNDZfpwvKVpOG+/aej16AAAMAxkMuY+utvqPleNs5p33K0qNmO07byuiY8TrlqzasdzdEio9S+ys5Ug+KAgslNaaVS5Z7bjyvOG/RqjXJtL9x5+v8p912l6PcOAMDc0Fq5tFPYLJ1+U5A1nR6vjOGU2q63S5mvuo4WGaXWVo/qaJF1Kgns7eXQHuIE3efbsRpccnHOen7x+vWn7BO/76vJLzqGE8k5t7OzM0oq1TkXhqHneXm0cnjq0Dl3pKnDK1euTH2xvu9vb28fUerQ87zLly83Go1isTj11KFkdEdvmjpGx1RZ4oiBRmNMtVqt1+vyCoMgKBQKhUKh77C01q1Wa+o9amVD7uzsTDe4LIwxaZpubW1tbm6O1dp0RM1ms/dGyTSPtaIOvGrZS5Ikme7OBwAAZkobl7q0qV1Lj3+WpG9jYw8GU930Zzf5opXzbNoJJquiO6W01q6Tuti5wcFUZ3wV16nUAwAwh7RSJmvp1NPjBFOVUlprkyW+taar0K+VcplyyqmjOb/QOeeMSlWQuUnbamjl4sQNDqYqZ52yyiZH9BIAAMAh3Ci52JNfclFKGa1tlrk4c7r/hbS7Si4AAGAeGdvRaVONGUzVSmlrfZsa9fKSy1j9y8bknHNGp8qfrORy42hR4mI16GiRcpnSWqUdSi4AAMwhrZxJm1p5eszTerXWJot9q0zXHOBIjxY5pZTKbMdPDxFMzZRTceIGB1Odcs4LlMuYugAAMH+0cYlOmzprqjGDqUop33aM9V72Ce+O8GiRc8o5m/rBZMHUvOSiBpdcnLPOJippHG6kOJmstaP3SpXU4f7+fp46jKKoWCwOSR1OvfWopA53d3fr9frRpQ7PnDlznKnDJEkOmTq01iZJMnrT1DGCqWOR+PLy8rK8Hmmy2ncjSVT30qVLnU6nb7J54gHI/nH16tWp7x/58uv1+osvvnjq1Knphjydc88///yg1dV74yhtbPN7kkcFAOAk0kobpeS/8R7n+j7qSAvdWmk9+QWftNZKW6Xd4PMqnNLeBCUAAABwTLRR2qhxzw/QWr2Ukfj7T3mnjvoAvZOpi1ZuwufRSulM6cHBVKWU9jjPAACAeaVvTF1ukZKLUtoNLqpQcgEAYM7dmLqMe3pWz9TlWEou+jAlF6210pnS6mZHiyi5AAAwr/7+aNFYj8qPFnV3TD2GqYuntZlw3iKzLZ0NrS85jhYBADDH8pLL2IdI+hwtOuoP/JfOcpn00TcvuSiOFmEqnHNBEIyYOvR9//Lly51Ox/O8qacOt7a2fN8/otRho9G4fPny6dOnpx7le/755/suc1Dq0PdHDZCOuypGfTuQNRKGYZZlvc/RN0rrnJOhS9x00MgkmFqv1+v1+ojB6BFHu7u7e+XKlaNIpebPEgTB/v7+lStXpjVydSOgvL293XeZaZr2DsMYM+JfV5IkYRhGUUQ8FQAAAAAAAAAAAAAAAAAAAAAAAABwGL7vFwqFNE0PpNskXdh7/zx1KIG4IalDY0y9Xt/f35966nBraysIgqkss++zBEEgHTFH7EY5Cq11mqbXr18/itRhmqa+74+VOhxjk1hry+VyFEXSdXPEvq6jjNvzvO3t7RdeeMH3/cMHJrv3jzAMjyiVmj9Xnk2d1l7i+76sjSAIDqwN51ySJL0PMcbcdHPIX2mxWFxZWZlu82IAAAAAAAAAAAAAAAAAAAAAAAAAwC3IWlutVkul0ripw5vm/jzP293dff7553tzdhPo7oV5FL1SDzyXZFMvX748rVSt7/s7OzvPP/98bwbTOdcbTFVKaa1HSR1aa6MoqtVqY6UOx3tVWuulpaVarWa7ZFk21kL6LjbLsu9973uHX8uT7R/6BnUjcj3KSs+fUbKpL7744rTGf/Hixb29vQNJV/nL7PvH6Xle7435/a21sm+Vy+XV1VWt9ZH+2QAAAAAAAAAAAAAAAAAAAAAAAAAAbhFa65WVlZWVFftyh1+spA6n0qZxgl6ph08d1uv1K1euTCt1eOnSpb29Pd/3DwxSwoO9A/N9/6apwyzLSqXS8vLyuKlD/+Z36XkNB36YCt/3n3rqqVardZi17JyTGPSVK1dG7JUq6ytJErmzJDzjOJZfeZ5njLnpcmQv2dvbM8ZsbGz03YqjvwSt9ZNPPpmmaRRFB546y7K+wdQDO9MgRFIBAAAAAAAAAAAAAAAAAAAAAAAAANOVx1Cnnjr85je/2Ww2D5863Nvbm1XqUGt96tSpqaQOkyTpfQmHSR3KkifYauMFU7XWzWazXq8feO5xn/UAa63v+1euXLl27drp06eTJJlsFUta99q1a6P3SpXnKpfLlUrF933f940xSZJYa+v1eqPRiONYbhy+QOdcGIa7u7vlcrlYLE6c5zbGtNvtZ5555kC71Hy0fR/V987q5SliY8zOzk6SJLVabbKxAQAAAAAAAAAAAAAAAAAAAAAAAADQTVKHu7u73TdOK3W4tbW1tbV19uzZ+UkdNpvNsVKHe3t75XK5VCodJnXY6XTGTR0OSvMeSB3u7e0lSVIul8ca0njBVOdcvV7vHdDEudic53n1ev2pp546f/58HMcTZ39l29z04dLG1zm3tLS0vLwcBIFzTsYvG1trXSqVsizb29vb2dlJ03TE3a5er5dKJVkhEww+iqLvfve7Fy9eDMOwdz9L07T3UcYYz/P6jq37Roli7+/vF4vFEYPdAAAAAAAAAAAAAAAAAAAAAAAAAAAM4ZyTvqC9kbrDpw4bjcZTTz114cKFQ6YOJYQ5/G4SYc2yrFarLS8vSwpvWqnDcrl8mNThs88++9xzzx1F6tD3/UajEYZhEASjj2rsDrZ9X/nhU46yTp944onDdKRVN1K8w8ejtZZNfu7cuY2NDc/z0jSVfSvfS6y1sj1WVlZuu+22Uqk0SqLaOTfx/iGCIHjyySdbrVbvXi5DOrBk6SPcG3QeNADpGjzZ2AAAAAAAAAAAAAAAAAAAAAAAAAAAOKBvZm3iBqG5PHU4cbtUMWLqMMsyz/POnTt36tQp3/cXJXXY2zF1SOqw70qYIHU4RjBVMsFRFFlre+ORYz1r34VHUfSd73zne9/73sT9PGWEa2trQ9KtkkoNguDcuXNRFKVpOmiLyo2yqDNnzlSr1SF7idY6SZJarSaJ5wkGr5TyPG93d/fRRx+VDq4Hlt/pdPr+KUZR1HdpB+4sO43v+70LBwAAAAAAAAAAAAAAAAAAAAAAAABgAsaYQqHQmzqcSjA1iqLvfve73/3ud6MoOurUoe/7Z8+eLRQKo6cOa7XaTVOH1Wq1XC4fJnW4t7f3yCOPDEkd9g4giqJRsqbSJNbzvCAIxtpeYwRTJdlYKpWUUkmSZFnmbjj8LqKUMsY0Go3HH398xPa1fUeYZdnS0tLGxkYcx33vkKdS5c43XblyhyzLTp8+Xa1W+zb8lf2jUqmcOnWq71YchbU2DMPvfve7Fy9e7JsdHfSKfN/vu8ADGyhJkjRNq9UqHVMBAAAAAAAAAAAAAAAAAAAAAAAAAFPhnKtUKlrrOI67Q21Taa9ojGk2m1//+tcPkzq01g5PHWZZFgTB2bNnjTFjpQ5PnTpVq9WGpw5Pnz59yNThM88888ILL4yeOlRKjZU6LJfLR9gxVSklLTdXVlZWV1eDIMgHYa0dJZuqu/RdeBAEX/va1/b393u7xI5IoqfLy8unTp2S4eXPdSCVOm7rW9lLlpeXD3S2PbB/TDbsfFGPPPJI350sTdPeQLZ01B30F9W9f2itV1dXNzY2JHp+mEECAAAAAAAAAAAAAAAAAAAAAAAAACAk5ra+vr6+vh6GobQGnWLqMAzDr3/967u7uxOnDpVSkjo8ffp039Sh9Eo1xkyWOlxZWTm61KFS6pFHHukbl82yrG/q0Pd9z/P6pg6ttd3NSldXV9fW1qIoGjc6O14wVd2Ij5bL5XK53L2Wb/rEkhtOkqTVavXtTit9dZ999tm//du/PUx+UnaFpaWlc+fOWWtljfemUidYsuwlGxsbspfIYuM4Pvz+kfcUfuSRR2QrHnhFSZL0XX4QBH1Xe35nebFRFFUqlYm7FQMAAAAAAAAAAAAAAAAAAAAAAAAA0FeeOiyVSt0RtqmkDsMwfP755//mb/7m8KnDWq127tw559yB1GGeSp1gyWmabmxsnDp1Kk1TSVxON3X47LPPfuUrX+mbOozjuO/yfd83pk90tPvOsvByuRyG4QRjGzuYKk+ZpqlsZlnXN416aq0bjcb29vbOzk69Xpf/912y7/uf//znpWnqxClK2SGiKDp37pzv+3Ecx3FcLBbPnj0rjXcnXmySJEtLS5ubm865TqeTJMna2trhU8vOOWPM5z73uXa73Zvbds612+2+D+y71eU1dq+9LMviOCaVCgAAAAAAAAAAAAAAAAAAAAAAAACYuslSh81mszt1uL+/33fJQRB8/vOf39vbm0rq8OzZswdSh8aYQ6YOa7Xa6dOnlVKSOlxdXT116tThU4ee5z388MONRmO6qUMJAEvqcLKxTdIxVWt9/fr1vb297tSs9NXtG1+W/aPRaKiuvrp9E8ySsn3++ee/8pWvFIvFw6x3iUqHYXj+/PlTp06dOXPmzJkzsiuP1VK2d7FpmlYqlfPnz29sbJw7d251dfWQ+4e1tlAoPPPMM48++mhvaFuesbfTroR4gyDo/UOSRrpyf4m8djqdK1euHL7nLwAAAAAAAAAAAAAAAAAAAAAAAAAAB0yQOmy1WtL/Mk8dttvtvqnDMAxfeOGFv/mbvzmK1KH0Sp1u6nBtbe2QbSattXm71L6pwyzL+qYOPc8Lw3CU1GEcxxOnDscOpkouttPpBEFw4FeDRiDR297er61Wq++dfd//7Gc/u7293Td1OdZQnXPOuaWlpXK5PK1Ypmwzz/NWVlaiKErT9PALVEp98pOf7LuWlFLtdrvveigUCr27e/6qu2/0PM9a27ufAQAAAAAAAAAAAAAAAAAAAAAAAABwSH1Th5JG7Ht/51yr1erN0zWbzb53DoLgc5/73LVr16aeOjxkgjRfrLXWGDPF1KHW+lOf+lSr1eptl6qmlzpM03SC1OEkHVONMb7vH0gqD++r2/srrbX0uh3UNPVTn/pUFEVTSZOmaTrdZqHyYtM0PWQSWillrS0Wi4899tjf/u3f9sa1JSrd6XR6n8UYE0VR33XeGyKXoPMh/+QAAAAAAAAAAAAAAAAAAAAAAAAAAOjVN3Wo+kULh9BaJ0kyKHV48eLFT37yk73tQycz9dRhvthppQ4ff/zxL3/5y31Th1mWtdvtvqnDQqEwKHV44JbDpA7HDqbK4Gq1mnR67X7KQX11tdblcrnv4Po2Tc2yrFQqPfzww08//XSxWDx8lvKI2oROZbHGmEaj8Sd/8id9U8tKqVar1bdtbhiGfdurSkfdA/9M07RYLPa9PwAAAAAAAAAAAAAAAAAAAAAAAAAAh1Sr1ay1vanDLMv6pg5LpVLf8GDfpqmSOvyLv/iLb33rW7dC6rDZbH7sYx8btLTJUof50g6kDo8jmCpp2mKxuLS0VCgUfN/P87uD+uo65/J7HlhU36apSiljTLvd/tM//dOT3eEzy7JyufzZz372ueeeC8Ow98UOapeqtS4UCr0LlE3QvRxjTLFYLJfL8lc99ZcAAAAAAAAAAAAAAAAAAAAAAAAAALjFSYqwVqv1pg77hgTl/r3tOgc1TVVKGWPiOP6zP/uzkx2Uyxt/PvPMM1EU9U0d9m2XqpSKoqj3RtkE3cvRWkvqsFqtThbhnLCFprV2aWlpY2ND4o4ShnTOSZ/Zvg8plUp9b282m70PkVazX//61z/xiU+Uy+UsyyYb5zyz1pbL5a9//ev/7//9v74Rba31oOByEASDOuTKuso3R6lU2tjYWFtbO6JXAQAAAAAAAAAAAAAAAAAAAAAAAACAc05Sh0tLS92pwwM9VLsVi8W+tw9JHT7xxBN//ud/frJTh9/4xjc+/vGPFwqFsVKHYRj2bZ+plErTVPVLHUpmdYIurxMGU5VSWZZlWSbx5XwXkb2kdxzyqgbFl/vGcyXx/Gd/9mePP/54uVw+YSFmCZdub29/4AMfSNO0N/Yta6Zvu1Q14O9N2qXKX6mQdsaypY7qlQAAAAAAAAAAAAAAAAAAAAAAAAAAoJQE3KQVap46tNZKhu7AnZ1zURSNlTq01hYKhY9//OOPPfbYSU0d7uzsfOADH0iSxBhzFKlDpdThU4eTB1MlS3nlypXufUJrPahpqnR37Xt7s9nsuwcYY7Is+8AHPnD9+vVBDUIXkbwQY8yHPvShy5cv9w0uO+fq9Xrfx0ZRNCS4fGCXunLlShzHxky+oQEAAAAAAAAAAAAAAAAAAAAAAAAAGIWkDpMk6U4djts0VVKHfZOTEtf84Ac/eO3aNYm/TnHwM+d53h/+4R9evHjx6FKHxpitrS1JHU6c2Zwwr+icM8bEcdxutw+EHoc3TfV9v28L3UajMSi+fPny5Q996EOe5x3mdc4V51ylUvnEJz7xla98pVKp9P55aK0bjYa0x+39Vblc7tuBV4LL3TcaY5IkaTabvR1ZAQAAAAAAAAAAAAAAAAAAAAAAAACYImnp2Wq1DqQFh6cO+3a1HJI6jKJoa2vrAx/4gDHG87yTEZ2z1lYqlU996lNf/vKXy+Vy39Rhs9k8fOpQtlHfdTu6CYOpEnT0fb93s03WNLXdbvdtrZtlWblcfuSRR97//vd7nncCApbW2nK5/IlPfOKP//iPpePtgTsMaTTsnCsWi57n9V1y313KGCPZ6MPsJQAAAAAAAAAAAAAAAAAAAAAAAAAADJenDg/cPlnqsNPp9GZclVJZlpVKpa997Wu/8zu/c5JSh5/+9Kc/8pGPlEql3jawgxK/SinnXKFQmCB1eJgBTxhMVUo554IgKBaLEq3s3nJD4suFQqFvQ1jpEdr3UbJOv/CFL/z+7/9+sVhc6F0ky7Jqtfr5z3/+Qx/6UBRFfe8j7XT7ttn1PK9UKvVdA9Zaa22+9uQ+WZZFUbToKw0AAAAAAAAAAAAAAAAAAAAAAAAAsBB8388bOo6YOoyiKIqivqnDZrM5JHX4xS9+8Xd/93clY7m4GTpJHUqCMgzDvvcZkjo0xoybOgzDUOKvE7fDnDyYKsNaXl6WgKXv+/nQtda9jUBz5XK573Cttfv7+4Nef7Va/cu//MtPfepTlUpFLeZeIq/iySef/MhHPiL7x6A/lTRN+66iQavuwAqXCKsxxhizvLy8iOsKAAAAAAAAAAAAAAAAAAAAAAAAALBwrLVLS0uSOgyCYMTUYalUGjd1KHnOL37xi5/85CfL5bJa2NRhpVL55je/+eEPfzgMw77dX4enDiuVijF9gqJHmjr0D/NgGdypU6ekM+zly5fz2621aZp2p1WFtOItlUqNRuPAWsibyfaN50ru+Q//8A8vXbr07ne/O8uyw+Rxj5lzzjlXqVQ+85nPfOQjH7HWep43KILbbrcHNZsdFPuWtd0dXF5eXi4UChJ3XsQ/JwAAAAAAAAAAAAAAAAAAAAAAAADAIspTh1rry5cv5wG3qacOrbWFQuHDH/7wpUuX3vOe91hrsyzrm9KcT5Kt/dznPvfhD3+475oR1tpOp3PI1KG1dm1tbVqpw+msYmNMEATdzVu11mma9h2cc65YLHZnnXNDkrty50Kh8NnPfvb//J//EwSB7/tDEtLzwzmnta7Vap/85Cd///d/X4LFfdeMbOy+v/I8r1wuD9rYSZJ0p1JlW8gCSaUCAAAAAAAAAAAAAAAAAAAAAAAAAI6ZMcb3/WKxOJXUYXeG7oBCofDwww+///3v930/DMNFSR0655aWlj7zmc/87u/+rrV2UCpVUofSW/QAY8zoqcMwDIvFoppS6nA6wVStdb1er9frMqbcoI2tta5UKn1/5Zzb29vLsmxQ413prvtbv/VbjUajVCrN+V5irQ2CwPO8j3zkI3/0R39UKBSGhInzZri9t5fL5UHtdNM0lb1KFisR8O3t7UVpJwsAAAAAAAAAAAAAAAAAAAAAAAAAOGEkdShNUKeSOuzbEVMpZa2t1Wp//dd//b/+1//a398vl8vznzr0fT8Igo9+9KMf+tCHRkkdep7Xe3ulUhkrdbizszOt1OE0g6nS7VP+n+8ig9qf5lnn3kVlWVav1wetR2ttuVz+27/92//+3//7t771rWq1Ks81lRcyRbIqSqXS9vb2//yf//NjH/tYGIY3DRPLH0/3K5Juwn3b6cpv4zjOV7tEn51z+/v7c7hOAAAAAAAAAAAAAAAAAAAAAAAAAAC3Aq11o9HIsmys1GGpVOqbOrTWDkkdZllWLpcfeeSRX/u1X/vGN74x/6nDvb293/zN3/zoRz86YupQOqN2pw6jKJogddi38+oEphNMVUoVCgXn3IG9QWstL6D3/s65UqkUhmHf1rpxHO/t7cnPvY+11lYqlStXrvz6r//6xz/+8SiKwjCUVTOtl3NI1lrP8yqVymOPPfZrv/Zrjz/++Ii7srTErdVqnufJ/aMokqhq750lptz7K3kUHVMBAAAAAAAAAAAAAAAAAAAAAAAAALMyQeqwWCz2zVtKmO6mqcOrV6/+xm/8xp/92Z/Nc+rw61//+q/92q899thjB5pcDjKt1GEYhn07rE7An8pSZHsbY/K8bL5pJcE8KIBarVZ3dnaGZFNrtVrfZ8yyLIqiLMs+/OEPP/300z/90z99++23t9vtLMumtWomY62V/PH29vbHPvaxz372sxLBHb35r+wWQRDIQ3y//zaS1rLd0XDZpaRpb61Wu2lOGgAAAAAAAAAAAAAAAAAAAAAAAACAo+CcKxQKk6UOt7e3h6cO+6bnJHVorf2///f/Pv300z/zMz9z4cKFTqeTpun8pA7/9E//9DOf+Yy1tlwuj96/dCqpw6WlpWmlDqcWTA2CYHNz89q1a1prrXWn05GxSr7W8zwJ4x54lOd5tVptZ2enN6N8073EWmuMKZVKX/3qV7/5zW++7W1ve8tb3rK8vNxsNuVXU3lpo5Odo1gspmn6hS984eMf//jly5fL5bL8aqxFyXoLgkB+HnSfTqeTrzdrbRiGvu93Op2NjY1CoTCtproAAAAAAAAAAAAAAAAAAAAAAAAAAIzlQOrQGNNqtST3Nzx1aIw5TOpQa10qlb72ta9961vfeutb3/q2t71tHlKHWZZ98Ytf/PjHP37x4sVSqeR53jGkDp1zvu8HQTD11OF0gqnqRiPXzc1NY0ySJJcuXcpfm+RUi8Vi30cFQVCtVvf39wftJdvb27VaLQiC3tcsad1isWit/eM//uPHHnvsx37sx77v+76vXC5L91RJyU7rNfYlY5Cdw1r75JNPfvrTn/7a174WhmGlUjnMdhqSPNZat9vt7i7GWuvV1VXZM7pD5AAAAAAAAAAAAAAAAAAAAAAAAAAAHL88dai1TtP08uXLx5w6/JM/+RNJHT7wwAPlcrnVaklS9DhTh865p5566jOf+cxjjz0WBIGkDiduWzp66lCCu2traxKLnW7qcGrBVHXjJVlrfd/3fT+O4+4AcafTKRQKvS9bGvI65+r1et+9JMuy3d3dSqUSRVHftSaro1qtXrx48bd/+7fvuOOOt7zlLQ888EClUonjOEkSWZXT3Vdkz1BKBUEQhmGapk8++eRnP/vZJ554IsuycrnsnDuidKjEwSV2mw9GgsvyjKRSAQAAAAAAAAAAAAAAAAAAAAAAAAAzJyk8ScD5vt/pdEZPHSqlBmVTR08dvvjii+9///s/97nP5anDJEniOD6e1OFTTz0lqcM0TUul0nGmDq21nucFQZBlmZp26nCawVSllHPO87ydnZ04jg900c2yLEmSIAj67iUSum21Wn33Eufc3t5etVrtu5MJa20Yhlrr55577nd+53c+//nPP/DAA/fdd9/58+eliWuapt1h34lfoCxENokxZmtr66mnnnrsscdk5ygWi2EYHl00VP5m4jjufgmy01y9evXUqVMTR6UBAAAAAAAAAAAAAAAAAAAAAAAAAJguSR3u7u62223f9w+kDuM4DsNwUDY1TdNms9mdZRV56rBSqUhX0r5Pba2VjOjzzz///ve//+GHH37ooYfuvffe2267TVKHWZZJD1U11dTh1atX89RhkiTFYrFvc9dpGZQ6TNP0iFKHUw6mijRNZWPI2swH3el0tNYHdh3hnKtUKs65VqvVu5copbTW+/v7SZJUKpXuZR5YiPT21Vo/88wz3/nOdyqVyr333nv//fe/6lWvWllZCcMwy7I0TbMsO7AECTd339h7B2NMEAS+76dpur+//93vfveJJ5544oknrl69aowpFAoSSR3eDFd+O+glDKe1tta2Wq3e4Tnn0jQdd4EAAAAAAAAAAAAAAAAAAAAAAAAAABw1iYBK/u5A6tAYMyR1qJTqm01VSmmt6/V6mqYjpg6fe+65p59+ulqt3nPPPffff/8999yzsrIiTTenkjqs1+vf+MY3JHW4tbVljImiSCKpR5o6dM612+28X2v3aJMkGXeBo5hyMFVeQ7Va3dvbk9eQx4VFu90uFosHmqkKeaDneY1Go2+2WGvdarVkL+nbeTVfjuwoURSlafqVr3zlK1/5yvLy8ubm5qtf/eo77rhjc3OzUql4nud5nnShVTd26+7n8v2XVo4xRmKfnU7nhRdeeO6555588snnn3/+2rVraZqGYVgul+WVDt85sixrt9tJkkiH2CHdXwfJ9498/eQ/W2trtdpkex4AAAAAAAAAAAAAAAAAAAAAAAAAAEdBUm+VSmVnZ0fyht2pQ6318NRhpVIxxgxJHbbb7XFTh4888sgjjzwiqcP77rvvjjvuOHPmTLlc9n2/O3Vorc1/Vj2pQ6VUkiSdTufixYuSOnzuued6U4dDGqXKqmg2m4dMHbZare5VKqlDiTQeUepw+h1TZfOsr69fu3bNORcEQZqm3S+p1WoN2UvK5bIxZn9/X/VrfWuMSdN0d3e3WCwWi0WJjA4ahqy+UqmklGo2m9/85jeffPLJMAzX1tZkj6lWq2fOnKlUKkmSLC0traysyF5ijGm1WpJIttY+88wz7Xb7hRde2Nvbu3LlSrvdVkpJA98oipxzw1voyqtot9uNRiPLMvnn/v6+7ChjbdFWq5UvQd1oYZymqXNuaWmpWq0eXTNfAAAAAAAAAAAAAAAAAAAAAAAAAAAm0J06tNYeSB0qpQ6TOtRaTzd1KP/vTR222+0rV65I6vDZZ59ttVpznjqs1WpHlDqcfjBV3ejeKTtHpVK5cuVKo9GQfSJfX7Ll+j62UCh4nre3t3eg26qQWxqNRqfTKZVKURQND+zKWpP+qBIgvnr16osvvvjUU0/JHiw3lsvlUqmUd7yN43hvb0+eS5rVGmOkqa6M3N0wfFVorZMkaTabcRxLW978V/V63ff9ISHsA8vp3T+CINjc3Gy1WkopUqkAAAAAAAAAAAAAAAAAAAAAAAAAgPmUpw6TJKlWq1tbW/V6vTuJ2mq1pMto38ceaerQOXft2rU8dej7vqRPS6VSuVw+5tSh53lhGI6YOmy32wdSh77vb25uSlD26FKHRxJMlahnoVCQTbK6utput7tXhLVWEsx9Hy6Ry6Wlpb29ve6V0s0Yk2XZ/v5+u90ul8tBEMgDBw1JfiX/l9hx9+1KqTiOW62WPJdzzhiT36f7zjdNKudrQBrdNhoNee19X0W73ZaR33RpnU6nOwIua3hlZSUIAmn+SyoVAAAsFqO1HeciLgAAALOilTJKWaX6FHcAAADmjFHKKUXNBQAAzD9KLgAAYIFQcgEAAAuEE3Qx/yR1KB1BV1dXW61WdyTQOTdK6nB/f/9At9XcYVKH0oSy+3alVJIk165d6471HU/qMF/48KV1Op0kSXpTh2EYyms5utShufldJuWck1hpp9M58AJk9Umrz0GP9X1fVsGgFy+bIUmSnZ2d/f39LMu6k8HDB2ZvyCPIWmsJecoOJEnrfJ/I73zThUtAOU3TRqOxs7PTbDZVv+7AYsS9rdPpSPT5wK/a7ba1NssyUqkAAGCxaKX201RxqgEAAJh7WqnUuYa1vtbU7AEAwJwzSjWsTZwznCgJAADmGyUXAACwQLTSlFwAAMAC2U/TI4yKAVNy+NTh8vLyTFKHvu8fMnUokdSjTh3Kij3q1OFxvNtIcPnAKxxlL1FK1Wq1QqEwpH2t7CjtdjvfHhNzLzfuw/Nddm9vb2dnp16vW2uH77VRFN10mX33D1mfsvYG7X8AAADz7HqcXotTkqkAAGDeaZ06d7kVN7LMowgDAADmmjNa19PsxU6SKeVxoiQAAJhfTmslJZd6lnlUXAAAwBxzShmt9tPsCiUXAAAw96TKstVJttPMUHLBgrhp6rBvbi5PHUrb1UVMHQ7PyjrnDpk6bDabg3qxTtHRBlO11s65SqWilMqyLM8B561p0zQdnu5VStVqtaWlJd/3hyR05Ymkx+5xBjX1DdZa2U13d3fb7bZSavjO4Zwrl8uSuR2y8Ha7LUvLd1xZjfJDtVollQoAABaRU6pgjGfVi+3EKseEBgAAzC2ZqFSM1+jY63FiaOIBAADmmHPK17rkzFY7aVnrMXUBAABzzClVNV6zY68nKfMWAAAw53yti85caSdt55i6AACAeWaVKhnPJu7FTqIU7WMw10ZMHQ5PV1arVUkdDg/ozTZ16JzrTh0654wxg0aSpw4lcztk4TdNHY7YJPYwjvwJnHPFYvH06dNa6zRNPc+T1LK6kU5O01RivkNWaBiGy8vLpVJpeKpYkr4TxI7Hle8ZaZq2220JK+/v7ydJom7WwtQ5FwRB/nIGLV8p1Wg0Op2O7H/5X1cQBFmWZVm2tra2tLR0pO10AQAAjohWyioVaVNy3rVOmimluaIkAACYY06pmufZVF2PE5+aPQAAmGNOKaN1Tfu7nayZZT4nSgIAgDlmlap5XpaoawklFwAAMNek5LKk/Z1O2rKUXAAAwFyzypWMF1pzNU6cJpuKueacKxQKm5ubh08dDm+dqm4kOWeSOtze3h49dej7/vLycrlcHj7UA6lDCR7mqcPV1dXl5eVjSB36R/0ESqksy8rl8rlz5xqNxtLSUrvdfvHFF/O1I+1GG41GuVz2PK/vWpMbq9VqGIb1ej1N00GZ3aMILncvU7ZTlmVpmiZJkiSJjE32mOHLkYh2qVQqlUqy4Qc9nXOu0Wj0/tmsrq6urKzs7e35vl8qlUilAgCAhWad8rQqOu9qJ1mPAl/pjO6pAABgXmVOlYxppvaaStfCIDv6GiUAAMBknFJKuarx9uJMh6rkeamj5AIAAOZU5lzZmGZqr7p0NfSV40qmAABgTjmlnHIV7e12MkXJBQAAzLdMuVBrbc3VTroe+tJOhqkL5lOWZaVSKU8ddjqdy5cv96YOS6XSoLaocmOlUpmH1KFzTvKGEjy01uY51eHLkVcxcerQObeysrK6urq3t+d5XrlcPp7U4XEEU2UnCIJgdXU1y7JKpdJsNnd2dvIYat4gtFgsBkEwaN1ZayXE3Gq12u22bJsD94miaMja7x5S730ObI/8hzRNsyyz1qZpKqnUfNuMsmfkSwuCoFwuywscsn9Ya5vNZu/+USgUVlZWrLW1Wi3vSgwAALDQnFKeViVnrraT5cgvGJ05vvoCAIA5lSlVMl4rzbZUshr4tHwHAABzyynllKpqby/O0sBVfd9yWQ0AADCndKZcSZtWaq+4ZCMMlFKOEyUBAMAcq9woudR8nyuZAgCA+SRJ1FAbbe1WJ1kN/YATdDGvDqQOy+VyrVbb3t7Ow6USr2s2m8NTh3nr1LlKHQ6KyB4YuTp06jCKotXVVUkdKqWOLXV4HMFUIetaax3HcbPZ7LuRms1mFEWFQmHIXqK1LpfLhUKh3W537yjSrDaKolH2j2az2W63u2/0PC/f2LIfqBt7kvzc/fDRE9IymDAMi8ViGIaqa+frO7AkSVqtlrzMA7/qdDqtVqtQKAxpQAwAALBwnFKe1mXnbbfT5cjjipIAAGBuaaWsckVj2qndsslGFJBNBQAA88wpVdFePc4yly4HfkbJBQAAzCU5UbJovMTaq51kPQo8pbhYOwAAmGdScrEuXQ58znIBAADzSc5yCbRWzlztpGuRHxrD0SLMrTx1mCRJo9Hom5sbPXVYLBbb7Xar1epOHXqeN+SxOa11q9VqtVrdNx5p6jAIgmKxGEWROlzqULK7x5w6PL5gqrqxcq21SZL0fZGyIrIsKxaLxpghO4oxRnaUPMcst9w0uJzvowduP7AfHBjzaK/v4CDVOJFUpVSr1YrjuO8zaq3TNJW/sQkGAwAAMM+cUkarmvZ248yFqkw2FQAAzDGrVMF4nrNbnZeyqZYmHgAAYF45pWrGryfZjkpXApp4AACA+WWV87VWzlzpJKshJ0oCAIC51l1yWabkAgAA5phVyte6qrzrnXQl8iNKLphjkqfLsmxQem701KHWulQqFQqF7tRhpVIZMXVYr9cP3D4PqcN2u93pdIakDmfSCPNYg6nqRmPc1dXVq1evSlZYoqrdDXbTNG00GtJgd0jr2O4cc5qmvu8P2au6Sa/UI1rXMgBjTBiGhULhpjuHGtxIV1aLPDZN01qtVqlU+rYSBgAAWHQyW6pqby/OXKgqZFMBAMAcy68oudVJ1qLA15qqPQAAmFuZcmXjNZLsukpWgsByoiQAAJhXTqlAa+3MtU66yomSAABgvuUll22VLgc+JRcAADC3nFJaqYrytjvpcuQXjLbMXDCvnHNBEKyurm5tbQ1JHdbrdclzLmjqUGsd3aCmlDqsVCozSR0edzBVKWWtXVlZ8Txve3s7CIKNjY1r1651t9mV/HGj0ZBs5/A4suwoYRg650Zpp5tlmXQlneZL6toJfN+XPcPzPDXCzqGUiuO43W4faKTrnCsUCqdPn97b29vb21teXl5ZWZnumAEAAOaNU6qqvf1OlgRuJfBSR/MxAAAwp6xSkk290k7WOFESAADMN6tc2ZhmYrdsvB4FnCcJAADmllXK07rqXjpRsmgMVzIFAABzS0ouDUouAABg7jmltFYV5W2300poar5PyQVzy1q7vLzsed7169eDIFhfX9/e3q7X63kIU8J3zWYzTVNShzNPHc4gmKqUstZK/0+llDFmc3Pz+eefl36y+X201nEcy14SBIEaurpHiSzn9xz9zqMsTSmltQ66yL5+02cxxiRJ0m63JbJ8YP8wxpw5c8bzvNXVVfmLstZOceQAAADzySm1ZPx6km2rbCXwM+Y/AABgXlmlfK1rytvupCuRHxmdcVkNAAAwr6xSJeN1Mnu1k65HvnKKmgsAAJhPTil140TJhBMlAQDAfLNKVYzXvlFy4SQXAAAwt2SesmT8epwplVJywTyz1lar1XK5rJQyxpw+fTpN01arlfdNVV2pwyiKwjBU85069H0/DMNxU4fyqntTh+pGGNP3/ZmnDmcTTFVKyXqRVdlqtWT/6G2hm2VZvV4PgqBYLPq+P6TH7iicc77vB0HQ6XS6d8exliA/yEbNw6i+78s2ds7ddJB5S9g4jiWyfGDba62TJNnb21tZWZEuugf67QIAAJxgmXJl4zWS7LpKV8mmAgCAOeaU0kpVlDTx8IrGo2oPAADmllUuMlpZtdVJNqJAk00FAABzTCtVM149zpzKlnxKLgAAYH5lN0ouVzvJehRwOTAAADDPrHIVY+px5lS65HOCLuZXHs1zzrXb7VarpbXumzqUdN7JSx02m81OpzModZim6d7e3urq6sxThzMLpna/YGOMrCa5UVZxd4/dJEkkxFwoFPrmV0fnnCuXy1mWpWk61kqXQRpjfN/3fd/zPM/z8v1sxEi0vKg4jlutlmz77jFYa/NWvFrrKIrydUIqFQAA3FLsjWzqizbeCAOlqNoDAIA51dXEI4tDt8QVJQEAwByzSkVaa2sut+P1MAiMyZi6AACAuSQHhqovNfFwy76fMG8BAADzqqvkkqyHvm+MZeoCAADmlbR8r8c2scla6FtOz8Xck+zecaYOrbVJkpA6HMXMgqlC8qiFQuHUqVOXL19WSsk/nXOdTkfWl7qxgtrtdpIkYRiGYShNZid7Ut/3l5eXJTcstzjn0jTNf5bNn98/CAKllDFGdoh8a43Vn1deaafT6XQ6kont3TlKpVKj0ZA7b25ulkqlQ2a1AQAAFpdVrmxMx7qrcboe+TTxAAAAc27JePU4UyolmwoAAOaZVSrU2jj/WiddLfihJpsKAADml1WuYrx6nG1xoiQAAJhvN0ou3rVOulbwA2UyRckFAADMKatUxZhWaq+pdC0MLH1TMcecc1EUHXPqcGlpqTt1qJRKkiQfz4HUoXRDnVbqMI5jea4DqUNjTJ46VEptbm5WKpUsyyZ7jVM042CqsNbWarUwDPf29jzPW1paUkpdvXp1f3+/ez1K191Wq9Vut6MoiqIozzePRQLBxWJxggeqrr66I8p3jna7Lb1xDwSRnXPFYnFjY0PWQLvdrlarErAed4QAAAAniVUq0kZZu9VJNqKAbCoAAJhn+RUlJZuaUbUHAADzyirlaVV23vV2uhr5oTFMXQAAwNyyysmJkldVus6JkgAAYI7lJZdr7XSt4AdcDgwAAMwxq1TxpZJLsh4GY+TngGN3IHVYq9WMMVtbW31Th81mc7FSh9LiVRphStB0SOpwf3+/1WpVKpU5SaWqOQmmKqWstVEUnT59WimVZZnneVEU7e7u+r5/YJPkOeZOp5PvKGr8LXfUb5syzrxLqmzvvAnvgZF4nlcsFrMsW15eliArqVQAAACllFUu0lpbs9VJVkPfU1TsAQDA/JIrStZja126HHg08QAAAHPLKWUkm9pJlyKvqPscwAIAAJgTVqmi8dqZvRona6HPdUwBAMDcyksu19rpcuQXjOGyGgAAYG7dKLlkW51kLfQ5PRfzrDd1WCgU9vb2eqOnEtxboNRhu91ut9uSIjwQSc1HIq/XWru0tLS8vDxXqcN5CaYqpZxzaZrmP+dNb/OgpjFGflYvj6f6vh8EQRiGsj/NNqif7wTJDdba3i6p+cuRf+bJ1b7hZgAAgFuZVSrUWlmz1U7XIr/ITAkAAMyxl7Kpib3q0rXQ52QDAAAwt+REyYrydtqZjVTN85i5AACAuWWVK2jTzuyL7WQ98n2uZAoAAObV318OrJ0uRV7F8zIOFwEAgHmVvVRycVc6yXoUeLMeDzBEd+pQKSVhTs/zFjd1GMdxmqajpw611nOYOpyjYKrqWjXW2vX19U6n02w2tdbGmHK53Gw2syw70HTUORfHcafT8TzP9/0wDIMgyBPPx7a7yE7gnMv3jLwlbr5b5wO21lYqlU6nkySJUsr3/c3NTem9O1c7BwAAwJywSgVa+8rb6iTniiETJgAAMM+sUlXjNdPsukrXwmDWwwEAABhIDl8tG3+7k/gF7SnajwEAgPlllSto7TvvSjs5V4pmPRwAAICBnFJaqxXtb3cSL1LBy097BgAAmB9aKatUwWjfma12crYUcqwI8yzP3GVZtr6+Hsdxo9EYMXVojAmCoDuhqhYndXj69GkZ8xymDucrmNrN87xz585du3YtjuNKpbK6utput69cudJoNDzPO7DttdbW2k6nkydUJdBsjDmi3UW2pWz+LMuyLEuSJE3TPH6db+wD+0cQBKdPn65UKnt7e9vb20EQrK2thWE4P110AQAA5pBWumWzUuAZpfnaCwAA5plWKnMu1W7J8xwFewAAMN+M0m1nA89EWtedm7sjmQAAADdopZxSbZdVAo9JCwAAmHNScgk9ExpjOVoEAADmXlvZcmAouWCBeJ539uzZa9eudTqdarUqqcOtra16vd43deicO5A69H3f87zjSR2mXbrvoAanDvf3969fv+77/traWhRFc5s6nN9gqnPO87zTp0/LP9M0LRaL0mO3+z7d/5Sf84SqhJ4l0CwPlNxzHiYefafJdwh5lOwW1tokSZIkybIsX9SB8LEkZvMbJeJcLBazLKtUKtVqVd1IM0+wigAAAG4RWqk9mxYCsxz4VOsBAMA8M0qlzjWUXYn8gtFUfAAAwDwzSjVtZj21HvmaUCoAAJhvTql9l1VCU/X94+pkAAAAMAkpuThPrUc+oVQAADDP5EJgu7ar5MLxIiyIQanDIQ8Zkjo0N6hZpw6VUpI6LJfLlUpFzX3qcH6DqerGusvXr7XWWit9dWXVe54nm+dAp93u5rxZlrXbbaWU7CKSZs7/3/2QPOWcP13+c5qmzjn5v+wc1tru3aJvM1wZv+/7WZbJHbIs8zzPWivPJeawkS4AAMD80ErVXVYOTdX3M+d85k4AAGBeaaUS59rarkV+qHTmFDMXAAAwt4xSDWs9X62FvnOKXCoAAJhbWinnVF1lq5FfMCblaBEAAJhjL5VcArUS+M6R7AAAAPMrL7ksRV7J8zhBFwunb+pQwoYjpg6tte12uzt16Pu+1lqW4Pt+90OOJ3VojJGRL0rqcK6DqaprY0vgeHNz0/O8vb09a22xWDx37lySJNvb2/V6/UDrVNl+B9qrdje9PfDbPNmc3znLsvxuB7LF3VHm3ifNl1AoFFZWVsrl8pUrV7a3tz3Pq1ar6+vrkk3tuxAAAAB000rvu7QWemXPS7n8NQAAmGPmRip1IwqM0hnhDgAAMMeM0g2bBYFeCfyMkgsAAJhj0rijrrLlyI+M4WgRAACYZ5RcAADAoshTqSs3LgQ26xEBk+hNHRpjJHVYKBTOnz+fJMnOzs7+/n7f1GH3Eo4/dRhF0erqarlc3traun79uud5lUplY2OjO6o6/6nDeQ+mdpM2u2fOnFleXpYeu8aYQqHQarV2d3fDMJS0Z3dX1QNLGLI9pLdq3zuPEi+WXUoC0OrGXmWMWV5ezrLs9OnT1WrVGFMqlRYirwwAADBzMlvqTqXKmQcAAABzqDuVqpWypFIBAMAcM0pxiiQAAFgIUnJpKrsa+ZHRGUeLAADAHOsuuchZLgAAAPMpvxDYyo0LgVFywQkgnVHz1GGhUPA8T1KHOzs7h0wdyqP63vnwqcNTp05Vq1WtdalUkudaoNThIgVTlVKS6iwWi+pGy1rZV3zfT9PUGJOmaaVSCcOw2WwmSTL6kkffZgcyyiIMw2Kx6Jzb3d01xkir31KpJB14tdaVSkW9vFEvAAAABnnpUkwuq0Ve2TPU6wEAwDwzSnWci7VbjwIq9QAAYM4ZperWhoFaCTxKLgAAYJ7lFwJbj/xA6cwppi4AAGBuScklCvQyqVQAADDftFKZU80bqdSMqQtOkFFSh+VyOYqiZrOZpmlvPHCIEYOHo6cOy+Vynjosl8tqMVOHCxZMFfmKlq1VLpcvXLhw5cqVdrtdLBY3NzejKGq3288888yBbSlb6zC5Ydkvu9vvaq3TNM0T1c65er1eLpelnW4eU17EnQMAAGAmtFLWqbrKlgteyXCKJAAAmGtGqZZzmbEbIalUAAAw77RSezYrBmY58DnPAAAAzDOjVOxcR9uNKNBKZ4qpCwAAmF8vlVxCs+xTcgEAAHPNKJ0429R2NSSVihNrSOqwUChsbm4WCgVJHfZ9YHdmcFyDUoebm5srKytpmiql9vf3y+XyyspKpVI5AanDhQymHmCtDcPw/PnzaZp6nqe1TpIkCIIwDBuNhud50o333LlzxpidnZ29vT1jzFixZnWjT26xWFxbW/N9//nnn0+SRGudZZnv+1EUSYPWM2fOpGnq+77c/2heMQAAwImllcqca2q7Efm+plcqAACYa0bpps20r06HYTZusQkAAOB4aaX2XVaLvLLHhcAAAMBcM0p1nEteSqUqRyoVAADMMSm5LEVeiZILAACYb0ap2NlY29NRICfrMnXBrWBQ6jCKonq9fiB1uLu7K01NJzgRzDlXKBTW1taCIHjhhRfiOM5Th4VCQVKHm5ub6+vrJyl1eBKCqUop2d6+70vXXck0nzt3TmKoWZatrq5WKhXJGV+7ds33faWUtTaKovPnz3ued+3atatXrwZBIOnkQqFw/vx5pdQLL7wg6VbZ86rVaq1Wy7JsfX19a2vLGFMqlVZWVuSBMpJ8GLNdJwAAAAtHK5U51VR2PfI9pfnSCwAA5plRqmkz46vVMMgoBAEAgDkmBZZ9yymSAABgARilWtZmnlsPJZUKAAAwp14qubhsKfSKlFwAAMB8M0rFzsXarr90ITDF1AW3jr6pw7Nnz0oMtTt1mGXZ1atX89ShJFp93+9NHZ47d05rffHiRUm3SuqwUqksLS1J6vDKlSu3QurwhARTxYGt4nnexsbG6uqqZJezLJMOvGtra9I0VWu9tLQURZFSqlarXb9+XfLHzrlqtRqGoXNuY2Oj0+lI1rlara6vrydJ4pyr1WrValWexVrb/dQnZucAAAA4TkapxLmWtuuR7yud8aUXAADMMaNU01oTqNUgsNSCAADAHNNKOafqKquRSgUAAHPPKC0XAjsdhhnn3wAAgDmWl1yWQkouAABg3hmlO84m2q5HgeJCYLhV9aYO19fXV1ZWulOHpVJpfX19b29Pay2pw0KhoJRaWlrqTh1WKpUoipxz6+vr7Xa7N3VYrVYrlYq6BVKHJyqYeoBzLk1T2RVks2mtlVJnzpzZ2NiQiHO+gQuFwoULF/b3951zxWJRAspKqVKp9IpXvELdCCXLD/kClVLyFDN7kQAAACeCUarjXEfb9SjwlLaKej0AAJhfRql9mwWBXg18UqkAAGCeaaWsU/sqW6FxBwAAmHue0g2bGV+thUFGyQUAAMwxrVTmVF1lq5FfMIaSCwAAmGdG6ZbLMuPWw5d6pQJQg1OHm5ub6+vrw1OHtVqN1KE4ycFUdWOfOMBa63me/JzvOhJrLpfLcqO1Nr/DgTuP8hQAAAAYnVG67aw1bjMKnXOOr70AAGCOSSq1HHpV3+MUSQAAMM/kFMmWzk5Fga91ximSAABgjhml9mwaBmYl8Cm5AACAeaaVSp1q6+x0FHiUXAAAwHwzSjVtZgJ1OggyTs8FXm701KG1ltRhXyc8mDpI343d3Ru3e8OfsCa5AAAAc8Uo1baZ9dRaRMMxAAAw15xSntL7Ni1HXpWGYwAAYL7lqdT1yDdKcYokAACYW04po/S+zUqhV/U9jhYBAIB5lqdSKbkAAIA5J2e5NG3mBWo1CDjLBRgdqcPR3aLB1EFOfBAZAABgrnhatzJrfbUeBpxnAAAA5plWylOKVCoAAFgIRuvEuqbONqLAKOWUYuoCAADmk1bKKFV3aSXyKpRcAADAfDNax9a1dbZOyQUAAMw9T+mmy7xArwY+V9MApoLUYS8z6wEAAADgFmW02s8y6ztSqQAAYM5ppZxyOzathKRSAQDAXHNKGaU61jZvnCJpZz0kAACAQaTAsm+zSkgqFQAAzDtPqba1LUouAABgEWil92zq+Wol8DNO0AVwZOiYCgAAgOPmlNJO1V1WCM2S75FKBQAAcy5zrqGy1UJQMIZTJAEAwDwzSrWtDQJ9Kgy0o3EHAACYX1qpzKk9l1bplQoAAOabFFhalFwAAMCicLqusnJkah6pVABHi46pAAAAOGbOKN1RNgrMiu9nfOcFAABzTKYqHW1XoqBgdMYpkgAAYI5prVLnlK/Ww0A5RdEFAADMuY7O1gtBmVQqAACYb1pRcgEAAIvBKWWU6ihbDk3N81NSqQCOGB1TAQAAcMy0Ve5sFPpac54BAACYc8650JjbipGnVOa4+jUAAJhnOnNuNfA9rbn6NQAAmG/aOhUYc1sxMkpxITAAADDPtFKZc2uBrym5AACABXG+EAaaa68DOA50TAUAAMAM+FpTrQcAAAtBK+Up7RSpVAAAMO+cUr5mzgIAABaDoeQCAAAWByUXAACwQHyt7azHAOAWQTAVAAAAM0AqFQAALBCmLgAAYFEwbwEAAAuEqQsAAFgUzFsAAMACYeoC4NgQTAUAAAAAAAAAAAAAAAAAAAAAAAAAAMBICKYCAAAAAAAAAAAAAAAAAAAAAAAAAABgJARTAQAAAAAAAAAAAAAAAAAAAAAAAAAAMBKCqQAAAAAAAAAAAAAAAAAAAAAAAAAAABgJwVQAAAAAAAAAAAAAAAAAAAAAAAAAAACMhGAqAAAAAAAAAAAAAAAAAAAAAAAAAAAARkIwFQAAAAAAAAAAAAAAAAAAAAAAAAAAACMhmAoAAAAAAAAAAAAAAAAAAAAAAAAAAICREEwFAAAAAAAAAAAAAAAAAAAAAAAAAADASAimAgAAAAAAAAAAAAAAAAAAAAAAAAAAYCQEUwEAAAAAAAAAAAAAAAAAAAAAAAAAADASgqkAAAAAAAAAAAAAAAAAAAAAAAAAAAAYCcFUAAAAAAAAAAAAAAAAAAAAAAAAAAAAjIRgKgAAAAAAAAAAAAAAAAAAAAAAS5UK3wAAk+BJREFUAAAAAEZCMBUAAAAAAAAAAAAAAAAAAAAAAAAAAAAjIZgKAAAAAAAAAAAAAAAAAAAAAAAAAACAkRBMBQAAAAAAAAAAAAAAAAAAAAAAAAAAwEgIpgIAAAAAAAAAAAAAAAAAAAAAAAAAAGAkBFMBAAAAAAAAAAAAAAAAAAAAAAAAAAAwEoKpAAAAAAAAAAAAAAAAAAAAAAAAAAAAGIk/6wEAwNj0yw2/23EOrPtJBz31kJE75458fAAA4Hjln/hDZiajTGyOzmRzKuYtAACcSJRcAADAAsnnBoMmJzMsuUw8p2LeAgDAidQ9MZjno0VDfsXUBQCAW0d3yWX43eaw5MLUBQAA4JgRTAWwGORbonPOWuuc01qnadrpdIwZ2Pk5TdNjHODfs9YqpTqdTt/vsVrrJEm01sYYeSH5F2BjjLwcvgADALDo8qlLlmXOOZnDDJkepGk6q6mLzKkGleydcwcGJvc0xuTTGKYuAAAstPwDXaYu6kZFRW7p+5C5LbnEcZymqYyckgsAACfSgaNFamhlQ47IzLDkEsdxPs4D8pKL/LY7qSJVF8XUBQCABddbcpGJwSgnkxz3WG/Mqfr+qrvkopTqrrpwtAgAgBNjUMll0P17TyY5NlmWWWu11kPmVHKH/BZFyQUAAODIEEwFMO/kC2Re4/Y8LwgCpVQURb7vD/mKWCgUjm+UN0gJXg397hpFUff95dCCtTZN0yRJlFLGGM/zhi8EAADMIZkGyMe6/NP3fTmBQH4Y9OEehmG5XM4nEsds+JSjWCzmP6dpKoGQPEmrtfY8b1DFHwAAzDP5BJfj90opY0wYhupGyWXIA+e25BKGobwo+T8lFwAAThL5WJdLgEk5Qj7Wi8Wi53lDSi759OA4R5tPSIbcp1gs5qnULMskryI/yMPl4hrMWwAAWDiDSi5a6yAIRjyZ5PiNWHJRSiVJkudV5GiRzFs4WgQAwCI6cIKu7/ujlFzUjcrGTEouauQTdPMTeOSH/CRkrmcKAAAwLQRTAcyv/NxBqc6Lk3fVovxrsHy9T5IkjmM5dVJOAz0xrxQAgBNM5idykoExplAoBEGQp1LVSflAlzMn1I3LZCY3OOd83+eEAwAAFkV3btP3fZm6yMUm5A4n4zM9L7lYa621Um+h5AIAwMLJjxZJqCMMQ6lCnKSjRUEQ5DOxvOQSx3GWZXKu5Ml4mQAAnHjduY4gCE5qyaX7aFGWZfnRIqUUR4sAAFgg3SfohmGYn6Arvz0xH+j55VblxaZpKgeM5GKmJ+ZlAgAAzArBVADzqPv8yFKpFEWRHHTPzXqA09T9cnzfD4KgWCxmWdZsNvn2CwDAQpC+FtZa3/crlUp+0F3Sm7Me3TR1z0m01lEUFQoFa2273W6328RTAQBYFHJ+ZBRF+eWuT3zJxfO8UqmklEqSpNVqUXIBAGAhdEdSy+VyFEV5yeVkT13CMIyiyDkXx7FMXSi5AAAw/7TWUnIpFAqFQiEvO5zseYv0sZezXORokVwR7IS9ZAAATpgDJZcwDPMTdE/YWS7q5VOXIAjCMCwWi2macoIuAADAVBBMBTB3JNrhnCuVSnKxohP5dbev/ICE53m1Wi3/9it9PAAAwHySD2sp1p/IMyMHyV+pTNvyEw6o2gMAMJ/yq2nkkVRpJTrrcR2HfN7i+76UXFqtVhzHZDwAAJhbEu3QWkskVZ3EUMcg+SuVDrFxHDcaDUouAADMrTzacWuWXOT/Mm3LjxZRcgEAYG7lJ+h2l1xunalLfrRoaWkpSRJO0AUAADgkJlIA5oucZ+B5XqVSkYswzXpEsyFfgCWe2m63G42G53m38goBAGAOyXkGWZaVSqVisXjrVOp7yQuXeGq9Xk+SJAgC5i0AAMwVKbkYY5aWlnzfv3XOjzwgL7lUq9U4juv1OhkPAADmU5IkURSVy2WpwMx6OLPRHU+t1+tyWY1ZDwoAALyMRDuUUrVaLQiCW7bkopSy1ko8VaYuSilKLgAAzCE5o6NSqdzKV5GQo0UST202m81mMwiCW3mFAAAATMzMegAA8DJynsHS0hLf8dSNK1EVCoWlpSXnXJZlWutZDwoAACjV1XCsVqsVi0W5nOSsBzVjcsKBrJAkSWY9HAAA8Pe01kmShGG4tLQkXTtmPaIZkzJLEATLy8vGGOnGNutBAQAApZSSw0NZllUqlUqlcitfCCwn50pWq9VSqZSm6ayHAwAA/l5+7fX8QmCzHtHsWWsl4+F5HiUXAADmTZqmpVKpVqupG9fDupVJ3alUKi0tLckpQExdAAAAxkUwFcAcSdO0XC6Xy2WK9d2stZ7ncaIkAADzQzp1OOfy8wz4gBZ51b5Wq8kFwgEAwMxJKrVcLku0g/MMRH5NtKWlpSiKkiRhRgcAwMx1l1zCMORoUTdrbbFYpOQCAMD8kFRqGIZEOw6QVVGr1aIo4iwXAADmR5qmcqlxSi7d5LIay8vLSimaxwAAAIyLYCqAuSD1+nK5XCgU+NLbS04brdVqnufx1RcAgNnKT5GUy0ZwnkEva20QBNLEg3kLAACzJanUQqFAyWUQa225XA6CgJILAAAzl/dKpeTSl5woWa1WyaYCADBzcpZLFEWVSoWSS19SciGbCgDAnMiyrFqt0uO9L+ec1rpWq8kZQbMeDgAAwCIhmApg9qRezymSo6hWq/Q2AQBgtvLGHXmXLfSy1hYKhVKpRPMxAABmKD9FslQqUXIZwlpbrVaNMWRTAQCYrfwUSUougzjnuBwYAAAzp7XOsszzvHK5TMllCMmmcgV2AABmS44WlUqlMAwpuQwi2VQuBwYAADAugqkAZkzq9b7vU6+/qfyyTGmaznosAADcomTqUq1WSaXelLW2VCoVCgVOlAQAYCbykkulUmHeclPOuVqtppSiPAUAwEzIKZLlcplTJG9KLgdGyQUAgBmS6kG1WqWMcFNyOTBFyQUAgBnJr2FK25ibcs55nlepVCi5AAAAjM6f9QAA3Oqk/2elUpngS++I3/1mcgbD6N9Lxxqec873/WKx2Gq1giDg5AwAAI5T3ubd9/1xpy5HNDeYliOaVmVZViwW4zi21lK1BwDgmDnnrLW1Wo2Sy+hKpdL+/j55GAAAjll+QY0oiii5jEIuB5YkCSUXAACOnxwtmuwapvNcclFHNjytdaVS2d3dpeQCAMDxk9LBZG1j5nnqcnQllyiKkiSJ49j3faYuAAAAN0UwFcAsaa2TJKlUKsaY0b/3ylfKLMuyLLvpFz/P84wxxphj+4ooxx6yLLtpX1OttQxvrMMV1to84HGcrwsAAEi9vlgsjlWvP+q5wWHItMpam6bpTV+UMUaGp8ap3csRjv39fa6pAQDAcZKSS6lU8jzviEouk80NDkPmSGmaZll20ztPUBFyzkVRFMdxmqae5zF1AQDg2Ex2DdOjnhscktZ6xJLLxBWhcrm8t7fn+xzxBwDg+OQ9x8IwHHfqctRzg4nJE1lrx6oIjVVyCYKgUCgQ8AAA4JjJ1KVWq437qNHnBrM6QXeUitDEJ+hyOTAAAIDRcZgKwMxI2X3cC2DLiZVxHOffKod895Mvk/L1slAoHPW3X/n62ul05Evp8LF1Dy8MwzAMR//265yTsw343gsAwLGZ4ALY+dwgjuOb3jlfpjEmDMMgCI76hAPpRtLpdPJjCSNOq8IwHP28Aeec3F8CHtMaPAAAGE6uZlUoFMYquaRpKnOD/JZBd554bnAYE5RcgiAIw3D0ipBzrlQq7ezsSOAWAAAcA5mEFAqFsS6ooSadG0RRdDwllziOkyTJbxk+NqWUTKtGv7CXBDyiKOp0OlwODACAYyOfuaVSaaySi7W23W6naTri4Rg1/txgYhOchKOUklN9Rr+wl7W2XC7HccykBQCAY5NfUCMIgqM+QVfmBsdwgq61VipCo5/lorWWlTDWFdhLpVK9XqfkAgAAcFMEUwHMUpZl1Wp1rPMMWq1WHMfyDVaq9kO++Mn5kZ7npWlar9eLxeKRXjc6y7JWq5VlWX6pSzW4Z4h845ULMskRiGKxOHrQNAiCIAiyLKODBwAAxyPLMt/3x7oAdj43MMbIxRqHz1tkbqC1brVaSZLIZTWmNPw+4jhut9vys1Tthw9ProHtnEuSJIqiKIpGfCIJeMg1NZi3AABwDORUg3K5PNZD2u12p9OR0sS4c4NCoRBF0RF90EuZpdlsyrRKSi7DnyuvCEkgRDrHjjI855znedI3lQ4eAAAcD/nAHf2CGsc5N5iAnL7ZarXkn9IVbcSKULPZDIKgWCyO+FzW2kKh0Ol0pjBuAAAwAvmgLxaLMgkZ/SFjzQ2k5CITnrHmBpOZ+CQcubZIGIajT6sKhUKr1SLgAQDAsXHOjXUNU+ecnK8isx05y2WUuUGSJHIG7NEdW5GDX61WS5afZdmIJ+F4nifTqkKhMOIJunIFdpmSHWczWAAAgEVEMBXAzFhrPc8bveIsh+TlS2+n0ykWi2tra0tLSysrK71LkOL+9evX9/b2dnd3rbVBEDSbzWKxOFZZfERy9etGo6GUkmJ9rVaTsfW9UqYxZn9/f2dnZ3d3t16v+76fZVm9Xq9UKqN/9S0UCvv7+3QeAwDgGMgpj6VSafSHWGvzuUEcxysrK8vLyysrK30nPzI32N3d3dnZyecGjUZj9LnBWLTWnU6n1WrJGZm+729ubtZqtb7TKiHTqp2dnTiOwzBst9vOuWKxOGLAw/d9KdnT7x0AgGPgnNNaj1UAyc9BHHFusL29LVOXfG6glDqKbGqePJGJRKfTqVarKysrQ0ou7XZbhre7u2uMMcY0Go1yuTxi/sRaK53HpvtCAADAIFmWBUEwerojnxsopeI4lsMxy8vL5XJ5rLnBUVwOTGsdx3Gr1TLGJEnied7a2lqtVltdXe07FTHGyMB2dnYajUYYhtJkdfT8ie/7XMYUAIBjI5+2URSNlUptNpujzA3k4p4HDseMOzcYlyRPpORSKpVOnTq1tLS0tLQ0aFolw9vb21NK+b4vgdsRa1DOuSiK8jAJAAA4UnJGaxAEvu+PHkzND8fEcVwqlWRisLy8PLzkks8NpORyFNlUSaU2Gg1jjLRyrdVqMq3qm7ztLrlIKjVN02azOfpFXbXWhUJBnnG6rwUAAOCEIZgKYDbki+Lo6Q6pg0sqNU3Te+6557777ouiSC5HNCThkGXZ7u7uI488cu3atSAI2u22XANpul995UpR6sbJiw888MDm5qbv+3LkoHd4cqNEWJ999tnHHntMvs+3Wq1yuTxiyT4/UYOABwAAR00+cIMgGL1en88NwjB84IEHzp07N+RyEt1zg+eee+6xxx6THuyjzw1GJ9MwmRQlSXLmzJnv+77vq9Vqg+YtMry77rrLWttut7/+9a9/73vfC4IgjmPP80ZPvERRJOV+TjgAAOBIyWd9GIYjpjvk9IJOpzPB3KDRaDz66KOXLl2Skosx5ig+66UFvSRUX//61999991hGKobM6jescmNWZZdvHjx0Ucf7XQ6xhg522DEEkoQBJ7nSRO26b4WAABwgEw5CoXCWNcwlRMQjTFveMMb7rjjDmk3etO5waVLlx555JF8blCpVKb+crIsy1Opq6urDz300PLy8pAZRV4R6nQ6Tz311Le+9S2ZkhljRlwnXMYUAIBjI+mOvHfWKA/JsixPpa6urj744IMrKyvD5wZScmm1Wo8//rgcjhlrbjA6rXW73ZZUapZl9957r5yEc9NpVZqm165de+SRR/b39yWb6nneiCUUOa6UJMnR9VIDAAA5a+3oJ5zICSr54ZjXve51r3jFK+QM1XHnBqMfjhnrtUjJJU3TSqXy4IMPrq+v+76vhh4tstYmSfKd73znG9/4hsx52u32iFdgl7N9ms0mkxYAAIDhCKYCmI1xe3dkWSbnCnQ6nYceeui+++6TEvkoj11aWnr729/+8MMPX758OQgC6bZ6uOG/jIRm5TSIIAje9ra3VSqVOI7jOB7lsXfffffKyspnPvMZpVSapnLZy1FWi9ZaLidJwAOAVk4ra9SoebmuByqjrFHqQH3uCN9UnNLOamfVpE+hldbOauf0wVH//XO89BTAlEi6o1AojJ7uODA3qNVq7XY7TdNRHvuKV7xieXlZ5gZZlo0+NxiRnOwo06o77rjjh37oh5IkGWXeopQKguCHfuiHisXi448/XigUOp2OXIljlCcNw5DLYAMQMm8xyg7+ND/IKWWUNi898OW/cvL7I+gvrZR2Tr80e3ETP4F2Vg9+89POapepiedGQD+STxhx3mKtlVRqp9O5cOHCm9/85tHnBsVi8S1vecuXv/zlv/u7v4uiqN1uy0kA0yKh2TRNpZXrm9/85jvuuKPVao3YzvS2225bX1//9Kc/LScrxHE8+kmchUKhXq/TeQzALVlysXrg1IqSC6ZMzgj0PG/Ea4HlcwN54I/8yI+cOXNGTpoc5enOnz+/trbWPTeYbr93qQhJY7TV1dW3ve1t8vMoj/U878EHH1xaWvrSl74URVEcx3KljJsOTy5jKvEYLmMKQCtnlHXKjlUnMS/NW/qWXI7EjZKLPkzJRaYuyqmB9SUpufCdDlMlVyofPd0hc4M4js+cOfMP/sE/kGjEKI8NwzA/HFMsFkefG4xIZlNxHMvRoje+8Y133313p9MZsSJ06tSpt7/97Z/+9Kfl6hjtdnv0K7BHUTRiYQfAiWeUNUq7cQoZXUeLlFEvO/ZytEeL1PCCyShLkKLKwAVo5ThahOmy1o5+OVE5K0YuhxHH8Q//8A9fuHBBOquP8lwbGxvdcwM5QXe6JZd2u+2cy7KsWq2+/e1vl2upj1IR0lq/5jWvWVpa+ou/+Au5QIZ0kR1leMaYMAzjOOaaGgCk5GKUHfe9wN2Y8xy48eg+82+c4jLsNJWbLGG0kgtHiwDkCKYCmA1rre/7I15IUr73KqXiOD537twrX/nKZrOptR7xEHuapnJE/1Of+pS1Nk1T+dZ92Ndwg3Mu/07+hje8oVKpSJOQEYfXarXW1tbuv//+r371q1EUJUkifT9GeV4JeBxu+ABOgkz7iSlpp6wa781Na9U2njXmwDuW53lHUa9XSimnUs+mYTjZV2unlNI6dUlqnaf7f3d2yjkTpFl8VC8Bt6rR26XmcwO5oEa1WpXzHUd8IpkbvOY1r3n00UfHmhuMQqZVWZY558rl8gMPPBDH8ehnLlprm83m/fff/+KLL25vb3ueJw3ZRinBS9f66U7DACyojim2TTF12VjBVF/rtvHbxmpt8rdj55TnG62P5I1FK5U6Z0KVhmE6cTBVqzSM08wMeq3a2TSqOhNwtgGmRT5tRz9VMU1T59xkcwO5jthrX/vay5cvy4Qny7IpHp6XfvIyrbr77rtvv/32RqMxeslFrnv9ute97otf/KLMW0YcmLU2CAKiHQBUXnJRE5ZcXJ+Sy5EdmDtcyUUpZbROsywN07RruvXyZ5CSS/sQowQOstYWCoUR75zPDeI4vv/++zc3N6UF2YgPl7nB61//+r/8y7+UxqTTLblkWSYHs3zff+ihh5RSEvYY5eHOuWazeeedd168ePG5556T3mgjNkHVWstVWTlLEkCsw7YpOaPVOF9njFJtZdsm9dXLSi7G08YcSTfmGyUXnYbBZCWXl44W2dg5pQccLVIu09GS9QuUXDAtzrmx0h353CAMwwceeED+OeLcQA7HvPrVr84Px4w+NxhRfhLO+fPn77rrLplWjVgM6XQ6YRg++OCDDz/8sLxSudrI6NfUYNICwCndNsXIeNk4bwg3jhZ5qVG2aw7gnPJ874gqukapVGVpGAwqmNyUVipTLg3j1HmDXq1RLvVCp32mLpiKvNO79EIf5SHSR73T6bzyla+87bbbxjocI9dbf+ihhz73uc/Jokav9oxCTsKRnx988EHf9+Vq7CM+vNlsnj9//u6775arrErz9hGfNwxDrqkBQCuX6sCZUuacG/PsFKdU2xjtvJefMaKn+/2um3UqDWwahmOHaJVSXSUXNbjk4px1fjELyocaKIAThGAqgBmQdhxRFI3+kCzL5FHnz58ft4okAYxarbaxsfHCCy9IqmSKlW45fVNOnvj/2/vzODuqOn/8P6eWu/ftvdPpJftCQoCEHRQEZFhEBGWURRR3XAYB+ejMd2ZUZtw+D0Y/8/EzoiP6EB1EHHBFBhQRCRAIS8gGISEJ2Zfel7vXrarz++Nt31/bndyuqrudW/16/uEDO3c551a967zrVL3rdHZ2Or/PoNC8fD7f3d392muv0ec4vAGULnvQz4J7JQFmLc6EzfV49uD43gdsZgr3pZgd9tRL/rYQRw4fMfLG1Hsny8RmbLfi/ZM5Y5YQQrBksVcpwjKCtiE4x6w9lI5yBufjO+UG9KTG7u5uz7nBq6++6io3cIieGWkYxuLFi8PhcDabdf7hdNFCVdWenp6BgQFN0xyuSUJUVaWkDjccAMxagvEgMxsO/87imtuFNyzG4kI0TEp3hGCqqgwODo2NjSqKWolBXzDGORs73g2Ozpi2KPY8ISGEqmvDbzA1hEU8oCxosHY+4NKaY7lcbtGiRZFIxG1uQDM8PT0927ZtC4VCzi/nO0HPF+OcK4qycOFCSiScv52qVjo7O2OxmNu6WXogGpIWgNlsYsrlwPgej1Muc6ZOuXBb2IcPHTZNs0KzuaVPudiCWaJo6sIVYeaCtokpFygj5+WUtm3Tw7Y0TVu0aJHbKZdCbtDQ0EClF+V9pkahuqO3t7e1tdXVc8rYRGa1YMGC/fv304Uthw2jHySbRdE4wOwmhMK15qFnrbEtTFjCTbZhMxYQrFOIwjGLplySyVRff5/CFTmnXKi6lRXJ0oRgaoCP71e0sMAiHlAyqu6gOzScT7mwidwgHo+7Kp+gb9E0rXA5xnlu4ARVdxTSDyGE2ymXfD7f1tbW2Ng4NjZGjwNz/kwNulqE8lSAWYszYXMlYqciB35lcdd5hsVYsxBi2tWivr7+ZDJRoatFNmMHOOfuW0toDsW0RbHTNsGEoujJI0wJ4GoRlAXlEs7nFgr3fvT29nq4HJPP51tbW5uamkZHR2msL9eUS2FVG8uy4vF4W1sbPSne1SdYljVv3rxdu3bR5zj/WSjDQdICMKsJYSvBpuSO9J5xIUxXUy5kji3++pjFTdM8fPiQbXv4sJnRAWuXUtEpF8YUVRiJUGn30gCAb6AwFQBqxsOtBoFAoLm52VX9A6Hz5Obm5gMHDtCZqq7rrlt8nE+mCwCmaba3twcCAZq+d/UJtm2Hw+FoNJpIJGglMYc/Di2BQmuh4OwXYLYSNtfi+eEmo8/b++mANfkIYtv2+N6tSjqjqJVa1bDEI5bOZloMVQjGFaGHsWgqlAVdj3c4r13IDWhOXNM0b7lBKBSKxWLj4+OucgMn6BIC57y5udnhGrBT2Lbd3NxMP4irKXt6bqWHbwQA3xCMa8LqTWz2fFvA5AIIIYSuafaRN7OHDmnOVirwQpR6C0NgxkFACKaFsGgqlAUlEh7W/uKct7S0eMsNhBBNTU2VK+O0LIumTdzeCcEmFuKIx+PJZNLVc2cLq85iygVgFqMpl6Em46i390+ZcqH1SMf2bsnlcpV7zmCJRyzOHE65RDDlAmVBg6zbSQ/LshobGwOBgIcxmmYn4vE4XY5x+/YZUUZEUy4enrJq23YsFgsGgzQX5PCNuEsSAIjgytz0TsY8VmBOn3IZGBoc27lD1SpWOVbylIujq0WqLlQsmgrl4WHKpZAbeP7GpqYmV3UXbj8/GAw2NDR4mHJhjCmK0tTUNDw87DatomtnlVsgCADkJ5gSELl5iQ3e3j5lyoVSl9yhHfn+/spdLSr9Ux1dLdLDQsGiqVAGbqdc6IHpQohIJFJibjA0NESPOC/jY0zphmHLslpbWz2kRlSYGovFwuFw4dkczm8BoutEWDkGYNbiTNhcazGOtOYOeP2EvxraFc6zudzIm1u8HWwdqc6Ui6IKLVza9wCAT6AwFQBqwO2yY4V3KYpSSlVG5ebr2cSdjp6/QlEUb+9FgQcA0I2SluK13n7aMdVmtgg0CEsXlTxslsLZMCAYHoANZUK39ymK4rZUo5Rr6p5zA1dfUeX34iYDAGCMCcbySthjIcNfJwFCCKFolh4TwUZRvgL+snNWvm/jPgMoI1djbiF2POcGQohgMFiJy2aT2+a58JVzHgwGPbxXVVW367ABgO+Uc8qFc24JSwQahAgyWW9jwpQLVB89PMvhi2lAt21b13VVVd0+C6zwjVT56faNDpvHGAuFQp4/gbrm9gmthWQJd0kCzHJ5JchoJS+3B4NjTbmYWlQE40LiJQ2RukD1eZtyCQaDnr+x0ne5aJqmey3icv5Q1ylwtQgAGGOC8bwSKePVIluPiWAOV4sACjyM1JQbeF7V3HNu4Jyu656nPmjyxMO7XC0ODwA+JUyuMyXgZcqFHeNqUV5VRSAuLAtXiwDAH1CYCgDVRg8cKjxJyOFb6PW5XG5sbCwWi3lYNJUxlkwmK3Fhnj5NVdXR0VHDMDys3UFdy2azdGbu6iYMmggo17IkfELpH1Xeb6x+wwrf6+Q1VW6Yw2/E1pz+vTO+QNqt6YDg5Ztb58zmTHBmS3rW65ys5+1QXxRFMU3T1U0DFNeKoqRSKQ+3ORZyg0wm4zY3cN48IUQqlfL2yZzzRCJBuYfbvKWMa6nV8LjtcEypTpMmf2P9Dna1Sg+cwNac/qVl+Bxml+mquuDMVv6St9T5pfqZlyeTiMwxC2yinsH5gFvIDWjaxMM3KooyPDzsYVkwh22j1MgwjEgk4ja54pxblkVrd7hKQuhnzGaz7lpctCU4F57ypeV6WRlJOwpL27DC9zp5jZxb04GyTblwxidNudT5MFpXaQDyFmnRMO3qWWC0KTVNGxsbMwzDw42SnHPbtoeHh0t5CmqRD6frNYODg0uWLHH7drr7c3h4OJPJuF0Plu6SpNVIyni1qPTPKfs3Spu6SHuWVMNfzOGPVp0mTf5GObdmub6RM/GXxbxKPRIIzmwu7Im8pZ6nXFidpS6s3FcEoLxcDbWF3GBoaMhDbkCfkEwmK1dhpapqJpMZHx+fM2eOh0d+2LbtYTaJch5XbykO58LTv9TJazCzMeV7Z3yBtOmBtDmVo48q69UijqtFVSfteRDwiRVBuePbM/iku1xSqVQ8Hvewjh/lBpVYX7TQPLoa5fbtdBNOOp3O5XL0s7hqHj0czcOz7I9J2uO2tIOdzIcabM3pX+rkNXJuzRmVb8qFccYnplxwtaja6nT3A5AfClMBZCEm1LwZHt7iquVCCNM0I5GIq/NeOrsTQgwMDPT29no4d83n84ODg/TgojJOc9NZK7UwmUwmEommpibTNJ03j6bd+/v70+k0LTDivGRXCBEIBDKZDJ36Onn98T6Z/imfz3uYUygF5zyfz9PGLdJreo1t29WMEfHXjvmvtm0bhlHl4OWcW5ZFv0aRDZrP513timVpmMOtWf0fjTZWka3JGDNN0zAM5ulI6Bn9aDNuzSq3ig7UdGtX1b4UWNGjtIQkaa3bNnhocz6fZ4w5X0ljcm4wOjo6NjbmLTcYGBjwkBs4QWmVqqqHDh1avny527dTGtbf38/c15pyzqPRaDKZdHJ4KT4KM8Ysy6rJcdswDHpISpH0wNuaLaU3zDTNGdOD6reNfpDjNayGW7PQgCLJHv1o1d+alMg52ZpVXsfPtm269arIBq3mAEHfRfuPJAPTLFHYS2vdEBdk2EM8tMFDTOXz+Ugk4ip5oMdwUG5wwgknuGphoZEDAwNUGVLekwhaQ14Ikc1mjx49unz58sKTOxy2TdO08fHxVCpFDXM75RIIBChxcvL64p8s58wGk/JcuJBT1WTKhXIqdpwfpJAeyDaBVsOtOeNuJu3WZEVPOipETEy5YDXmaqKdoRLLY1ZIlXfLIs1w+3q3LaeBIBqNuspbKHxyudzg4GB3dzfdUOi8kZqmJRIJyg3KPuVCLdE0bWhoKJvNuh0pKJUaGBigJrm6f1QIEQqFEomEkxFqxuO2qNG5cCFUixy3JTwXpj/S4b0mwVs82ZN2Aq1Wu1nxKZcabs0Zp1yYg5OOMpq8map8FgOSZALOydBUD7+Yh7eYpkkLm7tKXRhj9OAJutjktpGc876+PlaZR3/S2l+MsYGBga6uLlcPYRdCKIqSyWRGRkbo9htXKZmiKIFAwOHF6BnzzFpNubCio7Co0bkwY8y27SK3HxQO77LNbJBa3UxSZDcTmEA7VsNkm3KhL6phTj5rTd4Z6oIkiZaHBrhtOUVELBZz/hWUG9i2bZrm4OBgS0uL27tcCrkBje/lvVpU+MzR0VF6nperh6UKITRNGxwczOfzoVDI1dKpQohgMJjL5Zz8IMUHFIGbSaYp3ExyvFYx3Ezy1+r3ZpLaDtYzZiY1aVL1c3KQJBMA8CUUpgLIQlVVeix0bZtRuKjvBJ1P0hmpw7fQRHk0Gg2FQq6Gdk3TDMMIBoO7du2aN29eW1tbJpNxkpAJIagEYuPGjWNjY7TcWXlvNShM2QshNm/efNFFF1EC7bB5uq5blrVlyxa6hqHrutvLCfF4PJVKUYZa/I2KohS54CGEWLJkSU3O33Rdp7PH4+nt7a3+WRyb2GOP2TYhhGVZoVDohBNOqH7DClMex5tkEUIsXrxYzq3Z09MzZ86cWm3NXC43/Z9oa7a0tITD4ZpszVAoVGRr8on1i6rTHvqhenp6cNJbfRTaotwPDqwQGr9q21RKRVy9Rdd1GlCcxBS9TNM0t9Udk3ODTZs2XXTRRfR/necGtm0XcgNN08p4qwFjjD5Q1/WBgYHdu3evWLHC+QOthRCRSOTgwYP79++nYl1Xz/sQQgQCgVgslk6nZ+zUjKNwQ0PDihUranLcjsVimUxm+nGbGqZp2rJly6rcKuYsPVi4cGH178YWQhQJgdpuTTaxCt/0Yy+l9KqqSrs1FyxYUP3jcGFr0t2lx3tBNbNQy7KamppisVhdjJ5+Ushbat0QRzjnNPzJ0AyHL6bjkqspF+JhyoVO4gKBwODg4K5du1auXOkqN4hGo7t37z5y5AjtEuU9CNCPlsvlAoHAtm3buru7I5FILpdzmFapqqrr+tatWws3j7pK6oQQDQ0NqVTKyc2jxadcmMQzG62trfT8uCo3rMi5MDUsHA7XasolEokcM9krvEDCCbTazmzIPIEWDoeLb006LFRtgwohent7az4kzUK2bTc2NtZLbaqmaZZlyXC1yO3tfTPeZV7AJ1YPi8VirpIHSpBondWNGze2t7dTSYPb3CCfz3vIDWb8fE3T6HcbHR199dVXzzzzzHQ67XCuj0bGsbGxHTt20O2VoVDI1bcHAoHGxsZ0Ok0HvSL9mvG4XcNz4Wg0Wvy4LeG5MP1onZ2dzc3NNTnCq6p6vJkNmSfQ5JxyobZ1dHQ0NjZKtZsRGhqqlrfYth0IBJYuXVrlqR5gE+fC9fKz0xWNml8tclX5QL/wjCPmFMFgMBKJuJpVKOQGIyMjO3bsWL16dSqVcp4bTLkco+u6w692iG7CCQQCb7zxxvz58xsbGx0+WYPOpILB4Msvv0yfwFyuJUvDhMMplxkPj729vVV+YDfhnFNN4PR/qvnMxozXFySc2SC9vb2dnZ0SzmxgAm16w2accqEUomp7mmVZbW1tLS0tmHWpMtu2o9FozZMBhygBqK8pFzbpCZ6uAioWi7m6kEcJUjab9XY5RlGUUCi0YcMGuqBDEzhlnHIpzOEYhrFly5a3vOUt2WzW4Y5HI2M6nd62bRtNuVALHTaPvp1u0HWSQFIV6DE/BzeTHPN76dn6dXczibQzG0zuCbQ5c+Y0NTVJNYFGqjzlwhjjnC9cuLDmQ9IsVF9TLgB1BIWpAFIQE4sw1LohjLl88gfnvKmpydu3uHqxpml0N4YQ4vnnnz/jjDM6OzudnAjRXPDWrVu3b99O8/X00KPy3iVJC2jout7f3//888+vWbMmHA47aZ6iKIlEYsOGDePj47qu057gtm2c83g8XpYetba2lv4hbtHpepELCYwxOhupSS5YvGENDQ1z5sypfsM45xQORV7T0tJStfYU1O/WFELE4/HyHhwccrI1q4kmyBoaGqLRaPFNCZVA6yHXuhWORCKRWjfhL9xe53b7+XTIchWkk3ODgYGB559//tRTTw2Hw05m/RRFSSaTL7/88tjYWCE3cNvmIuiSgK7rdD1g8+bNnPPFixdTylS8eZxzzvmBAwdeeuklOmDquu52sqZcea8QoqGhoSY3RfGJpcuP93Nxztvb26vcKjaR9xY/hjQ3N1etPQUzpge0NefOnStbekDa2tqq05LJHG7N6udUTpK9KqOjSjwer5cB1DdoL5VqZzgeGvsaGhpq3ZC/cB62iqJUZ8pFVVWqJAkEAlu2bFEUxUluICYeEbJz585NmzbRfaiBQKC8o3PhfjU6T3n22WfPPPPMlpYWh1MumUzm+eefP3LkCN1q4KGamqojvDb/r+BceIoZz4VrOOVCx7ci+7+cE2g13JpM4gm0GbdmNdGhLB6PRyKRuhhD/WTG8zh50H1F9ITNmnM+H0J3S7sqpGSeplwKuYGqqul0et26dWeeeWZDQ4Or3ODw4cOF2xDLe2jinOu6ns1mQ6HQrl27gsHgihUr6FEjTmaE+vr6Xn75ZbqtjTI0D5fS4vF4aZ34i1qdC88YqtKeC8s5Css8gcYknnKpydaUcMqFbtTr6upCYWpNSHXpsLhynTWXztXVIg8jJh1A3L6FcoNgMPj6668rirJ8+XInuQH96/79+19++WVKCTzkBsVNvgnHtu1169addtppDm/CURTFMIwNGzbs37+/MOXidoD2/ZQLk/tmEjlnNpisWxMTaNPJNuXCGKNjkcPTQyij+rpa5GHuokJcTbmoqurtKr+3KRfGmGEY69atO+OMM5xfjjEM4+WXX963bx/lBpW4oYiKSwOBAD2246STTnJ+g+7w8PBLL71kGAY9QJZuxXH+1bQVGhsbSz/e4maSKXAziQd1fTOJnBNo1cc5z2azzc3NoVAIqUv11dGUC0AdQWEqgCzqd5CrTss556FQKJVKaZqWyWTWrl3b29vb3t5Op5dF5rnGxsaOHDnS399fWNSr7Lca0JQ9PYQmEAjs3bt3aGiou7u7tbW1yIU6znk+nx8aGjp48GA6nQ6FQvQoO29pd7lyUycPpKyQ4pOV0jashheJZ5zelfZHk7ZhpmlWrSVTyDNZT2jHNgwD573VJ9vOUESdpi4emu3tLZqmhUIhepzkvn37hoaGFixY0NLSUuTTOOemaQ4ODlJuQKlLOBwu+30/dJOraZqURL300ksHDhyYN28ezXYd73F6iqKkUqn+/v5Dhw7R0ygpPfPWgJI7wRhjlmXVcN6wyBxube8hq9NRuIZbEzmVB1KNVoW8pU4Hpnon1c5QXJ3uIdVpNt2NQRdg3OYGR48ePXTokK7rnHN6HnbZ26yqajgcTqfTmqaNjo7+6U9/WrBgwZw5c2Y8Wx8ZGTlw4MDY2Bj1LhQKebuDs1w9kva4Le25cM1zqiKbHltzuvrdmlUmhDBNE1MuNYG8pdKqNsgWcgN6VOgTTzwxf/781tbW4k+XF0KMjo7u37+fcgN6hmnZn4xOz82xLIueVrZly5a+vr7u7u6GhobiM0KGYfT39+/fv5/mlIQQtAK2h2dqlNyJv6jVYEehilHYFWmnXBhyKvdkG62EEPl83rbtOh2b6ppsO0MRdbp7VO1qUSE3UBRl06ZNR44c6erqKvLY8cKUS19f3+HDh1VVpZ3BW25QHF3loSmXZDK5du3a+fPnd3R0FL+jhqZcDh8+PDw8TGmVrusengXGZsGUC24mOaY6vfAhbXqAKZeCwpSLPE2aVeoldanf3aM6LaerPJQbjIyMPPnkk729vW1tbTMO9MPDw5Nzg0Ag4Lbyc0ZUNxsIBAzD0HV9+/bt/f39XV1dVH13vHdxznO53ODg4IEDB0zTpEesRiIRDzfoun22WpHPwc0k00k7s4GcyoM6zamqj6ZcalWmO8vJtjMA+AMKUwGgPtBjhyKRSDqdpkKIvXv37t271+EbaY0yTdMqtLwb3cTJGMvlcsFgMJPJvP76605yF7oUQcUh4XC47EWzbkmbb0nbMCZx29Awt6RtWE3wCbVuCEC9ouJPIQTlBtlsduvWra5yA7pFsnK5AaVVlmUFg8H+/v4jR47M2Dy6H6LQJG/z9WUk8zFK2rahYR5I2zZpG1Z9SFoASqcoCuUG9Fx5V7kB5Tyc80rcIskm7jagR37QrQw7d+7cuXOn8zdSp7zdIllG0h6ppG0Yk7htaJgHMretyjDlAlCiyblBIBAwTdP55Zjq5Ab0qA666DM4ONjX1+cw5KlJVJVa8/UJpT1MoWFuSdswJnHbpG1YTSBvAShdOBx2mxtMuRxTodygcC9NOp2mCtg333zzzTffdPJGTdMKN+HUfOk5mQ9T0rYNDXNL2oYxudtWZchbAEpEMyfhcDiTydDKort37969e7eTN1JKQE+sqMQzTNnEDbpUyhUKhcbHx4eHhx1GfSAQ0DSNHg1f9qJZt6Q9UqFhHkjbNjSsLiB1AQA/QWEqANQNOoONRqPZbNY0zUAg4DAnE0LQo5gqOiFOp76KouRyOVcLiNHT8SORSM2rUgEAAKCMSskNOOeRSKSiE+JUf5LL5QzD0DRN13Un76L7I+miAh7bBgAA4Bt0J2I0Gs1kMqZpusoN6D6DClWlFr4lGAwqipLNZum/Hb6RFvYJhUI1r0oFAACAMpqcGzDGXE25VCE3oFkdt1Mu1DwqDql5VSoAAACUl7fLMVXIDQo34WQyGXqSqfM3VuEmHAAAAKgyepA6Tbm4zQ1ousb5W7yh1MgwDFrf1eG7KK0KhUKapmHKBQAAAKDsUJgKAPWkcKOkaZr5fN6yLCe1qaqq6rpehQv5dGau63o+n8/n87RgSPHX09IimqahtAMAAMB/KDfQNC2fz5um6Tw30HW9cqUdhe+ilc10XTdN07IsJ2+heyZosh6pCwAAgJ9QbkBTLhLmBvSgbk3TaEaIHuQx47tolgZTLgAAAP5TyA1oymXG3KCw7FjVcoNQKERXixymVaqqappGC5IgdQEAAPAft7mBNoFVODegNGnyjJCTKRdqG56mAQAA4D+F51a4uhxTzdyA7qihGaEZX1zNm3AAAAAAZi0UpgJAnaGTQzqVdXiiSOfG1TmrpG8JBAIOlz8ttA0nvQAAAL5ENR70YEgJc4PCzQ0SplUAAABQfTLnBvQtuq47XFUeUy4AAAD+JvnlGLrxMRQKSZhWAQAAQPXJnxtgygUAAACI5JdjJL8JBwAAAGAWQmEqANQlV2eJ1T+ldP6NON0FAACYDWTODSRPqwAAAKDKJM8NZE6rAAAAoPokzw0kbx4AAABUmcy5gcxtAwAAgOqTPDeQvHkAAAAAs4pS6wYAAAAAAAAAAAAAAAAAAAAAAAAAAAAAAAAAAAAAQH1AYSoAAAAAAAAAAAAAAAAAQDlhQQYAAACoI0hdAAAAoF4gbwEAAAAAkAcKUwHKT1EURUFwAQAAQLXZtu3hXZiyBwAAgOoTQnhLQpC6AAAAQPV5y0A0TSt7SwAAAABmhNQFAAAA6oW3u1xUVeWcl70xAAAAAMXhfhWAY0LtHEA5UT3q3LlzY7GYaZo4+wUAAICqURQlHA57eGMwGCx7YwAAAACKEEIEAgFN01zN2gshOOe6rleuYQAAAADH5G3yZMGCBd5urwQAAADwTFEUt6mLaZrBYLCjo8MwDNzlAgAAANXk7S6XefPmBQIBzLoAAABANamqGgqFat0KABmhMBWgzIQQuq739PTkcjlVVWvdHAAAAPA/uktA1/WlS5eyiSdlOLd69Woq88DdBgAAAFAFmqblcrnu7u6GhgbLspy/0bIsTdNOOOGEdDqNRTwAAACgCjjnqqrmcrnTTjvNw9vnzZsXCoVo1qXsbQMAAACYgvKW5ubmJUuWeFjBY8mSJYZh4C4XAAAAqA5VVU3TXLFiBXO5+Jht2/F4nJ6pgdQFAAAAqkBRFMuyYrHY/Pnz2cT9ugBQgFu4AMqPc/6+973vq1/9ajKZDIVCiqLU720HfJJatwUAAKqB/7VaNwccsSxrYGDg6quvnjNnjm3bzjcc59y27YULF77lLW/585//3NLSoqpq/eYtbGIhtVq3AgAAqgpJS30RQqRSKdu23/3udzOXtxrQhr788ss3btw4Ojoai8U45/U7+iPrBgCYbTDlUo9M0xwZGbnooovWrFkjhHD1LDDLsubOnXvFFVc88MADNOVS19sdey8AwGyDI3/dEUKk02nLsm6++eZQKGRZlvM6Dbqn5dJLL920adPevXvj8TjucgEAgPqCI3/dsW17YGBg5cqVp59+uhDCVX0prRxz7bXXfvOb3xRCBIPBut70SF0AAGYbHPnrUT6fHx0d/ehHPxqJRGzbdrtyDIDvoTAVoMzonsiOjo7Pfe5zDz744NGjRzOZTF2nDrlcLp/P13UXAADAOc55Pp+ncyfbtmvdHJgZ57yxsfEd73jHlVdeySbuHnD1diHEDTfc0NTU9PzzzycSiYq1tBqEELlczsODwAEAoE4JIfL5PA7+9UIIEQgEent7r7vuuhNOOMFtdQflLU1NTXfccceDDz745ptvGoZR1/MVpmnmcrm67gIAADiHKZe6wzlvamq68MILb7jhBm9vt2370ksv1XX9ySefHB8ftyyrrsf9bDZb710AAADnKHXhnNPjLGvdHJiBECIUCnV1db3nPe85/fTTXT3DtEBV1U9/+tMPPfTQG2+8kUql6nrQx5QLAMBsY9s2rhbVl2g0esEFF1x//fWBQMDtVqOrRUuXLr311lt/9atfDQ4O1vvdrZhyAQCYVTjnhfsckLrUBVVVm5ubr7/++re//e1u73IBmCVQmApQfnTqu2DBgi984QvDw8PJZLLer9ZQj2rdCgAAqBKc9NYXznlnZ6er50dOeTtjTNO0d73rXZdeeml/f7/b0lYAAIAaQt5SR6g2IxwOt7W1Ma/rnNMExZw5c2655Zbh4eFUKlXvqQumXAAAZhWkLvVl+pSL221HdydcdNFFF1544ZEjR3xQkIzUBQBgVkHqUi+mT7l4eBJK4XFgH//4x1Op1PDwMKZcAACgjiBvqSOUurS2tkYikcJfPHyIEGLlypUrV64cGBjIZrNIXQAAoI4gdakXNECrqjp37tzCX2rbJAA5oTAVoCIKJ4otLS0tLS21bg4AAAD4HK24UuInBIPB3t7ecjUJAAAA4HhKSV0w5QIAAADVVJYpF0VRurq6ytUkAAAAgGMSQpSycEdhyiUajUaj0bI2DQAAAGAqSjw8V3dQgauiKO3t7WVtFwAAAMAxlH61CMDHUJgKUCl4mgUAAABUB+e89JPeen9+JAAAANSL0lMXTLkAAABAdZRryoUhdQEAAIDK45yXuHAHplwAAACgakpfcAxTLgAAAFAdZblaBOBjKEwFqCws2A0AAAD1AnkLAAAA1BGkLgAAAFBHkLoAAABAvUDeAgAAAHUEqQsAAAAAQG2hbhsAAAAAAAAAAAAAAAAAAAAAAAAAAAAAAAAAAAAAHEFhKgAAAAAAAAAAAAAAAAAAAAAAAAAAAAAAAAAAAAA4gsJUAAAAAAAAAAAAAAAAAAAAAAAAAAAAAAAAAAAAAHAEhakAAAAAAAAAAAAAAAAAAAAAAAAAAAAAAAAAAAAA4AgKUwEAAAAAAAAAAAAAAAAAAAAAAAAAAAAAAAAAAADAERSmAgAAAAAAAAAAAAAAAAAAAAAAAAAAAAAAAAAAAIAjWq0bAABTCSFq3QQAAACoYw5zCSEEsg4AAACoLTGhjK8EAAAAqBBXUy5IXQAAAKCGMOUCAAAAdcRt3oLUBQAAAKqGc17rJgDIDoWpANLB6AUAAACloFyi8L9TUgs+Qdd1ZB0AAABQW5qmMcZUVWXHylsKf1QUhXNOLwYAAAColcmTLUVSF03TOOeU4QAAAADUBKUilJYc82IQplwAAABAHpSNKIrCjn+1iE3kNphyAQAAAACQCuYWAeRi2/b4+HitWwH/f9JW7Lh97pdvOsJk7Qs6IiGEiWzQkaoRQnDODcOwbds0zekNtizLNM2hoSG3txrIuUUY4l0+vukIm8V7FzpSab4JE990hM3ivau2HbEsS1XVVColhDBN07btwj/Rf1M+k0qlRkdH6cVFPk3OjeKbMPFNR1i9hUkRvtko6IiEZm2Y+KYjTNa+1HtHClMupmnm8/nJqQvhnJumOTo6Ojo6ats23U9Z+KfqNtapWRsmvukIk7UvvukIm8V7l286wmTtCzoiIT+FCaUio6OjlLdM79rkKRfbtuUs8PDN3uWbjjB/hYmr1/umI0zWvqAjEprNYQJTVGHj0gWgdDpNKcr0KRfGmG3bY2NjY2NjU6Zc3JpVu0Tp265yPxfa5k2JbZtV+z+TeGzyZpZsPpkDEGYnIUQ0Gg0EArVuCIDUUJgKIAs6YT548OCXv/zlUCh0zLNrqDLO+djYWD6fl+f8hHNuWVY4HG5oaHC+kyiKMj4+ns1mVVWVLeduaWlx/mLOeT6fHx0dLWV2qRJs225ubtY0zeHPyzm3bXt4eFieXYtN7F2NjY3BYNDVIWhkZMS2ban6Ytt2IBBoampy3hEJ450xJoRQVbW5udl55CqKks1mx8fHEe8VUkfxnsvlbNtOJBLH/NdDhw7ddttt3kYTqTaKh3hXFCWVSqVSKanCBPEuW7zTsBiLxSKRiKvRhG70kWc0KTF7lGqj+CbeGWNCiKamJuejiZzx7pvsEfEuw9miaZqMsSkP6qLRhHPe1tb28ssvb968ucgnyDmaMPfxTttxZGREnl2L+SjeGWO2bQeDwcbGxrqOd+Y1e8xkMolEQqrRhPgge2T+incPo8nY2Fgul5Nqo3iId0VRkslkOp2WKkx8E+8eRhM5451znkqlotHo8a7jBIPBu+++e0qbJRxNEO8SxjtjTAjR3NzsvFUyjyY+yB5xtihhvDPGOOfNzc2uXi/haMIQ75LFO/Pv2aJt2/F4/JivpCmXF154YdOmTRJmjwzxLmW8RyKRWCxW76OJb7JH35wtMsZs225qatJ13XmYSBjvFCYNDQ3hcLiuR5NZHu8whaIouVxubGysOseNfD7Ppl0tmuzOO+8sZR/zcLm5rtFjSgzD8PajeRhoXCnlpMC27VAoFI/Hy74pC0+d89YwbzMJDpV4zwC1zdWA6wMSnnt6I4TQNK2pqcn3205RlEQikclkShl3XF12BChOVdXR0dEPfehDl1xyyYwPUgeYzVCYCiAX27YtyxJC+D59rBfZbNYwDHnOTOj8kHJu56dMQohcLldisl4hbk/8LMvKZDJSzWMyxmzbbmxsdBW5tm1nMhl5di02MbESi8XcHoIymYxsJ/C2bYsJzt8lW7yziTkFVx2hlabS6bTze2GrBvFe0YZNpyjK8X49zrkQgp6Q7WE0kWqjuI13Wtskn8/LFiaId9l2LRoWQ6GQh9FEqsccUEc8Z49SbRTfxDtjTAgRj8dd9UXCePdN9oh4l+FskXM+ffeORCKFXlCnin+IhKMJcx/vDGeLFUY7Ur3HO0P2iHivGJ9lj8xNvEubPfom3gt3Zbnqi4TxTnERDAaj0ejx8hM6eZnyR9lGE8S7hPHOGBNCNDY2KopS76OJh3hn8mWPOFuUMN4ZY5zzxsZGf2SPiHep+uLXs0VFUaLRaPHXy5k9MsS7fPFumiaVMdT7aOKb7NE3Z4uMMdu2GxoaXLVKwninMAmHw/U+mszmeIfphBAUbtW5inTMq0WT5XK5Uj7f2+1k9YsC0/PTqD0MNK6UclJAb6xQ20rJxOgQGgwGK9G2EsfxwgMUZEsDKkrCc09vhBA0NPt721HibRhGieOOPzY6SIJSYnrSOgAUgcJUAOnwCbVuCDDOuaqqqqrKszmoJYqiuNpPOOeKolBfZDszcbW304tVVZVqHpO5D9tCR+TZtdhEoZqHQxB1RLa+uG2VhPHOJh4+56pJhb0L8V4hdRTvM+4AfBInH1gYTaTaKN7iXcIwQbxLuGt5GBapI1JNcVJHPGePsm0Uf8Q7m5hPr/eO+CZ7RLzLcLZ4zKtoU37e4j2SczRhJcS7PLsW81G8sxLOFqWKd4bsEfFeMZ5HE9q1pNoovskefRPv1AW3u5aE8c45p7sYbdsu8uCMKX2UcDRBvEsYJsxHownzdLlTtuzRWxqMeK80D1tEwtGEId4li3fm67PFGR/1RccHCYdFxLtUu9aUYbGuRxPfZI++OVtkfol3n2WPszbeYYoqHzdmrLmivMXz58+2XaLEwPQw0LhSyrbgnBdOcsvbqhIzMW9jgdu2eYtHPun0rbwNk5lvQr7S8SgPXo67F/yx0UESFTqkA/gPClMBAIqR8Bkzntvjmyd+SdgLb+2RrReshI7I1hdvTfJNRxjivZJ8E++eybZRfBMmvumIZxL2wk/Douc3StUXP4UJOiJVL9is7wiTcu/yRsJe+CZ79FOY4GxRwu54IGEvEO+ybRTfhIlvOsJ8NJp4I2FH/LRr+akvVXtXRfkm3tERCfvijYQdQbzL1hecLfom5CXsBeJdto3imzDxTUeYv0YTb+/yU0ek6ots7alfUm3cUpohTy+qppRtV+mfq5TPr/R2LHE3K2NLjvn5pWzTsrdHcr6Jet90xCGpxh0AAHBCogcUAQAAAAAAAAAAAAAAAAAAAAAAAAAAAAAAAAAAAIDMUJgKAAAAAAAAAAAAAAAAAAAAAAAAAAAAAAAAAAAAAI6gMBUAAAAAAAAAAAAAAAAAAAAAAAAAAAAAAAAAAAAAHNFq3QAAANkJIWrdhL/iuT1iQnnbUwrOuYd3ydYLzyTsRSl7V3lbUiJ0BPEuGwl7UeLeVd7GlMI3YeKbjjAfxTtGE9k2ip/CxBsJO4Iw8VNHZNu7fDOaeCNhLxAmfuqIbJGCeK91E6ZC9ihbmPimI8xrX2TrBcNoIt9G8VOYeCNhFxAmfuqIbH1B9ljrJkyFMPFTR2SLFMR7rZswlW9GE9+EiW86wnC2KF/II95hCgmPG974oAseeN52Vfi5pD1slvL5VWibP+KxavzxW/mjF86Vsp97O5EEAIASoTAVAKAYRVE0TZMnVeUTPLxR0zRVVaU6RfHWGE3TFEWuFb8ty/LwLlVVpeoI59zbFlEUxdtuWTm2bXtoj2zxzhgTQniOd03TEO+V4Jt4Z54mYmjvkqov3uJdwjBBvMu2a3keDmQbTRDvcoaJbdtu3yJhR3yTPSLecbZYUR7inUmZPfoj3hnOFuUbTRjiXb54Z8geJQsT38S756OobLsWskfEe0V5G02k2rVYaWEiVfaIeJcw3j2TsCOId6nineFsUcph0RvEe4X4aTTxTfbop3j3dgletl0L2aNv4h2mK34ViTa6JD+1EKLIyDsLdwk6wngLTG8DjXOlnBR4y6+c83xYrvQOVso4zjk3TbMSrZJZ8d3M883YlVD88FXpeJRKiXcvVPr4AAAAx4TCVACAYxNCaJp29OjRvr4+XdclmZOl88MVK1a0tLQ4nJkVQqiqOjIysmfPnkAgIFVHmpubOzs7HTZJCKEoimmaO3furHTznOOc27YdCoU6OjpcvVEIsWfPnnw+L9UZo6IoLS0trt7COT948GAikZDnRnbOeT6fX7RoUUdHh2VZTn5haeM9n893dXXNnTvX4a5CcxCZTGb79u1SdQTxLlu809514oknKoriajQZGhrat2+fVKOJ23hnjCmKkkgkZAsTxLtU8U6EEKeccgqV4jjcKKqqHj16tL+/X6qNgniXLUwsy4pEIh0dHc7DRMJ4J4qitLa2unoL5/zAgQPJZFKe7JF5infKHv0R78PDw3v37pUq3mk0mTt3rvN8XsLRxEO8EwmzR+b1bFG2eKcwWbx4cXt7u9uzRQnjvbu72zfZI+JdnninvWvVqlXOm1TIHvfv3y/VaOI23tmk7FG2jvjgbJGoqup8NJEz3okQYvXq1f44W0S8S9URz6PJ7t27TdOUZzRhLuOdSJg9slkf78PDw7LNDpmm2dLS0tnZ6TZ7fOONN+SJEcS7hPFOYbJkyRJXZ4vSxntPT0+9Z4+IdwnjnTaKb7JHV/HOGFNVdXx8fMeOHbJ1xAezQ2xi/s35tQY5450IIdasWeM2ezxy5Mjg4KA81cKzPN5hMtqT8/n88cKNc64oSjqdNk3TW4V5eVERZjgcptt7pvwr9WXhwoWuLjfXLzpa9vf3Hz582MNhn36uefPmOR9o3H6+5xsOCzfQ0iXR8raNjuElZmI0FpSxVWwiHnO53I4dOzwMGRQUwWDQ7T1vda34uaeqqrlczjAMy7JqPnIpiqKqajgcVhTleIev3t7ezs5Oqa4oVYKqqqOjo7t27fKQUdDBoa2traurC+WpAABVhsJUAIDj4pynUqmhoSHZZs3cnvdyzrPZ7NDQUDAYlKojgUCAu1l3hV48PDxc0ba5QheT4vG4h/O90dHRbDYrz8MChRC6rrt9F+c8kUgMDQ1JNUtuGEZPT4/bMJEw3g3DaGlpcdsR0zSHh4fluZhE8a7rOuJdnnj3PJpkMhnZRhNv8W4YBuK9EnwT70QI4WGWU8LRBPEu2xYxTdPDFpEt3pnX7JExlkgkhoeH5cke2ayPd5nPFl29y7ZtqUYTb/FORkdHc7mcPJcVfRPvNC709vb642yxtbW13kcTz/EuW/ZYYrzjbLESPMc7ZY+ydcQHZ4uMMSFEIBBw9RYJ473AQ/aYTCZlG00Q77J1hG7kdTuaCCFGR0cNw5Aqe3Qb72R8fHxkZESe7JHM5niX82wxGAx6O1uUJ0YQ70y+eKdxYd68eW73Lgnj3TCMtrY2tx3J5/NSZY+Idwnj3fPMdjqdlm008RbvEmaP3maHZIt35vVsUbZ4L/CcPcqzUWZ5vMN0xws3mrdJp9MrVqxYsmTJggULavhIBbqKceTIkV27dr3++uumaYZCoSlVSbRLdHd3z55dohCY3uq7crlcd3d3heauS7nhkIazyk2qCyFGRka8lf9RoX6FHsFTmPX19qOZptnU1CTP44GqgHazY/5inPPx8fGFCxcuX758xYoVNfxZ6PDV39+/c+fO7du3ZzKZSCRyzMNXR0fHbDh80cHHW0ZBP1RjY6OqqrPhAQQAAFJBYSoAQDH0JC2proo5fK7e9DdK2BFvEwSaJtHgxTnnnKuq6uG9tEXkufWQnkPp4Y0Sholt2x7CxDcdQbxXiJ/i3fNogjCpED91xB/xTrz9qhKGCeJdto4wxjyMJrJ1hJWQPaqqKmFfPLxLwjDB2aJUo4nneGeMaZom1dUy38Q7zhYR7xVSYrzjbLES/BQm/ugIK2E0kSreSyFhmCDeZesIK2E08fYjVIhvskfPJAwTnC1qmiZPjCDemXzxjrNFxHuF+CneqSUIE3SkEko5W5QnRkohYZiw2R3vMN0xw00IYRjG5z//+Y997GPhcLjmj+qgeiTLsp5++ukvf/nLR48enVLUNDt3Cc+ByTmv9IWqUtpW6Z2NWuW5MLUSTSKex3HqizxXIqrmeOeehmHcdNNNt99+e2trq9vHp5Ydn3ig2Isvvviv//qvO3funFKbOtsOX6Xs57PqhwIAkIpPruYCAFSOmFDrhvyF55b4qSPlbUmJPP+qEm4R7F3oSIUg3mXbIgx7FzpSMb6Jd4aNgo5UjG9Gk9I7IlVfPL8RHakE34wmJYZJ2dvjGeKd+StMfNOR8rakRL4Z3xn2LnSkYkoJk7I3plYk3Cie34iOVAKyRwmzR89k64ifwqTKb6wQxLuE8Y4w8VNHytuSEvkm3hn2LnSkYkoJk7I3plYk3Cie3+iPjsAU039JRVGy2ewXvvCFW2+9dXh4OJVKJZPJmrRtMqpXfMc73qGq6ic/+ckpSw6y2bpLeA7MKvxc0rZN5hRO2h9NTtPPPRVFSSaTV1999Te/+c1UKpXJZNLpdG0bySYqhy+44IL29vYbbrghkUhMWcR1tm0+7OcAAHUHhakAAAAAAAAAAAAAAAAAAAAAAAAAAAAAcFy0NuncuXOvvfba0dFR27alWoaxv7///PPPP/PMM9euXRuLxaaXpwLAbCaE0HX92muvNQwjl8tVdIVbtwYGBlasWHHRRRf97Gc/a2pqsiyr1i0CAABwCoWpAAAAAAAAAAAAAAAAAAAAAAAAAAAAAHBcVJi6YMGCUChUrqpUKh8ty0cpimLbtq7rWDdvMs45LcnoUDV/PVfbvcqb1W3bqtY8txsUCOc8n8+3t7fPmzfPMAypiurZxOFr1apVtW6ILNxuIBz2AQBqCIWpAAAAAAAAAAAAAAAAAAAAAAAAAAAAAHBcnHPLsrq6uiKRyPj4eFkqu8LhsKIomUym9I9ijHHOUZ40RS6XM03TYSmjoiihUKjSTSpIp9MOt5cQQtO0qrVNCJFKpZy/WNM0Xdcr2iRC1ZW5XM7hBhVCBINBFLIWcM4rulBqKRX7nHPZymVrKJPJOF/1mnNezQMXAABMgcJUAAAAAAAAAAAAAAAAAAAAAAAAAAAAAJiBaZrlKv5UVXXbtm3pdPqkk04qywfCFLQGY2trq5PaVEVRksnka6+9xhirdCmjEIJzftZZZ4XD4RnLz6jys7+/f+fOnVWosbRtOxaLnXnmmU6+i9o2PDy8bdu2ilY8MsY456Zptre3L1++3MkGFULoun7gwIHdu3ejNrU6YrEYlVvjBy/RaaedFovFnNSmUrX21q1bDcPAzw4AUBMoTAUAAAAAAAAAAAAAAAAAAAAAAAAAAACAGZSl8ofK+RKJxD/+4z/29fXde++9J5xwQiaTwYKBZUT1Wm9729vOOeecVCpV/LelpTV37ty5devWqhV3XX311d3d3TOWk9m2HY1Gn3jiiVdffTUYDFa0SZxz+robb7xR1/UZa7Bt245EIuvXr9+8eXMgEKh023K5XFdX10c+8hEni6ZShe1///d/b9u2DQV7VcA5/8lPfvLud787EAhYloXf3BuKwcsvv3zZsmUz7ueFyvDXX38dy2UDANQKClMBAAAAAAAAAAAAAAAAAAAAAAAAAAAAoIKEEJPXErQsS1GUQCBQWP6RXsAYQ4VqueRyuVQq5aQw1TTNTCZTtYYxxtLpdCqVclKYyhir5nKIQohUKuWwMFUIkcvlqtMwWjQ1lUo5LEyl4mRUSFaaZVlNTU2//e1v77rrrnw+//GPf3x8fLzSK+j6WyaTcbKfU2EqrVJbtbYBAMAUKEwFAAAAAAAAAAAAAAAAAAAAAAAAAAAAgEqxbVvX9WAwmM/nqZCvUIxa+A9d10OhkG3b6XQa1XRlwTlXJhR5mRBixteUXaFhM25rJ68pL2qYk2q3KretsEGdfGn1f7dZyLbtUCi0b9++733ve/F4/O67725pabnuuusGBwc1DaU6Hjk8ONTkwDWjYx43EIkA4GNyHYUBAAAAAAAAAAAAAAAAAAAAAAAAAAAAwDcsy2psbHz99dc/+9nPHjx4MBAITCndEUKoqppKpb7xjW/86Ec/isVitE4meCPz+oHStq2wYK+EZG4b6Lr+H//xH0ePHv3CF76wevXqb37zm+vWrWtoaLAsq9ZNqzM+2MlpEdfAX9M0zQddAwA4Hg3F9wAAAAAAAAAAAAAAAAAAAAAAAAAAAABQdrZtRyKRN9544+tf//qGDRuWLVt26623JhKJya8RQoRCoVdfffVnP/tZMBjUdf2jH/3o8PCwqqq1anZda2xslLBGgMqP4/H40NCQbM2zbTsYDEaj0VQqVeu2/BXOuW3b0Wg0FArlcjnZfrdZjkruf/GLX/zud7/7wAc+cOONN5511lkf+9jH/uEf/uH+++9va2vLZrOyrecpLSFEPB53uFKxhGj5Vl3XBwYGDh06RJuehr+enp6WlpZ8Pl9YIbwIegHnfEo5Ouec/jj5G4t8SOHFhY+a8gnTvwIAwBvNNM3pf+VFMcYwQIJUCntm1d4IAAAAAAAAAAAAAAAAAAAAAAAAAAAAxdFSqHfeeeeuXbve+ta3Xn311el0esq96IqipNPpU0455Yorrvjzn/987733Ll269Kyzzpr+SnAiGAzSfwghbNuecfnZKS+rXKkS57ywXq49ofi93PSaQpMq1DZa51DX9cltm/G7Cl1glVzUVAih67qqqvQVTn409tddQO1ZJVDN4fbt2//t3/7tjDPO+OxnP9vX19fZ2fnFL37x85///B133PHd7343Go2iNtUhIUQwGKQd2+HBoWoHrhnRAcQ0zY0bN+7evXvyIVcIsWvXrmXLli1fvlxVVcuyinRKCJHL5QofqGkaVbcyxvL5/JQ1eAOBQKHWlPquqiq92DCMyW2gA++UPxb+Xp6fYBabXGfn7Y0oaIK6JoTQGhoa8vk8ZVGTd+sp/z39L6FQCA+hgYpymBwIISzLymazHpIJRVEymcyMp1sAAAAAAAAAAAAAAAAAAAAAAAAAAADgimVZzc3N//mf//n666+3trb+r//1v+bPnz86Ojq9GIaWm/vc5z735ptvvvnmm/fee++ZZ56Jag0PqL5LURTTNIPBYCwWYzOtSkUr1kYiEcYY5zwcDs94VzaVFbi9B5u+iP47EonEYrEZVwG1bTsWiwWDQarUCoVCFSo/o/oI2g+j0WggEJixd7SWaTgcpgVXCzW35UUrzQaDQdu2NU2LxWKapjkpTI3FYtSLUChUKG9zjtauRFErmyiApCAq/PL0k/77v/+7ZVl33HFHOBxOJBKGYVx22WXJZPLzn//8//7f//sf//EfNU3Db+iEECIQCGials/n6eAw435ONduGYdDL6Ah2TCXW/hUPBIrQVCr13HPPjY6OFp4LMPkFr776an9//znnnFPkwEK/wPz581VVVVV1cHBweHg4m82GQiHbtufMmROLxSa/98iRI6ZpGoZBJay2badSqVAoxDnv7e0tHI4456ZpHjp0qKuri47tVMvKOTcM4+jRo55/FiDZbDabzU4pG54R7TaGYViW5fBIi4wIKo0GOzZx0Jv8eAv678kK71IURfv//r//b3R0tJBrFt+hp7y5Il0BmGCa5quvvtrY2Fj8ZZZlGYaxcuVKJ4ubT2fbdjgcZjhSAwAAAAAAAAAAAAAAAAAAAAAAAAAAlAlVDQ0NDT399NOWZb3zne9cs2bN8PDwMddG4pxns9mOjo5bb7317//+73fu3Ll58+Y1a9akUincte4c59yyrJaWlmg0aprmc889t3PnTtM0Z6zvUlU1kUgwxoLBYEdHR/Fl/aiiiaox3bats7OTKqYeffRRKumcsW2aph09elRV1YaGhqampiJtm/535zWBnPOurq7du3en0+mHHnrIyY3l1LbBwUFFUdra2iKRSJE62yl/d94wqjSeM2fO4cOHjx49+tOf/nTGDcomom/v3r2apnV2dmqaNmMN8JTWZjIZRVEqVG1bRyzLCgaDoVDIMAzGWD6fp1W1mpubf/zjH//5z3++7bbbTj755Fwu19LSsnPnzvvvv/+RRx4JBoOvvvrqrl27Tj75ZPola90PqdHBIR6PNzc39/X1PfHEEy+88ELxoxCbeJyBYRimadJ+fszjCX04bT5vAoEALVl8vMYzxl566aWxsTEqIp3+mnA43N/f/8orr5x77rnH7BcdVLu6uv7hH/5heHiYOhIIBNatW/eb3/wmm81eddVVZ511VqFAWgjxpS99ac+ePaeccsqHP/xh27Z1Xd+0adP999/POf/4xz/e09NDL+Ocj4yMfO5zn7v++utPPPFEqi5TFIVzfvjw4S9/+cvYOb2hTObCCy9cs2aNh9+QNs3+/fsTicSUkuMpL1NVdWRkZMGCBU1NTd4KpgAqhKrcA4GAFolEijwbAKC2+vv7W1paiqSz9AiHbDbb2dlZzYYBAAAAAAAAAAAAAAAAAAAAAAAAAADA8VBB3euvv/7mm282NTVdfPHFuVyuSP0GLTp3yimnLFiwYOvWra+88soZZ5wxy4viPLBtOxAIdHd3j46Obtq0KZ/PO6+x5Jz39PREIpEi7+Kc5/P5rq6uaDS6Z88eV0UyVHs2Z86cgwcPPvvsszMWnhXapus657y7u1tV1eO9i3Oey+UK/0rvmrw+oaIoRd5rmmZbW1tTU9PY2Ngf//hHh/U/9C26rvf09BRZkpTqrgtVcxQak0vdLMuiUrFjvt00za6urh07dhw9enTfvn0Of3PapvF4vLOz00kta4GiKKlU6sorrzxw4MDmzZsjkYjb1VZ9w7bteDw+ODj4k5/85M9//nMkEvnqV7/a2NgYiURee+2173znO2eeeeYnP/lJRVEOHTr0i1/84uGHHx4dHT311FNvu+22K664IhwOZ7NZFP45QRHX29t79OjR9evXO9xjqWxPUZSOjg6qWp/yAir4jMfjtAqa2wGFyq4OHDiQSCQ0TTtmAwKBwLZt2wYGBo5XlcoYo4WLDx06tGfPnkWLFhVWeZ1CVdXh4eGvfOUr2Wy2qanplFNOef/7379///4//elPjLH/+q//euONNwqrRg8NDcVisQ9/+MPPP//8K6+8Eg6HP/WpTw0ODv76179WVfVnP/vZa6+9Ruu3maap6/oDDzxACzt/4hOf+NnPftbf38+wWmHJSizHy+fz4XC4sbHxeAuu0mFc1/Xu7u6GhgbPXwRQUVgZHORlmmY+nzcMY8bCVHr0SCkPAJDnyQEeMh4AAAAAAAAAAAAAAAAAAAAAAAAAAADZKIrS19eXzWYXLFjQ29s7pRpHVVVVVSf/xbbthoaGFStWbNq0ae/evTMupwnT0c3VixYt2rt3bz6fL1QxzfguIYRt20uXLi1+5zZVWN1yyy1z5sy588479+/fT4tq0ic4aeHSpUsPHz7sfLVV6lEkElmwYMHxKmap8nP+/PmF4jRVVY8ePdrX11f4olQqRQvTHbOdVNC7cuXK559/PhaLOeyLoii5XG7u3Llz5sw5XtuEEKZpLlu2jOrWOOec83379o2PjweDQVp+Mx6P53I5wzCmL8xI6z02NzcvXrx427Zt8XjcYZmooiiZTGbhwoUNDQ3Ol0uldy1btuy9733v+Pj4nXfeOTY2Nrm+d/awbTscDv/xj3/81re+dfjw4ZUrV7KJOrF0Ov0v//IvoVDoi1/84pYtW+6///5nn302lUqdffbZN9xwwznnnBMMBtPp9PHqD2E6qnjv7e3dvXv3+Ph4OBx2XlKRz+dXrlw5vfKcDgsrVqy4+eabm5qavDXMsqxMJvPggw+uXbt2SpE2lcWmUqmdO3fOGCP04u3bt3d3dxcpB6UDKed8fHz8l7/85Yknnjhv3jzTNKn4effu3fTLUDc7OzuFEI888kgymbQs69577z377LNpVD1y5Mju3buj0Sgdc3RdP3LkSD6fp78cPHhw37594XD4mNW2MFnx/dBz4Q9tRMMwqGCqSGGqbduFoiqsmApy0rBfgrT4BCevoZf5YH/WdV3TUDEOAAAAAAAAAAAAAAAAAAAAAAAAAAB1jOpwDhw4kEqlli5d2tjYmEgkFEWhu2SFEKOjoyMjI5NXxqO3dHV1WZaFghnPbNuORCInnXTS+vXrqSxzxjuTqRzxjDPOaG5unl5NR/WoVExl23YwGKR618n3PFuWNb2ocgqqPWtvb1+1atWmTZvC4fCM5Y701aZpnnzyyYFA4JjFn9T4888//4wzzkgkEqqqMsZM02xtbX3llVcef/zxcDicz+fPO++8np6eBx98kMpBj9m23t7e4eHh7du3OynopbIiXddPOumk43WEPvbqq6+eN29eJpOh/V8IceWVVz7yyCNbt24VQpxyyiknn3yyaZr/8z//k06nj1mbahjGypUrx8bGDh8+XGRhxim/SXNz8/Lly12VR1qWFQgEbrzxRtM04/H4pz/96bvuuss0zRk3rs9YltXQ0PDiiy/ecccdy5Ytu+eee9asWSOEyOVy4XD4u9/97rZt2y655JJ777334Ycfjkajl1122Xvf+95ly5YFg8FkMkkLpfqgtKGa6Ph/yimnrF27lkpMZzyeCCEMw1i9enVHR8cxD1yMsUsuuaSpqWlwcPC3v/2taZqaplGt5vE+nP5JURTDMGKx2FVXXRWPxy+++OLnnntuetypqjo0NETHgRkDRFXVdDo9Ojra0dFRpI59fHw8l8vpuh6Lxdra2nbt2lWolOGcK4pi2zZVnyYSiUAgcN55561fvz6ZTG7cuPHVV1+l41vhxfSrMsYCgYCmacFgkHMeCATC4fDsLDh3hX6r4i8o5cOnFEPN+LISvxGgQpCvA8iCztbmzp3b3Nw8NjaG8lQAAAAAAAAAAAAAAAAAAAAAAAAAAKhroVAoEAgcOXKEqvLYRKlhMBj8xCc+kclkjleig4IZz6iOcd68eblcbuPGjbquq6papHJSCJHJZFasWLFo0aJjFndZlqXreiaTKZS50qcVbnWmUliqknJSm7ps2bJkMrlr1y6qkipSIWZZlmVZp59+eldX1/EKLPP5fEtLS1dX1//5P//HNE02sVLiySef/J73vOfxxx+n1VDD4TAVaBVpm2maJ510UiaTOXDggK7rx2sb1QhRNdq5557b0NBwzH2YmrF06VLTNL/xjW9QwZiiKOPj4+95z3vWrFnz0ksvNTQ09PX1/ehHP7rppptisVihsHYKqi477bTTcrnc8PAw1UoVaVs2m21sbDz33HOnLyNZhKqq4+Pj11577YIFC374wx+2t7dfddVV11577X333Vf8p/MZIUQoFNq3b98///M/L168+O677+7s7Ewmk+FwuLGx8ZlnnvnVr37V2Nj4xBNPNDY2fvazn/2bv/mbhQsXCiHS6XQul6O1oGvdifpDAdjW1nbWWWe98MILjDFd14scuKhkfdmyZcuWLTvmgYuKqxcsWDA6Otrc3LxixYrvfOc7nPMZq6ypKjUYDH7uc58Lh8P0SIXjLXOaz+edF30UDp7HRAfSj370o7Ztj42NLVy4MBQKrVu3LhKJmKZ58803j42NKYoSCAQOHjx4zz33JJPJ//7v//7Yxz527bXXbt++/cEHHzxw4EAgEDAM40Mf+tA111zDOQ8Ggy+//PKDDz5Ia6UWHgxxvLWjocC2bU3TFi1axFAOClAUClMBJEKPr+jq6hoYGAgEAsdbkhsAAAAAAAAAAAAAAAAAAAAAAAAAAEBmVBe0ePHiWCy2Y8eO3bt3L1++nBYSFEIEg8H3v//9nPNUKlUo6qOqxd27d6uqGggEUAriWaH+U9f1rVu3ZjIZXdenF1bZtp3P53VdP+OMMxYtWjR59VqiKEoqlZo3b96nPvWp3/zmNxs2bKCVbAsv45zTaqXXXnvtI4888j//8z+xWGzGomLLsk499dSGhoZXX32VVsed3jbLskzTjEajJ5988rx584os+ymECAQC6XRaCNHY2EjLIVKJbCaToV7kcrl169ZddtllM+5Utm2fc845sVjsjTfeKN62lpaWNWvWtLW1FW9bMBgcHx8PBALxeLyw8KxhGIZhMMY0TTt8+PB55523ffv2w4cPH3M1VzYRTcFg8G1ve9vLL7988OBBeu+U7xVCmKZpWVZXV9epp54aiUSOtzDjdIqipNPp5cuXv/Od79y0adMzzzwjhOju7n77298+MjLyq1/9qrm5mep+fc+27XA4/Mwzzxw8ePCHP/xhZ2dnIpEwTfOJJ57o6en51re+NTY2tnr16re97W2XXXZZb29vNptNJpOMMUVRUJJaisLCxaqqbtq0KZFIaJo2/SctHLhWr169fPnyXC53vJ2cNuWGDRu2bdv28Y9/PBqN3n333ZxzWjf1mG+hqtSGhobbb7998eLF3/72ty+++OKOjg5ahnT668tY3klfoaqqpmlXXHHFyy+/fOedd1KpM+f82Wef3bNnTyAQoMMyLYj69NNP7927d9WqVW95y1vuvPPOu++++6WXXtJ1ff369VT5ryjKwMCAkwVdYTJ6LEI8Hu/s7GQoTAUoCoWpABKh8f7CCy/cuHFjrdsCAAAAAAAAAAAAAAAAAAAAAAAAAADgEZUY9fT0NDU19ff379y5c/Xq1el0mgrzhBCjo6OMMUVRqORDCKHrel9f38aNG8Ph8FlnnVXb9tc7WtJz4cKF7e3tO3fuPHToUCaTmVyLpShKMBjs6elZtmxZU1PTMZccNAyjq6vr7/7u7zo7O1etWvXCCy9QYep0sVjsmmuuOXDgwKuvvhqJRJzUpi5fvrytrW3nzp39/f25XG5K2yKRSG9v75IlSyKRSJHKz8lM0zQMgwpTDcOYvFIo5zwajeq6PuOHMMby+fyqVat6enp27dp19OjRTCYzuaZL07RYLLZw4cIFCxbouu6kbUKIfD5PbaOyN+osFZhdeeWVJ5544uOPPx4Oh6fXBhdQoZSiKGeffXZfX9+uXbsGBwcNw5jcNl3XW1tbFy1a1NvbS1/qvJ6KqnBvuummVCp1//3367quadp//dd/BYPBq6666vDhw+vXr6e6X4cfWL9UVU2n03/+85+XL1++atUqqjv9p3/6p82bN+u6vmDBgn/913+96KKLmpubM5nMyMhIkeU0wa3CYaelpWX37t379+9PpVKTl/tSFCUcDi9cuHDJkiWxWKxIVSqh9W8fe+yxaDR6ww03fOpTn7r77rtpMczpO7OiKNlsNhgM3nrrrYsXL/7+97//7LPPXnnllUWqOo93SCzSnuP9k6qqqVTqBz/4QTKZXLFixa233trT07Nz507GGOd8y5YtmzdvDofDtH6yqqq9vb2xWOy11147cODAo48+evXVV1966aUvvviioiivvfbaiy++SKukapo241rWMIWiKMlk8vzzz6fhDAEOUAQKUwEkQuvCr1mzZunSpXv27AmHw7MhdwcAAAAAAAAAAAAAAAAAAAAAAAAAAJ/hnOdyufnz559xxhkPP/zwr371q/POOy8Wi+XzearxmLIOnmmazc3NP/nJT/r7+3t7e9esWZPJZFANUgoq8QqHw2vWrDnhhBMGBgYSiUShMDgejzc3N1Pl0vGqKy3LuuGGGzo7O7du3XrfffdNv7dZCBGNRteuXbto0aILL7zwpptu+trXvpZOp+mm6OLNMwyjubn5rLPOSqVSIyMj4+Pj1DbbthsbG9va2kKhkGVZM1Z+0p4WiUTa29s1TTNNU1GUfD7f2NgYDAapkVQCunbtWk3TnBRo0dvPOOOMVCrV398/uaC6paWltbVV1/V8Pj9j5SfVuTU3N7e2tkaj0Xw+TytAxuNxXddt2w4Gg1u3bt29e7eTolnOOZWbzpkzp6OjI5lM9vX1URuoj+3t7U1NTaqq5vP54y3wyDnnnE/ZjvT7vP/97583b969997b19cXj8ep6vLRRx9dsmTJhz/84UQi8eabb86SpRdt285kMg0NDYFAIBQKvfjiixs3buzu7h4YGDjhhBPe//739/X19ff3W5YViURq3Vi/oQOXpmknnnjikiVLBgcHR0dHCweHhoaG9vb2cDhsWZbD0ms63D322GO2bd94442f+cxn7r77btM0pxymqGg8GAzefvvtS5cu/d73vvfcc8/RQsfH+2TbtuPxuMNlcmltZ/rAIs2Ox+PRaPSNN97Yu3fv9ddf/6UvfYneSyup0hFMUZRMJjN37tyrr7769ttvb2pqymQyzzzzzIoVK+jAUnixbdtCiMmllbMhfktnWVYwGHzHO95xvAMpABSgMBVALpQoXHfddV/5ylfYxPlDrRsFAAAAAAAAAAAAAAAAAAAAAAAAAADgmmma73vf+5555pnt27f/+7//+9e//nUhhGEYkyt5qGamra3tySeffOihhwzDuOKKK+bMmTM6Ouqw4AeOh5bZtCxL1/V58+ZNLrCxbZtKUull09+YzWZXrly5YsWKfD7/6KOPGoYRi8UmL11IhBDBYPDBBx/s7u5etmzZWWed9eijjzY0NMx4CzTn3DRNxlg4HI7FYlPaVihJnbEoSNf1kZGR/fv3f+pTn8pkMvF43DTNTCYTDofXrVtHb6ffYXBw0OHyhoW2hUKhhQsXTmkbLc06Y9vol3nzzTdPPPHEW2+9NZvNNjY2ptNp0zQDgcDDDz8cDAYVRTlw4AD9qsFg0EkFFK1FzBiLRqNLly6d/BZrwvHapigK/TihUIhPUFU1mUyeeuqpl1566aZNm5555hld18fHxxcsWHDJJZecffbZmqZls9klS5bs3LlzNiy9SKs367pOS9Tmcrlly5bFYjEqAz7zzDOHh4eDweAPfvCD3//+9z/4wQ/mzJnjcFFfcIhqKGik6Orq6unpKfyTEIICkB3rwHU8lmXF4/Hf//73jLEbb7zxlltu+Y//+A9aJbiwfLFhGKFQ6HOf+9zixYu/973vrVu3rrGxMZVKFWmkZVnNzc3d3d379+8PBoNFSlip2nbp0qWxWOx4ewvnnNpjmmY0Gn3ssce++MUvnnHGGU899ZSmaT09PalUKhQKUd1pf3//li1b3vWud73zne9cu3Yt5/xDH/qQYRi5XE7TtK6ursWLF9OjBDjnfX199IsxxjRNw75anKqqIyMjH/zgB1tbW7FcKsCMUJgKIBdFUWzbXr58+fXXX//Tn/60ubmZnlFR63YBAAAAAAAAAAAAAAAAAAAAAAAAAAC4oChKOp1etWrVdddd9/3vf3/t2rV33XXXzTff3NzcbBgGFdepqhoKhfL5/D333PPTn/50fHz8ggsueN/73pdMJlENUhZUg0RVXtP/6XgVSlRztWbNGl3XX3nlle3bt9PaqtNfSVV84+PjTz311LJly84+++y1a9c6vPmZvp3KUJ23bcrLbNvWNG3dunUbNmxIJBKXXXbZ0aNHt27dGg6Hs9ksLZpKr3S12me52sY5/81vfvP73/8+k8m85z3vee655wYHB6nwNRQK0SKKVIbntm1Ug+q8bRSPjY2NV1xxxZo1a5qbm++///7169eHQqF4PH7jjTem0+kf//jHmUxm2bJlF1988Vvf+lbO+eHDh1955ZWnnnpqYGBg+pK5viSE0DRt+fLlDz/88N69excvXjx//vy77rrr97///ZIlSy688MJcLhcKhV544QVaYHM2/CY1UVgiePrfPZRW0mqrf/jDH4QQN9xww6c//envfve7tG4qVY0Gg8Fbb721p6fnP//zP9etWxePx6fH1zE/9uSTTx4YGKAy2mNGMa3hHI/HTzzxRNM0j1eVaprm6OgoFY+EQqHt27c/9dRT559//rPPPjs2Nvaud70rm81SsUk4HP75z3/+xBNP/PznP//Yxz72N3/zN5zzeDz+jW98IxAIDA4OXn755W9/+9vpB9Q07f/9v/+3b98+Wm11ZGSEatfd/oCzARXqDw8Pn3POOZdffjmqUgGcQGEqgHQoXbjiiits2/7pT38ai8XoyRbIWQEAAAAAAAAAAAAAAAAAAAAAAAAAoI6oqppIJD7ykY+MjY098MADDz300IYNG66++urVq1d3dHRwzoeGhjZt2rRu3br169dns9nzzz//61//uqZphmGgIKS8XFUiWZbV0NCwYsUKxtjatWunFGhNqaK0bTsQCBw8eDCbzfb09MyZM+fgwYOultb0ViVFa4eqqtrU1CSEoA8JhUKRSKShoSEcDjc2NuZyufHxcSoB9bbUZyltCwaD8Xic2qZpWigUikaj2WxW0zRVVdPpdCaTCQQC3u4Sd9UwRVGSyeRpp532gQ98oLW19ciRI4ODg/l8XlGUbDZ7ww03tLa23n333aqqfvaznz3nnHMYYwcPHnziiSdeeOGFRCJBv+rsuZvdNM0bbrjhN7/5zU9+8pNvfOMbhmGcdtppZ511lmVZ2Wx2zpw5P/jBD7Zu3Xrbbbd1dnZibeeKKmMJpRAiHA4/8cQTZ5111qmnnvqZz3zm7rvvpjKNUCh06623Llu2bMOGDWvXrm1sbHS4t1uWFQ6H16xZs379etM0qfq9cKihGlrDMDRNO/XUU3Vdz+fz03tE5f1Hjx795je/aZqmoiiWZcVisfvvvz8cDjc1Nf3yl7/89a9/PfljabHWzZs3//3f//2iRYsURTl8+PDIyEgoFLr77rupJLXwYmoYYyyXy/3bv/0braHt+6WPXaGSVMMwRkZGzjnnnM985jP0WIFatwugDqAwFUBGVJt65ZVXtrW1/frXv96/f38oFNJ1nVZOr0kSUBhWbdtGFgIAAAAAAAAAAAAAAAAAAAAAAAAAAA4ZhnH77bc3Nzf/8pe/fP3113fs2NHc3NzS0sI5Hx8f7+/vZ4xFIpFrrrnm1ltvRVWqDGidPVpu1DCMyfU5tPSooiiT/6goyvj4eCKRaG9vX7BgwZ49e4LBYEVvOaZqq9bW1ne9610tLS1UREQLkNq2fcEFFxRWC3z22WfXrVtHCwVVrj3HbNvf/u3fxmKxQtuCweC8efOoGVS5+thjj+3cudNVEa+39mSz2eXLl998882GYXz/+99/5ZVXDMMIhUKWZZ122mlve9vbDh06dNJJJ/3d3/0dY2zbtm2PPfbYG2+8kU6nw+FwPB6fVWss0dKyCxcu/MAHPnD33Xfn8/l/+qd/oljQdd00zfvuu+///t//e8YZZ9xwww1Y27leUDGnZVm33HLLsmXLXnrppTPOOOOWW2759re/HQwGb7vttqVLl77xxhunnXbaJz7xiXvvvTccDjvZshTI3d3d559//ubNm4eHh2kJ1snf2N7evnr16ubm5mNWpRbQ8rBTjquZTEZRFNM0pxwiqOQ1FAqZprl161Y69FG5aT6fn/LiyR0p3gY58QllP07Suta2befz+Uwm09ra+uEPf/iyyy6jL6q7HwqgJlCYCiApqk0955xzVq9e/fTTT7/yyisHDx5MJpPHW7290gqDaygUohM2lKcCAAAAAAAAAAAAAAAAAAAAAAAAAEBxVPiRzWZvvvnmCy644JFHHlm/fv2RI0f279/PGAsEAgsWLJg/f/573/vec889N5vNoipVEsdcYpRW/zt69Gh7e/vku5ppxT9alC8QCFS6bZxzKoW94oorhoeH77777paWFjZpAR5FURRFGRsbO+20084777w//elPgUCAbs+uQts456lU6txzz33hhRdefPHFeDxeaFuhwiqZTK5cuXLRokVbtmypdNuEEKqq3nTTTZzzu+66a8+ePVQuOz4+3tzcfO2119q23d3d3d3d/cwzzzz55JP79+83TTMUCtHLpqyXOxuoqppKpT7xiU8wxn70ox+9+uqrp556alNTk6qqr7322jPPPHP++ed/7WtfoyUWcbySHw1Dpml+8pOfPP3003/xi188+OCDV1111fvf//477rhD1/WlS5c+/vjj991334033njppZdalnXfffeFw2EnhRtUm9re3v62t71t586dhw8fpr2CFmLt6elZvHixoihOKkKnv4D2LjpoTH89HVIikQibdMQ+3ouP9xUyo0N9Pp/PZrOVWMKUHl4QjUY7OjpWrVp1ySWXtLS0FNbfBgAnUJgKIC9KR8Lh8KWXXnrppZemUqnDhw9ns9nqj3OUoxw6dOjAgQPbt28/evRooTy1yi0BAAAAAAAAAAAAAAAAAAAAAAAAAID6Qve+joyMzJ8///bbbx8dHd27d28ul6Oak97e3qamJl3Xk8kk/aXW7YW/oFuFQ6EQ/V8hhKIohmF861vf0jQtn8/TAn2Fe5tpPcn9+/drmla5JXCoDExRlKamJrqfORaLCSESiUShkCyfz+fz+Wg0SlWyjY2NwWBweHjYYaVZKW3L5XKhUKixsTEUCuVyuVgsls/n6Y/0W5mmyRiLxWKapmmaRuWO4+Pj4XC4Ek1SFCWVSp199tm9vb2/+tWv9u7d29jYqGnaxRdfPD4+fuKJJ3Z2dg4MDLz00kvr16/fs2cPrZRLP+xsvldcCGFZ1u23337iiSfec889Tz31FC1c2dHR8bWvfe3KK6+kIm0cr+Q3uSr1zDPPfPDBBx9++OG2trZHH300Eom8+93vZoz94Q9/+NnPfhYOh++//37bti+//HLO+X333Ve8yHPyV1Dd6apVq5YtW0a13IVyfcMwKro4mV/jlCJufHy8tbV1zZo13d3dixYtKu/PKIQIhUJdXV3RaJT+Yts2ghrAFRSmgtScnJDQktx+Xb1TURQhBA1v0Wh06dKlNWzMSSedxBjLZrNPP/30448/PjAwEIlE/JrHAAAAAAAAAAAAAAAAAAAAAAAAAABAGamqmsvlMpmMruurVq0qlJcYhmEYRi6XQzWIPDRNGx8fP3z4cGdn56pVq1588cXC9uKcW5ZlmmZhe9GKdieffHIkEslkMolEonKbkgo7m5ubr7/++mAwGAwGGWPz589XVXXTpk1PPvkk1coqinLjjTd2d3dzzgOBwGc+8xlVVQ8cOPDb3/62chViVJW6ZMmSq6++2rIsqkR961vfyhh76qmnNm7cGAwG8/l8Y2Pj9ddfH4lEFEXRNG3p0qWqqm7duvWPf/wjNb7sDbNte+HChaZpvvLKK1Qu+7GPfey0005jjCWTyV/+8pfPPPPMwMAArRxIVXx+vTnfuUI5/dvf/vazzjprdHRUVVXbtuPxeDweTyaTtJvVupkwM9M0C2ulUlVqQ0ODbdsNDQ2/+93vNmzYEAgE9uzZEwqFFEWJRCIPPPAAY4xqU++55x6HC3XSa+iBC5r2l0ItIQT9BStwuqUoSiaTicVi73jHOy666KLGxsZKf6NlWbTUdqW/qMD5GrA4IIPMUJgK8qIhufjRltbONgxj+hN3fINzrqoqm7S6em2FQqFLLrnkvPPO++53v7t58+ZYLEaP9AAAAAAAAAAAAAAAAAAAAAAAAAAAAB9TFKXEO3XptlghRDqdnvxH1O1ISAixefPmU089dfXq1b29vf39/cFgkJa0oYVt6cZmqhQNh8MXX3wx53z79u1HjhyhmsxKtIpzns1mr7rqqm3btj355JPhcJhuIA8Gg+95z3taWlpGR0czmczll1+u6/pdd90ViUQsy1JV1TTNq6++eunSpRs3boxGo5VYm4fubL/66qt/97vf7dq1ixZrtSxr7ty5F1100datWxlj2Wz2xhtv3LVr1x/+8AdqBudc1/Vrrrmmvb19YGCgErWphWVaGWP5fL6zs/PEE09Mp9NUUfyHP/whn883NzeHw+F0Ok0LP5a3AZLw8MPSYraapnV0dBQWvB0bG1NVtewrN5bx04DQNtI07dOf/vTpp5/+85///OGHH47H44XyB13XDx06JIQIBoO0Ri7nvLBu6hVXXJHL5WiZMVffOHlr+jWaKoqqUnt7e2+77bbW1lbGGFXLV+6ZAoWaneqgviQSiVAoVHzvon1J1/VqNQ3ANTyhASQlhFBVNRAIOHkmTTAY3L9/f9XOSMUkVfi6AjqFqznGmGVZ4XD4jjvuOPfcc+npL9X8HQAAAAAAAAAAAAAAAAAAAAAAAAAAoMoURUkkEoZhlOV+3cn3ppblA1HWVV62bQeDwQ0bNvT19bW2tn7wgx9kjBmGQfV4tMmokse27VQqdc0118yZM4cx9txzzzlfBc4bVVVjsdiuXbts27Ysy7IsIUR/f39fXx8tVGjbdmtr6549e7LZrGVZ9LLx8fF9+/ZVtGG2bYfDYcYYfRGt0yiEOHjwIN1xTWtsNjQ0UONN06TGDwwMHDlyRNO0Cu3Gtm3n83lN0xRF0TRtaGjolVdeiUQioVDohRdeoBKphQsXfuUrXzn99NMzmYzix4VAFUWhTeD2jfQuWknLMAzbtitx83xhjU0oF1r7d2xsbNWqVeedd94vf/nLRx99tLm5mQ5cRFGUcDhMyxcX/qKqajwef/DBBx9//PHLL798wYIF+Xzel0EhJ1VVk8nk4sWLv/zlL7e2ttJBkrZL5QpkqlwfpCjK0NCQZVnFn0TAOad/jUajDEXOICuMXiC1wpG0CNu2Y7HY8PDwjh075s6dS9l8RZs0Pe3z5UqtRVB6LYT4yEc+MjAwsHv37nA4XInnBgEAAAAAAAAAAAAAAAAAAAAAAAAAQM3Ztq3r+q5du9LptK7rla48dIuqVlA4VF6apo2Pjz/44IO33HLLypUrP/jBD/7iF78YGxsLBoP0AiFENpttaGj4+Mc/ft555ymKsm7dupdeeqlC65FOZllWMBikOiW6kTsQCEwu7DRNU9d1KsVkjCmKout6MBjMZDIVbRjdYh0IBCzLKtQ7BYNBZWKBWWp8IBCY0ngKqwq1StO0ffv2McbWrFmzZ8+eSCTy4IMPvvbaa7lcbsuWLbquJ5PJ0047LRQKJZNJX8aRoiipVGp8fLypqamwWqYrFT3iCSF2795duc+fhWiZtPHx8ddff/3CCy+0LOuCCy645JJLmLOnGFAZCxWWBwKBZDJpGAatqlr5ts9qnPNcLtfR0XHLLbdomlahOnBSWPR7cnTTswyc1DF5ZhjGwMDA8PBwY2Ojw8M+djyQGQpTQWqtra2HDh0Kh8PF8z96qk0qldq+fXsVakRDoRCdITQ0NLS2toZCocKS61KdY1cUjbWBQOD666//l3/5l1o3BwAAAAAAAAAAAAAAAAAAAAAAAAAAKoXuGj106NCmTZsuuuiiwcFBedb3sywrGo0ePnz41Vdfpbt8a90in7BtOxqNbtiw4Z577vnQhz50wQUXrFq16qmnnnrhhRdoCbtgMHjCCSe85S1vWbp0KWNsw4YNP/7xj6tQu0UlZ4wxqjKlsmRa57NQVElrEWUymUAgYNs2vcC27cqtSkqohNuyrGw2S42k8rZCvFDjqT10P3ah8RWqv6J1XDdv3rx9+/bLL7/86aefHhoa4pw/++yziqKEQqGRkZFzzjnnrW99644dOzZt2hQKhXy2XpEQQtf1gYGBp5566pZbbjl69GjlSt3coh0ml8u9+OKLgUAAh68yomHrsccei0ajVKbu9uflnO/Zs0dV1UceeaRCjYQpFEVJp9Mf/vCHqYa8QqFKhT9U+5PP50dHR8fGxtLptBAin89X9ABIVa+6rjc0NMy4Q9Lo0NDQQHvv7ClWgvoiy/kAwDG1tbUdOHCAnhxT/DBqmmYkEolGo1VYQTufzzPGDMM4cuTIwYMHdV1vaWnp7e2VJ0OtDkVRbNtesmTJ6tWrN2/eXIWHGwEAAAAAAAAAAAAAAAAAAAAAAAAAQE1QucjXvva1xYsXL1y40DAMVuFVBJ0QQmials1m77rrrsOHD8fjcW/LIcIxUU3j2rVrDcO4/vrr29ra/vZv//ayyy4zTZMxput6NBpljOXz+aeeeuqhhx5ijE1eGrQS6K7yZ5999rrrrrv00ksLxZ+0OuLIyIiiKOFw+LnnnrvpppuWLVtW2EXpNQ888EDlyv80TUsmk1u2bLntttvGxsaobbZtB4PB3bt353K5cDisquozzzxzzTXXXHTRRYXG03qeQ0NDlav35pzff//9//zP//z5z3/+hz/8Ia3PSQW0l19++Qc+8IFUKvXDH/6Qfl7/lUfath2JRL7//e+vWrXqggsuyGazTJrDl2maX/rSl7Zs2YK78cuLCpKHh4e/853veN6r6Y203rL/4kI2nPNsNrtw4cKzzz67cmulFkqT+vr6+vr6stksVYrS0BAOhys6itFXc86d5Cqcc8Mw2traKtQYgLJAYSpIig64dHw3DEPX9eIHd8551fIwXdcZY4FAgOpgTdMcGhoaHh7u7u6eM2cOm2VLpzLGzj///FdeeaXWragUMUmt2/IXnlsiYUe8NUaeLpBSOuKbLSJhX7y9yx8dYf7au8remFL4Jt6Zv/Yuz29ERyrBN/HOMJpIuXd5fqNsHfHHaILs0TcdYf7au8remFKUGCZlb49niHffdIQh3ivGN+M789fe5fmN6Egl+CbePcNoUjl+6giyR9k2ijcSdgRhIk8XCOLdN2Him44wxHvF+Cbemb/2Ls9vREcqwTfx7hlGk8qRpyX1bvovaVlWOBzeuXPndddd9+53v/vkk08OBoM1L6MSQuzYsePJJ5984YUXYrEYFUxOeUFNGuYbtm3H4/GXXnpp586db3nLW0455ZSFCxdSPaplWYcOHdq9e/e6deu2bdtGVZeV/sGFEOFweOPGjUeOHCmUigkhVFUdHBzM5/Oapum6fuTIke9///uNjY2WZVFpmaqqiURieHh4xvvSPbNtOxQKPf7441u3bi2s3coY45wfPXqUVlINhUJbtmzp6+srrO5LbRsaGjIMo0ILugohgsHgoUOHvvKVr9x2221f+tKXduzYMTw8LISYM2fO4sWLR0ZGfvCDHwwMDITD4ZoHdemmD7L0I4+Ojn7iE59497vffd5558lw+OKcv/HGG2vXrn366aej0ej0QjUcvkokhKADQumfg21RBYqiZLPZc845R9O0yj1jgnM+Nja2f//+bDYbjUabm5upErVwQK7okcH5jkRNMk2zpaWlcu0BKB0KU0FeQgjOeXd39969e1taWuR5fFFhyKH/qyhKU1OTaZr79u0bHh5euHAhnSfMhtpU6mNPT48MqXmFqKqq63qFTvM8KDwkw+0bFUWRsCPeHmRSucdBecA5VxTFW5PoVEeqY4W3jlCYVGE6ySGaQvLww0oY70KIyZNTzt8oW0cY4l2yePfTaOIt3iUME8S7VPHOSnjwjYSjCUO8S9YRzrmHHV62jpBShkWpskfEu4Qd8cFo4jneGWOapsk2zeKbeMfZomwdYYh3nC1Whp+yR3/EO/EcJmVvSSk8P1JdwtGEId4l60gpo4kkvSjwU/bo4Y2I9wopMXuUKuNCvMsZ7745W/THsMgQ79JsDuKn0cQ3YYKzRaninSF79FG8w3Saph1z0bCGhobBwcFvf/vboVBIkpUVc7mcruuNjY22bU85SGKXKAtabTKdTj/88MOPP/54V1cX1XYKIfr6+pLJpKIosVisarVbQohAINDX1zflspqmaYXDUSAQGBsbGx4envwCOvZWupGKohw4cGDKHwOBAO2H1Pj+/v4ija8Eqk09ePDgV7/61XPOOeess8467bTTGGPpdPqhhx56+umnk8mkP6pS2fHPPak2+Cc/+ckDDzxQ6aV9naD1ITVNa2pqmh4+OHyVBWpK64uiKPPmzWMVWNCYosm27f379/f19cVisdbWVsuyqPhTwkBTVTWVSjU3N9MjGCRsIQCR62ouwGSUS7W3tx88eDCfz8tzWWI6epROa2urYRjbtm074YQTIpHIbDj6Uwc7OjpaW1uHhoZo+fJaN6psOOemaXZ3d7e1tcmzKWnd9nA47LxUmzrS1ta2evVq2eKIuuPw56VcUNf1E0880cP0ekXRw1FcXRvjnC9btkyeXYtN7Cpum2Tb9sKFC51vx+qgWTBXe5eE8c4mZqCcbxcKk3A4fNJJJ8kz3U8Q71LtWrTPh0Iht6NJe3t7JBKRaqO4jXfGmGVZjY2NJ598slRhgniXLd5pn6dLEc77YllWd3d3e3u7PCGPeJcw3ollWQ6vdUkb77SruH2XEEK27NFbvFP26Jt4r85zi11xdXpCYRIIBGQbTYjzeCfSZo9umyRhvDPGbNumJw3Xdbwz32WPbjsiYfZIfBPvrp5CWBhNotGoVBvFbbyziezxlFNOkSpMfBPvdMbk6vVyxjvt8/Tbujpb7Onp6ejokCfkEe8SxjuxbdtVqxRFWb58uTy7FnMf70QIsWjRIqmyR8S7hLNDjDFFUTycLa5atUq2jjDEu0zxzjydLUoY78xr9hiJRGTLHhniXb549zaadHR0xGIxqTaKh+zRNM2mpibZskc/xbur0hdp491z9tjb2ztnzhx5Qn6WxztMRrfvBoPBVatWHe8qEudcURR5CtiowOx47fFwuRmmo5umGhoahBAHDx4s7Bi6rtPqqVXeH4QQ01dBnFyBJoSgUs/pr6lC84LBYJHvnbHxFUITyKlU6uGHH/7DH/4Qi8UYY6ZpJhKJUCgUCoXkCepSFL+vtb4OX3Q0lrNqDqDsTNOMRqO9vb2s3IWpharU7du3U2GFbdv5fJ57fTJLdeRyuWXLljGJWwjAUJgKdaGnp2fPnj1tbW2FQ7+c6E5WzvnOnTu7urra29tnQ20qY0xRFKkmlcpLVVWpnrHHJ3h4o6Zpst1q7A09hq3Wrfgr3k5Qpdq1WAk5q6qq3nbLyrFt20N7ZIt3NnEi5PZdFO+yXUzyBvFeIZ7PpWnNWKk2ird4lzBMEO+y7VqlDItShTziXc4w8dAYCTvim+wR8Y6zxYry9qtKtWsxH8U7w9mifKOJZ4j3CkH2KGGY+CbePY8Isu1ayB4R7xXlm9HEW3tkyx4R7xQmUsU787pdJOwI4l2qeGc4W5RyWES8S7VrIXuUMEz8FO+eL8FLtWshe/RNvMN0M15F8rbOeYVQsdkx/wm7RLkUKicDgcDkP9aqxm/GQa2Go560baMCY1peOJ1OM8YKq93KU6tZuhnPPevl8DVLihEACui0pbyfSXGUTqf37NkjhIhGo1TsLXNwqaqaSCSam5vD4TCOAyA5FKaC1PjEoqmJRGJsbCwej8v8wA/OOSXrkUhk3759QoiOjg4MA/WuCs8fcstze8SE8ran+iTshbf2yNYLVkJHZOvLLO8IQ7xX0iyPdybfRvFNmPimI55J2AuMJrL1xU9hUsre5ZuOlL0xpZjlHWFS7l3eSNiLWZ49+mmL+KMjDPFeSbM83pl8G8U3YeKbjrBZfxD2TUeYfH1BmEjVBTLLw8Q3HWFS9sUbCTuCeJetL7O8I0zKYdEbCXsxy+OdybdRfBMmvukIm/UHYd90hMnXF6kaU9ckPG5444MuyAY/aV0TQliWxRij6i/hr5JU4o9jF0OswaxU3t1eTFSlbt++PRwO67ouc0USURQll8spirJo0SKBciSQnkQPKAI4JjqMLly4UNO0TCYj/woelMg2NTXt37+/v7+famtr3SgAAAAAAAAAAAAAAAAAAAAAAAAAAAAAAMZ8VL0JAHBMk6tSo9GoruvyL6JOq+Wl0+klS5bQ4s+1bhHADFCYCvWBc75y5UrGWDab1TRN/iTYtm3UpgIAAAAAAAAAAAAAAAAAAAAAAAAAAAAAAABUzZSqVEVRJF8dWghBjUwkEieccEIkEkEVEtQFFKZC3VBVdcWKFUKIRCKh67r81Z6oTQUAAAAAAAAAAAAAAAAAAAAAAAAAAAAAAACojulVqTKX81DbdF3P5XJUlRqLxagLtW4awMxQmAr1RFXVk046KR6P9/f3G4ahaZqiSL0PT69NlXk8AwAAAAAAAAAAAAAAAAAAAAAAAAAAAAAAAKg7VLNTR1WpnHNN02zbHhoasm179erV0WgUValQR7RaNwDAHSHEokWLmpubDx48ODw8HAqFQqFQoTy1CotrFwYqh6+n2tQDBw7k8/nu7u6Ktq2GlAkyj9kecM6pX/KM61ThXPi1HTZMmUS2beTq5y1sEQmL0l39vIXtKM+uxUr4een1UvWFTWwR56+XMN4ZY5Pj3eFbEO9V4LN49zaaVLqFrrhqUiGsZAsTxLtsu5a3Vkk4miDe5QwTtyEvZ0d8kz0i3iXcu4gPRhPmPt4l3LWYj+Kd+CDeGbJHxHvFIHuUMEx8E++TZ7adv0XCXQvZo4Qbhfkl3pmPRhO38U4UybJHxLuc8U7dQfYoCd/EO/FBvDMfZY8M8S7ZruWz0cRVk6TNHv0U78z9JXgJdy1kjxJuFOZ+fIcpZD5ueINdAmBWUaQ89/TAQ+IHUL9ohy/xQyjwjxw5cuTIEW9VqVU4dHDO6VuEEIZhZDIZRVF6e3s7OzvZxHKvlW4DQLmgMBXqDB1hm5ubm5ubBwcH+/r6RkZG6CEBjLFAIFDpQ7Cmaaqqcs4ty3L4Ftu2Gxsbjx49Ojw83NHR0dLSout6RRtZZfQ8iVQqlc/nfZb1cs6TyaRhGPIM7YV9LxAIWJblfPovmUym02lVVWXbRqlUytXFpFwul0wmZZshsm07Fovpuu58ltyyrGQyKc+uxRjjnOfz+UgkYtu2qzr/ZDJp27ZUfbFt2zRN6ovDt0gY74wxIYSmabFYzNXFpFQqlUgknO+QVYN4r3TbnKN455x7G02k2ihu410IoapqMpmULUwQ77LFO4WJruuKorgdTSi+Kto85xDvEsY7Y0wIEY1GnbdKznj3TfaIeMfZYkW5jXfOuWmacmaPPoh3xpht25ZlhcPhuo53huwR8V4xpYwmdLm00i10zm28S5s9+ibeaYaEtojDjSJnvCN7RLxXlBAiFotpmlbvo4nbeCeyZY+IdwnjnTHGOY/FYv7IHhHvUvUFZ4sSDouId6l2LRpNFEXRdb3eRxPfZI9+infbtiORiGmazsNEwninMAkGg5zzuh5NZnO8w3SKomQymWQyKeFVJA883E4GAHVNwnNPb4QQuq7T8om1bgtAxU0uTPUWv7Ztj46OHjp0KJvNNjY20oPVHL5XVVU2USnq4atdMQzDtm0hhGmaoVCoo6Ojp6en0GUfHLtgVnERZgDyoP2WDrj5fH5kZITuXkokEhVNIm3bzufztm2rqtrQ0ODq8Qmqqmaz2XQ6TQ8wkGoWpnTr16+X7bb1cqFRv9at+Cs0uUzTxM739nw+b5qmhGkKzck6f71t27lcTraOCCFCoZCrVgkhcrlc5ZrkjRAiGAy6jeVsNluh9nhGF4cCgYCrd0kY74wxznkwGHT1FsuyZKuwJYh3qfhmNHEb79Rf0zSlurxHEO+ydYQmdukJOM7lcjnZzrIR7xLGO3MfJnLGu5+yR8S7bHsX88towtx3RNrs0Tfx7uFsUcJ4Z8geEe8V4200MQzD+a2K1eEte5RzWPRNvHsYTeSM91mePSLeK803o4lvskfEuw/CRM7RhCHeJYOzRQmzR4Z4l4xvRhM/ZY++iXc/nS0GAgG6l905CUeTWRvvcExyhps32CUAZhsJzz0985D4AdQpKkw999xzA4GAhzxZTIhGo6FQyPlCdIwxRVESiYRhGEKIcDhMf6xQFiSEaGhooIcJtrS0FL7OVQYOIA8UpkIdm1yeWjV0W/PIyEhfX18oFNJ13fkj9BRFoUfqSlj4VKJwOOzXUVDCftGjO9wevTnnrp75UTUemuSqJrw6XD3vcPK7KtGYUvipI97CpELtKZE/woT5pSMIE9lGE990hPgjTJhfOuKb0cQ3YeKbjhDfhMksHxYr1B7PECYShgnz1BE59y7Eu4QQ75VoTCl8E+/+GE180xHij454G00kjHffjCa+CRPfdIT4ZjRB9igVhImEowlDvEvGN/FOEO+VaEwpfBPv/hhNfNMR4o+O4GyxQu3xzDdh4q0jMJ2E4eYNdgmA2UbCQbYUOHzBrJLJZDzv85xzVVWpYMf5cYBznkgkmpub29vbA4FAlZ9kIWpRFQVQRnKdCgJ4U83duHDEz2azr7/+uqvaVObfxxj4r9QWAAAAAAAAAAAAAAAAAAAAAAAAAAAAAAAAqkNRlFLe7rZgh3M+Nja2YMGCtra2wieU0gBXfFlbBLMNClMBvKDhylttKgAAAAAAAAAAAAAAAAAAAAAAAAAAAAAAAADUBFWlLly4sLW11bbtEmtiAWYnhA2AF5xzIUQoFFq5cmU2m83n8xiEAAAAAAAAAAAAAAAAAAAAAAAAAAAAAAAAAGSmKEqhKlUIgYIgAG8QOQAeUW1qMBhcsWIFalMBAAAAAAAAAAAAAAAAAAAAAAAAAAAAAAAApMU555yPjo4WqlI557VuFEC9Qh0dgHeFdVMn16YKIWrdLgAAAAAAAAAAAAAAAAAAAAAAAAAAAAAAAAD4C6pBnbxWKqpSAUqBwlSAkhRqU1euXJnNZnO5nKZptW4UAAAAAAAAAAAAAAAAAAAAAAAAAAAAAAAAADAhBC1Eh7VSAcqIY3VHgNLRgJTNZnfs2CGEaGhosCyr1o0CAAAAAAAAAAAAAAAAAAAAAAAAAAAAAAAAmL2EEJqmZbPZTCaDqlSAMkJhKkB5FIal3bt3j46ONjQ0qKqK8lQAAAAAAAAAAAAAAAAAAAAAAAAAAAAAAACAKhNCqKrKGEsmk5qmLVmyJBQKoSoVoFxQmApQTjQ+HT58+ODBg5qmNTQ0KIpi27Zt2xi3AAAAAAAAAAAAAAAAAAAAAAAAAAAAAAAAACqHSnsKJanZbLa5uXnZsmVs0qJ0AFA6FKYClBmNUpZlHThwYGBgQFGUcDgcCAQ4/0u4CSEQdwAAAAAAAAAAAAAAAAAAAAAAAAAAAAAAAABloSgK/QfnPJ/PZ7PZXC7X1NTU09MTjUZr2zYAX0JhKkD5FZ6gkM1m+/v7R0ZGcrmcruu6rgshNE3TNA2hBwAAAAAAAAAAAAAAAAAAAAAAAAAAAAAAAFAiIYRhGLTOXC6X0zStsbGxo6OjoaGBYaFUgMpAYSpApUwet1Kp1ODgYCKRYIwZhkGjXU1bBwAAAAAAAAAAAAAAAAAAAAAAAAAAAAAAAFD3FEWJRCJCiGAw2NbW1tTURGU7KEkFqJz/H/F6SCFFwFuRAAAAAElFTkSuQmCC;strokeColor=none;points=[];labelBackgroundColor=none;rounded=0;html=1;whiteSpace=wrap;" parent="qyDp9NLyyZG6aSjn7zKM-1" vertex="1">
          <mxGeometry x="-0.5585490223398765" width="1077.998868384446" height="98.30456001847799" as="geometry" />
        </mxCell>
        <mxCell id="8wf6-asHPDLKQYIHndWF-1" value="1" style="text;html=1;strokeColor=none;fillColor=none;align=center;verticalAlign=middle;whiteSpace=wrap;rounded=0;fontStyle=1;fontColor=#FFFFFF;fontSize=20;" vertex="1" parent="qyDp9NLyyZG6aSjn7zKM-1">
          <mxGeometry x="61" y="7" width="156" height="34" as="geometry" />
        </mxCell>
        <mxCell id="8wf6-asHPDLKQYIHndWF-6" value="2" style="text;html=1;strokeColor=none;fillColor=none;align=center;verticalAlign=middle;whiteSpace=wrap;rounded=0;fontStyle=1;fontColor=#FFFFFF;fontSize=20;" vertex="1" parent="qyDp9NLyyZG6aSjn7zKM-1">
          <mxGeometry x="61.00000000000001" y="46" width="156" height="34" as="geometry" />
        </mxCell>
        <mxCell id="8wf6-asHPDLKQYIHndWF-7" value="3" style="text;html=1;strokeColor=none;fillColor=none;align=center;verticalAlign=middle;whiteSpace=wrap;rounded=0;fontStyle=1;fontColor=#FFFFFF;fontSize=20;" vertex="1" parent="qyDp9NLyyZG6aSjn7zKM-1">
          <mxGeometry x="221.5" y="7" width="156" height="34" as="geometry" />
        </mxCell>
        <mxCell id="8wf6-asHPDLKQYIHndWF-8" value="4" style="text;html=1;strokeColor=none;fillColor=none;align=center;verticalAlign=middle;whiteSpace=wrap;rounded=0;fontStyle=1;fontColor=#FFFFFF;fontSize=20;" vertex="1" parent="qyDp9NLyyZG6aSjn7zKM-1">
          <mxGeometry x="221.5" y="46" width="156" height="34" as="geometry" />
        </mxCell>
        <mxCell id="8wf6-asHPDLKQYIHndWF-9" value="5" style="text;html=1;strokeColor=none;fillColor=none;align=center;verticalAlign=middle;whiteSpace=wrap;rounded=0;fontStyle=1;fontColor=#FFFFFF;fontSize=20;" vertex="1" parent="qyDp9NLyyZG6aSjn7zKM-1">
          <mxGeometry x="382" y="7" width="156" height="34" as="geometry" />
        </mxCell>
        <mxCell id="8wf6-asHPDLKQYIHndWF-10" value="6" style="text;html=1;strokeColor=none;fillColor=none;align=center;verticalAlign=middle;whiteSpace=wrap;rounded=0;fontStyle=1;fontColor=#FFFFFF;fontSize=20;" vertex="1" parent="qyDp9NLyyZG6aSjn7zKM-1">
          <mxGeometry x="382" y="46" width="156" height="34" as="geometry" />
        </mxCell>
        <mxCell id="8wf6-asHPDLKQYIHndWF-11" value="7" style="text;html=1;strokeColor=none;fillColor=none;align=center;verticalAlign=middle;whiteSpace=wrap;rounded=0;fontStyle=1;fontColor=#FFFFFF;fontSize=20;" vertex="1" parent="qyDp9NLyyZG6aSjn7zKM-1">
          <mxGeometry x="542.5" y="7" width="156" height="34" as="geometry" />
        </mxCell>
        <mxCell id="8wf6-asHPDLKQYIHndWF-12" value="8" style="text;html=1;strokeColor=none;fillColor=none;align=center;verticalAlign=middle;whiteSpace=wrap;rounded=0;fontStyle=1;fontColor=#FFFFFF;fontSize=20;" vertex="1" parent="qyDp9NLyyZG6aSjn7zKM-1">
          <mxGeometry x="542.5" y="46" width="156" height="34" as="geometry" />
        </mxCell>
        <mxCell id="8wf6-asHPDLKQYIHndWF-13" value="9" style="text;html=1;strokeColor=none;fillColor=none;align=center;verticalAlign=middle;whiteSpace=wrap;rounded=0;fontStyle=1;fontColor=#FFFFFF;fontSize=20;" vertex="1" parent="qyDp9NLyyZG6aSjn7zKM-1">
          <mxGeometry x="703" y="7" width="156" height="34" as="geometry" />
        </mxCell>
        <mxCell id="8wf6-asHPDLKQYIHndWF-14" value="10" style="text;html=1;strokeColor=none;fillColor=none;align=center;verticalAlign=middle;whiteSpace=wrap;rounded=0;fontStyle=1;fontColor=#FFFFFF;fontSize=20;" vertex="1" parent="qyDp9NLyyZG6aSjn7zKM-1">
          <mxGeometry x="703" y="46" width="156" height="34" as="geometry" />
        </mxCell>
        <mxCell id="8wf6-asHPDLKQYIHndWF-15" value="11" style="text;html=1;strokeColor=none;fillColor=none;align=center;verticalAlign=middle;whiteSpace=wrap;rounded=0;fontStyle=1;fontColor=#FFFFFF;fontSize=20;" vertex="1" parent="qyDp9NLyyZG6aSjn7zKM-1">
          <mxGeometry x="863.5" y="7" width="156" height="34" as="geometry" />
        </mxCell>
        <mxCell id="8wf6-asHPDLKQYIHndWF-16" value="12" style="text;html=1;strokeColor=none;fillColor=none;align=center;verticalAlign=middle;whiteSpace=wrap;rounded=0;fontStyle=1;fontColor=#FFFFFF;fontSize=20;" vertex="1" parent="qyDp9NLyyZG6aSjn7zKM-1">
          <mxGeometry x="863.5" y="46" width="156" height="34" as="geometry" />
        </mxCell>
        <mxCell id="4VwqD9fQMVnzG3LPeEwB-107" value="" style="endArrow=none;html=1;fontSize=10;shadow=0;strokeColor=#B3B3B3;" parent="1" edge="1">
          <mxGeometry width="50" height="50" relative="1" as="geometry">
            <mxPoint x="274.89" y="136" as="sourcePoint" />
            <mxPoint x="275" y="201" as="targetPoint" />
          </mxGeometry>
        </mxCell>
        <mxCell id="qyDp9NLyyZG6aSjn7zKM-16" value="NVMe Drive Bay Handle" style="text;html=1;strokeColor=none;fillColor=none;align=center;verticalAlign=middle;whiteSpace=wrap;rounded=0;shadow=0;fontSize=10;" parent="1" vertex="1">
          <mxGeometry x="321" y="2" width="66.78" height="20" as="geometry" />
        </mxCell>
        <mxCell id="qyDp9NLyyZG6aSjn7zKM-17" value="" style="endArrow=none;html=1;fontSize=10;shadow=0;strokeColor=#B3B3B3;exitX=0.329;exitY=0.203;exitDx=0;exitDy=0;exitPerimeter=0;" parent="1" source="qyDp9NLyyZG6aSjn7zKM-3" edge="1">
          <mxGeometry width="50" height="50" relative="1" as="geometry">
            <mxPoint x="355" y="66" as="sourcePoint" />
            <mxPoint x="354.89" y="25" as="targetPoint" />
          </mxGeometry>
        </mxCell>
      </root>
    </mxGraphModel>
  </diagram>
</mxfile>
